<svg width="66" height="76" viewBox="0 0 66 76" fill="none" xmlns="http://www.w3.org/2000/svg">
<path d="M0.1875 14.5625C0.1875 6.79883 6.48633 0.5 14.25 0.5H28.3125V28.4346C28.3125 30.3975 30.583 31.4961 32.1211 30.2656L40.0312 23.9375L47.9414 30.2656C49.4795 31.4961 51.75 30.3975 51.75 28.4346V0.5H56.4375H61.125C63.7178 0.5 65.8125 2.59473 65.8125 5.1875V52.0625C65.8125 54.6553 63.7178 56.75 61.125 56.75V66.125C63.7178 66.125 65.8125 68.2197 65.8125 70.8125C65.8125 73.4053 63.7178 75.5 61.125 75.5H56.4375H14.25C6.48633 75.5 0.1875 69.2012 0.1875 61.4375V14.5625ZM9.5625 61.4375C9.5625 64.0303 11.6572 66.125 14.25 66.125H51.75V56.75H14.25C11.6572 56.75 9.5625 58.8447 9.5625 61.4375Z" fill="#CA0E1F"/>
</svg>
