<svg width="126" height="101" viewBox="0 0 126 101" fill="none" xmlns="http://www.w3.org/2000/svg">
<path d="M63.6642 17.141L44.7561 32.455C41.6113 34.9943 41.0057 39.5651 43.3888 42.8271C45.9085 46.304 50.8114 46.9876 54.1906 44.3507L73.587 29.2711C74.9543 28.2163 76.9076 28.4507 77.9819 29.818C79.0563 31.1853 78.8023 33.1387 77.435 34.213L73.3526 37.3773L107.965 69.2554H116.13C121.306 69.2554 125.506 65.0558 125.506 59.8795V34.8771C125.506 29.7008 121.306 25.5012 116.13 25.5012H101.285H100.504H100.367L99.6051 25.0129L85.4241 15.93C82.4355 14.0157 78.9391 13 75.384 13C71.1258 13 66.9848 14.465 63.6642 17.141ZM68.1177 41.4402L58.0191 49.2926C51.8661 54.0977 42.9395 52.8476 38.3297 46.5189C33.9933 40.5612 35.0872 32.2401 40.8104 27.6108L57.062 14.465C54.7961 13.5079 52.3545 13.0195 49.8738 13.0195C46.2015 13 42.627 14.0939 39.5603 16.1253L25.4964 25.5012H9.86992C4.69364 25.5012 0.494019 29.7008 0.494019 34.8771V59.8795C0.494019 65.0558 4.69364 69.2554 9.86992 69.2554H31.0048L48.858 85.546C52.6865 89.0425 58.6051 88.769 62.1015 84.9405C63.1758 83.749 63.8986 82.3621 64.2697 80.9167L67.5903 83.9639C71.3993 87.4603 77.3373 87.2064 80.8338 83.3974C81.7128 82.4403 82.3574 81.3269 82.7676 80.1744C86.557 82.7137 91.7137 82.1863 94.8976 78.7094C98.3941 74.9005 98.1401 68.9624 94.3312 65.466L68.1177 41.4402Z" fill="#007AC2"/>
</svg>
