<svg xmlns="http://www.w3.org/2000/svg" xmlns:xlink="http://www.w3.org/1999/xlink" width="127.751" height="62.131" viewBox="0 0 127.751 62.131"><defs><clipPath id="a"><rect width="127.751" height="62.13" fill="none"/></clipPath></defs><g clip-path="url(#a)"><path d="M287.624,105.31H285.31V98.684h2.207a3.191,3.191,0,0,1,2.9,1.241,3.459,3.459,0,0,1,.595,2.045c0,2.207-1.239,3.341-3.388,3.341m.107-5.118h-.757V103.8h.757c1.128,0,1.612-.7,1.612-1.776S288.86,100.192,287.732,100.192Z" transform="translate(-233.401 -80.729)" fill="#fff"/><path d="M321.67,105.31V98.683h3.659v1.508h-2.047v1.026h1.992v1.45h-1.992V103.8h2.047v1.51Z" transform="translate(-263.145 -80.729)" fill="#fff"/><path d="M351.393,102.668a2.718,2.718,0,0,1-1.934.542h-.753v2.1H347.09V98.684h2.154a3.294,3.294,0,0,1,2.041.484,2.237,2.237,0,0,1,.81,1.778,2.6,2.6,0,0,1-.7,1.723m-2.041-2.476h-.646v1.563h.7c.539,0,1.075-.108,1.075-.81S349.888,100.192,349.352,100.192Z" transform="translate(-283.94 -80.729)" fill="#fff"/><path d="M375.53,105.31l-.322-.972h-2.316l-.322.972h-1.83l2.691-6.626h1.288l2.638,6.626Zm-1.456-4.581h0l-.7,2.267h1.4Z" transform="translate(-303.287 -80.729)" fill="#fff"/><path d="M413.525,105.31l-1.5-2.154h-.053v2.154H410.35V98.684h2.1a3.072,3.072,0,0,1,2.047.484,2.309,2.309,0,0,1,.806,1.778,2,2,0,0,1-1.67,2.1l1.83,2.262Zm-.913-5.118h-.644v1.832h.591c.644,0,1.128-.269,1.128-.968C413.687,100.407,413.148,100.192,412.612,100.192Z" transform="translate(-335.691 -80.729)" fill="#fff"/><path d="M440.873,100.192v5.118H439.2v-5.118H437.86V98.683h4.3v1.508Z" transform="translate(-358.195 -80.729)" fill="#fff"/><path d="M465.415,105.31l-.322-.972h-2.311l-.327.972H460.63l2.636-6.626h1.343l2.636,6.626Zm-1.45-4.581h0l-.7,2.267h1.4Z" transform="translate(-376.823 -80.729)" fill="#fff"/><path d="M505.671,105.31l.058-4.956h-.058l-1.4,4.956h-1.128l-1.4-4.956.053,4.956H500.24V98.683h2.154l1.343,4.365,1.29-4.365h2.207v6.626Z" transform="translate(-409.226 -80.729)" fill="#fff"/><path d="M544.58,105.31V98.683h3.659v1.508H546.2v1.026h1.989v1.45H546.2V103.8h2.043v1.51Z" transform="translate(-445.499 -80.729)" fill="#fff"/><path d="M574.163,105.31l-2.531-4.039h-.053l.053,4.039H570.02V98.683h1.452l2.584,4.15L574,98.683h1.612v6.626Z" transform="translate(-466.31 -80.729)" fill="#fff"/><path d="M607.023,100.192v5.118H605.3v-5.118H604.01V98.683h4.3v1.508Z" transform="translate(-494.116 -80.729)" fill="#fff"/><path d="M632.045,104.935a3.425,3.425,0,0,1-3.5-3.34,3.124,3.124,0,0,1,.269-1.4,1.52,1.52,0,0,1,.429-.751,3.291,3.291,0,0,1,2.8-1.348,3.421,3.421,0,1,1,0,6.841m0-5.385a1.97,1.97,0,0,0,0,3.93,1.826,1.826,0,0,0,1.772-1.938A1.877,1.877,0,0,0,632.045,99.55Z" transform="translate(-514.188 -80.247)" fill="#fff"/><path d="M287.624,154.45H285.31v-6.626h2.207a3.194,3.194,0,0,1,2.9,1.239,3.469,3.469,0,0,1,.595,2.047c0,2.211-1.239,3.34-3.388,3.34m.107-5.118h-.757v3.608h.757c1.128,0,1.612-.7,1.612-1.777S288.86,149.332,287.732,149.332Z" transform="translate(-233.401 -120.929)" fill="#fff"/><path d="M321.67,154.45v-6.626h3.659v1.508h-2.047v1.026h1.992v1.454h-1.992v1.128h2.047v1.51Z" transform="translate(-263.145 -120.928)" fill="#fff"/><rect width="1.665" height="6.626" transform="translate(65.841 26.896)" fill="#fff"/><path d="M381.346,154.45l-2.529-4.039.055,4.039H377.26v-6.626h1.45l2.529,4.15h.055l-.107-4.15H382.8v6.626Z" transform="translate(-308.621 -120.928)" fill="#fff"/><path d="M415.532,149.332v1.133h1.939v1.454h-1.939v2.531H413.92v-6.626h3.6v1.508Z" transform="translate(-338.611 -120.928)" fill="#fff"/><path d="M440.177,154.068a3.425,3.425,0,0,1-3.5-3.34,4.017,4.017,0,0,1,.269-1.4,3.441,3.441,0,0,1,.429-.757,3.37,3.37,0,0,1,2.8-1.346,3.421,3.421,0,1,1,0,6.841m0-5.387a1.971,1.971,0,0,0,0,3.932,1.827,1.827,0,0,0,1.772-1.939A1.877,1.877,0,0,0,440.177,148.681Z" transform="translate(-357.23 -120.439)" fill="#fff"/><path d="M482.723,154.45l-1.561-2.154v2.154H479.55v-6.626h2.094a3.043,3.043,0,0,1,2.047.488,2.3,2.3,0,0,1,.806,1.777,2,2,0,0,1-1.667,2.1l1.827,2.261Zm-.913-5.118h-.648v1.831h.595c.644,0,1.128-.267,1.128-.966C482.885,149.547,482.348,149.332,481.81,149.332Z" transform="translate(-392.3 -120.929)" fill="#fff"/><path d="M516.621,154.45l.053-4.956h-.053l-1.4,4.956h-1.132l-1.4-4.956.053,4.956H511.19v-6.626h2.149l1.348,4.365,1.29-4.365h2.149v6.626Z" transform="translate(-418.184 -120.928)" fill="#fff"/><path d="M557.365,154.45l-.322-.968h-2.26l-.377.968H552.58l2.685-6.626h1.294l2.638,6.626Zm-1.45-4.576h0l-.7,2.26h1.4Z" transform="translate(-452.043 -120.929)" fill="#fff"/><path d="M591.29,149.332v5.118h-1.666v-5.118H588.33v-1.508h4.254v1.508Z" transform="translate(-481.289 -120.928)" fill="#fff"/><rect width="1.719" height="6.626" transform="translate(111.886 26.896)" fill="#fff"/><path d="M632.357,154.072a3.446,3.446,0,0,1-3.5-3.395q0-.026,0-.053a3.4,3.4,0,0,1,3.5-3.393,3.353,3.353,0,0,1,2.9,1.563,2.666,2.666,0,0,1,.429,1.079h-1.772a1.727,1.727,0,0,0-1.612-1.188,1.824,1.824,0,0,0-1.723,1.939,1.877,1.877,0,0,0,1.778,1.992,1.74,1.74,0,0,0,1.557-1.128h1.772a3.345,3.345,0,0,1-3.33,2.584" transform="translate(-514.445 -120.443)" fill="#fff"/><path d="M670.581,154.45l-.322-.968H668l-.375.968H665.79l2.691-6.626h1.294l2.633,6.626Zm-1.456-4.576h0l-.7,2.26h1.4Z" transform="translate(-544.656 -120.929)" fill="#fff"/><path d="M576.653,138.344H575.1l-.646,1.832h1.559Z" transform="translate(-469.934 -113.173)" fill="#fff"/><path d="M89,267.037l-.591-.972,26.677-15.512.542.971Z" transform="translate(-72.321 -204.968)" fill="#fff"/><path d="M89,101.262l-.591-1.021,26.677-15.458.542.966Z" transform="translate(-72.321 -69.358)" fill="#fff"/><path d="M163.594,15.963h-1.132V5.245l-14.684-3.93V11.709H146.65V.558a.661.661,0,0,1,.215-.429A.622.622,0,0,1,147.4.021l15.76,4.2a.564.564,0,0,1,.433.54Z" transform="translate(-119.968 0)" fill="#fff"/><path d="M2.309,243.954l-.542-.968L28.4,227.473l.589.966Z" transform="translate(-1.446 -186.087)" fill="#fff"/><path d="M2.309,78.157l-.542-.972L28.4,61.674l.589.972Z" transform="translate(-1.446 -50.453)" fill="#fff"/><path d="M16.353,181.842h-.107l-15.817-4.2A.714.714,0,0,1,0,177.047l.055-30.108a.528.528,0,0,1,.215-.488.729.729,0,0,1,.488-.107L16.516,150.6a.525.525,0,0,1,.43.539V181.3a.491.491,0,0,1-.217.433.454.454,0,0,1-.376.109M1.186,176.617l14.63,3.93V151.569l-14.63-3.877Z" transform="translate(0 -119.718)" fill="#fff"/><path d="M163,96.716a.2.2,0,0,1-.16-.055l-15.76-4.2a.564.564,0,0,1-.429-.537V61.759a.965.965,0,0,1,.215-.488.521.521,0,0,1,.484-.053l15.812,4.2a.564.564,0,0,1,.433.537V96.12a.963.963,0,0,1-.215.488.79.79,0,0,1-.38.108m-15.221-5.278,14.684,3.93V66.442l-14.684-3.93Z" transform="translate(-119.968 -50.051)" fill="#fff"/><path d="M286.49,205.044a1.164,1.164,0,0,0-.322-.22c-.107-.053-.215-.053-.322-.107-.113,0-.275-.053-.382-.053H283.53V210.7h.324v-2.587h1.557a1.211,1.211,0,0,0,.435-.055.749.749,0,0,0,.322-.107l.322-.162a1.689,1.689,0,0,0,.429-.589,2.1,2.1,0,0,0,0-1.617,1.468,1.468,0,0,0-.429-.537m-1.508,2.8h-1.128v-2.905h1.128c.16,0,.322.055.429.055s.267,0,.322.053a.773.773,0,0,1,.327.107.421.421,0,0,1,.215.107,1.177,1.177,0,0,1,.375.484,2.647,2.647,0,0,1,.107.644,2.69,2.69,0,0,1-.107.65,1.178,1.178,0,0,1-.375.484c-.055.053-.162.107-.215.16-.107,0-.215.055-.327.055-.055.053-.215.053-.322.053a1.031,1.031,0,0,1-.429.054" transform="translate(-231.944 -167.427)" fill="#fff"/><path d="M313.282,208.6a.894.894,0,0,1-.055.375v.377c-.053.107-.053.215-.107.322s-.16.215-.215.322a1.32,1.32,0,0,1-.537.382,1.549,1.549,0,0,1-1.29,0,1.308,1.308,0,0,1-.54-.382c-.055-.107-.162-.215-.215-.322s-.055-.215-.109-.322v-.377c0-.107-.053-.267-.053-.375v-3.935h-.322v4.365c.053.162.053.322.107.484a1.867,1.867,0,0,0,.215.482,1.576,1.576,0,0,0,.429.435,1.043,1.043,0,0,0,.542.269,1.683,1.683,0,0,0,1.183,0,1.028,1.028,0,0,0,.537-.269,1.071,1.071,0,0,0,.429-.435,1.867,1.867,0,0,0,.215-.482c.055-.162.055-.322.107-.484v-4.365h-.322Z" transform="translate(-253.467 -167.427)" fill="#fff"/><path d="M339.645,205.146a5.43,5.43,0,0,1,.913-.591,3.484,3.484,0,0,1,1.079-.22,1.958,1.958,0,0,1,.859.167,2.148,2.148,0,0,1,.7.375,1.166,1.166,0,0,1,.484.377,1.45,1.45,0,0,1,.269.322h.375v-.053c-.107-.162-.267-.324-.429-.539a2.4,2.4,0,0,0-.591-.429,3.105,3.105,0,0,0-.751-.38,4.691,4.691,0,0,0-.913-.107,2.886,2.886,0,0,0-1.186.215,3.366,3.366,0,0,0-1.021.65,3.251,3.251,0,0,0-.644,1.021,2.989,2.989,0,0,0,0,2.48,3.273,3.273,0,0,0,.644,1.021,3.236,3.236,0,0,0,1.021.649,2.919,2.919,0,0,0,1.186.215,2.522,2.522,0,0,0,.913-.108c.269-.107.537-.215.751-.322a2.482,2.482,0,0,0,.591-.489,1.479,1.479,0,0,0,.377-.482l.053-.107h-.375v.053a1.191,1.191,0,0,1-.269.269,1.466,1.466,0,0,1-.429.375,2.7,2.7,0,0,1-.7.382,2.315,2.315,0,0,1-.913.16,3.474,3.474,0,0,1-1.079-.215,5.313,5.313,0,0,1-.913-.595,5.418,5.418,0,0,1-.591-.913,3.543,3.543,0,0,1-.215-1.133,3.879,3.879,0,0,1,.215-1.132,5.374,5.374,0,0,1,.591-.913" transform="translate(-276.925 -166.938)" fill="#fff"/><path d="M397.162,205.527c-.113-.107-.22-.269-.327-.376a1.149,1.149,0,0,0-.322-.215c-.107-.058-.162-.113-.269-.165a1.838,1.838,0,0,0-.322-.055c-.107,0-.269-.053-.429-.053H393.5V210.7h.327v-5.762H394.9a1.474,1.474,0,0,1,.484.055h.377c.107,0,.215.053.322.053a1.143,1.143,0,0,1,.267.162,1.167,1.167,0,0,1,.539.589,1.726,1.726,0,0,1,.16.753,2.671,2.671,0,0,1-.107.65,1.785,1.785,0,0,1-.377.59c-.107.054-.215.162-.267.162l-.322.162a.7.7,0,0,0-.324.053h-.859l1.827,2.534h.429l-1.612-2.207.162-.054a2.127,2.127,0,0,0,.859-.166,4.6,4.6,0,0,0,.539-.484,1.739,1.739,0,0,0,.326-.644,2.389,2.389,0,0,0,.055-.6,1.791,1.791,0,0,0-.055-.537c-.053-.162-.107-.324-.16-.484" transform="translate(-321.906 -167.426)" fill="#fff"/><rect width="0.322" height="6.035" transform="translate(76.759 37.237)" fill="#fff"/><path d="M437.666,205.953a3.317,3.317,0,0,0-.644-1.021,3.408,3.408,0,0,0-1.021-.65,2.907,2.907,0,0,0-1.188-.215,3.14,3.14,0,0,0-1.235.215,4.235,4.235,0,0,0-1.021.65,3.317,3.317,0,0,0-.644,1.021,2.953,2.953,0,0,0,0,2.48,3.338,3.338,0,0,0,.644,1.021,4.019,4.019,0,0,0,1.021.649,3.17,3.17,0,0,0,1.235.215A2.931,2.931,0,0,0,436,210.1a3.276,3.276,0,0,0,1.021-.649,3.341,3.341,0,0,0,.644-1.021,2.989,2.989,0,0,0,0-2.48m-2.853,4.1a3.832,3.832,0,0,1-1.128-.214,3.447,3.447,0,0,1-.859-.6,2.426,2.426,0,0,1-.591-.913,2.524,2.524,0,0,1-.215-1.134,2.687,2.687,0,0,1,.215-1.132,2.411,2.411,0,0,1,.591-.913,3.48,3.48,0,0,1,.859-.591,3.823,3.823,0,0,1,1.128-.22,3.5,3.5,0,0,1,1.079.22,3.065,3.065,0,0,1,1.5,1.5,3.1,3.1,0,0,1,0,2.265,3.5,3.5,0,0,1-.644.913,3.417,3.417,0,0,1-.861.6,3.5,3.5,0,0,1-1.079.214" transform="translate(-353.107 -166.939)" fill="#fff"/><rect width="0.322" height="0.698" transform="translate(69.176 39.769)" fill="#fff"/></g></svg>