<svg width="506" height="160" viewBox="0 0 506 160" fill="none" xmlns="http://www.w3.org/2000/svg">
<path d="M0.00260944 2.61444H49.4924V11.8931H12.0589V28.8518H49.4899V38.0243H12.0589V61.383H49.4899V70.5554H0L0.00260944 2.61444Z" fill="#5A5A5A"/>
<path d="M65.0363 26.5562H79.8263L92.7066 39.0737L105.325 26.5562H119.991L99.8529 46.4117L124.209 70.5503H109.686L92.6211 53.7315L75.3852 70.5503H60.9838L85.3893 46.3443L65.0363 26.5562Z" fill="#5A5A5A"/>
<path d="M173.564 1.52588e-05L215.727 70.5606H202.94L192.575 53.177H154.686L144.438 70.5606H131.741L173.564 1.52588e-05ZM173.531 21.2029L159.246 45.4348H187.973L173.531 21.2029Z" fill="#5A5A5A"/>
<path d="M295.693 4.95943V15.4663C287.228 12.1049 278.232 10.2807 269.126 10.0794C259.796 9.76838 250.61 12.4475 242.91 17.7257C235.807 22.8233 232.255 29.0825 232.255 36.5034C232.255 44.0676 235.889 50.3804 243.156 55.4417C251.249 60.7428 260.79 63.3959 270.458 63.0336C279.17 62.8666 287.755 60.927 295.693 57.3332V67.9566C287.331 71.2801 278.404 72.9468 269.406 72.8642C256.74 73.2214 244.298 69.474 233.937 62.1811C224.123 55.059 219.217 46.4704 219.217 36.4153C219.217 26.5398 224.041 18.085 233.691 11.0511C243.866 3.84374 256.107 0.13398 268.572 0.479419C277.79 0.558574 286.939 2.06996 295.693 4.95943Z" fill="#5A5A5A"/>
<path d="M307.031 2.61444H361.636V11.8931H340.327V70.5529H328.271V11.8931H307.024L307.031 2.61444Z" fill="#5A5A5A"/>
<path d="M413.702 26.5561H425.898V70.5502H413.702V61.8053C410.984 64.9926 407.595 67.5395 403.777 69.2637C399.96 70.9879 395.809 71.8466 391.62 71.7784C384.5 71.9536 377.559 69.5272 372.099 64.9535C369.573 62.991 367.53 60.4761 366.126 57.6016C364.722 54.7271 363.996 51.5694 364.002 48.3705C364.048 45.2378 364.808 42.1567 366.223 39.3615C367.638 36.5662 369.671 34.1302 372.169 32.2384C377.503 27.6735 384.323 25.2174 391.343 25.3331C395.798 25.3162 400.202 26.2814 404.242 28.16C407.965 29.7767 411.22 32.3079 413.704 35.5187L413.702 26.5561ZM415.383 48.6866C415.343 46.6329 414.804 44.6199 413.81 42.822C412.817 41.0241 411.4 39.4956 409.683 38.3689C405.715 35.5799 400.984 34.081 396.134 34.0764C391.284 34.0718 386.551 35.5615 382.577 38.3429C380.871 39.4154 379.453 40.8902 378.45 42.6381C377.446 44.3859 376.886 46.3534 376.82 48.3679C376.837 50.4591 377.356 52.5156 378.334 54.3643C379.311 56.2131 380.719 57.7999 382.437 58.9914C386.346 61.9616 391.154 63.505 396.061 63.3652C400.962 63.4919 405.761 61.9609 409.683 59.0199C411.397 57.8859 412.811 56.3536 413.803 54.554C414.796 52.7545 415.338 50.7413 415.383 48.6866Z" fill="#5A5A5A"/>
<path d="M73.573 87.1358C75.0957 87.1358 75.8638 87.9039 75.8638 89.4267V99.3045C75.8638 100.827 75.0957 101.595 73.573 101.595H21.4521C19.4443 101.595 18.016 102.121 17.1805 103.159C16.3451 104.196 15.9274 105.625 15.9274 107.431V110.975C15.9274 114.856 17.733 116.796 21.3443 116.796H60.3541C66.3909 116.796 70.932 118.346 73.9773 121.432C77.0361 124.518 78.5588 128.938 78.5588 134.692V143.02C78.5588 148.087 77.063 152.171 74.0851 155.297C71.1071 158.423 66.4583 159.973 60.1385 159.973H2.50633C0.916294 159.973 0.107799 159.205 0.107799 157.682V147.804C0.107799 146.282 0.902819 145.513 2.50633 145.513H57.1336C59.1414 145.513 60.5697 144.988 61.4052 143.95C62.2406 142.913 62.6584 141.484 62.6584 139.678V135.406C62.6584 131.525 60.8527 129.585 57.2414 129.585H18.2181C12.1813 129.585 7.64028 128.035 4.58147 124.949C1.53614 121.863 0 117.443 0 111.689V104.088C0 99.0216 1.49572 94.9384 4.47367 91.8119C7.45163 88.6855 12.1005 87.1358 18.4202 87.1358H73.5596H73.573ZM163.922 87.1358C171.9 87.1358 177.626 88.9416 181.089 92.5531C184.552 96.1646 186.291 101.501 186.291 108.576V116.271C186.291 123.346 184.552 128.682 181.089 132.294C177.626 135.905 171.9 137.697 163.922 137.697H120.843V157.669C120.843 159.191 120.075 159.96 118.552 159.96H107.314C105.724 159.96 104.916 159.191 104.916 157.669V90.2487C104.916 88.1734 105.953 87.1223 108.042 87.1223H163.909L163.922 87.1358ZM120.843 123.965H160.688C164.219 123.965 166.725 123.197 168.18 121.675C169.636 120.152 170.363 117.82 170.363 114.708V110.759C170.363 107.633 169.636 105.315 168.18 103.792C166.725 102.269 164.232 101.501 160.688 101.501H122.191C121.288 101.501 120.843 101.919 120.843 102.754V123.979V123.965ZM246.887 87.1358C249.529 87.1358 251.738 87.6748 253.544 88.7529C255.35 89.831 257.115 91.9332 258.853 95.0462L293.295 157.574C293.645 158.262 293.726 158.841 293.551 159.286C293.376 159.731 292.877 159.96 292.042 159.96H278.823C277.637 159.96 276.842 159.515 276.424 158.612L269.04 145.19H220.14L212.958 158.612C212.472 159.515 211.677 159.96 210.559 159.96H197.03C196.127 159.96 195.588 159.731 195.413 159.286C195.238 158.841 195.332 158.262 195.669 157.574L229.801 95.0462C231.539 91.9197 233.237 89.831 234.895 88.7529C236.566 87.6748 238.506 87.1358 240.716 87.1358H246.86H246.887ZM226.702 133.129H262.491L245.944 102.647C245.661 102.161 245.284 101.919 244.799 101.919H244.179C243.694 101.919 243.317 102.161 243.034 102.647L226.702 133.129ZM375.627 87.1358C383.604 87.1358 389.331 88.9416 392.794 92.5531C396.257 96.1646 397.995 101.501 397.995 108.576V114.505C397.995 120.475 396.782 125.192 394.357 128.655C391.931 132.118 387.97 134.342 382.499 135.312L400.286 157.372C400.636 157.723 400.731 158.235 400.596 158.935C400.461 159.636 399.909 159.973 398.938 159.973H385.517C384.615 159.973 383.995 159.865 383.644 159.663C383.294 159.461 382.944 159.111 382.607 158.625L366.167 136.983H332.561V157.682C332.561 159.205 331.793 159.973 330.27 159.973H319.032C317.442 159.973 316.634 159.205 316.634 157.682V90.2622C316.634 88.1869 317.671 87.1358 319.76 87.1358H375.627ZM332.547 124.275H372.393C375.923 124.275 378.43 123.507 379.885 121.985C381.34 120.462 382.068 118.13 382.068 115.017V110.651C382.068 107.525 381.34 105.207 379.885 103.684C378.43 102.161 375.937 101.393 372.393 101.393H333.895C332.992 101.393 332.547 101.811 332.547 102.647V124.289V124.275ZM438.918 87.1358C440.441 87.1358 441.209 87.9039 441.209 89.4267V117.106H455.883C457.554 117.106 458.942 117.052 460.047 116.945C461.152 116.837 462.122 116.621 462.958 116.271C463.793 115.92 464.548 115.435 465.248 114.815C465.949 114.195 466.677 113.387 467.431 112.417L485.326 88.4834C485.676 87.9983 486.013 87.6479 486.364 87.4457C486.714 87.2436 487.374 87.1358 488.344 87.1358H501.24C502.143 87.1358 502.682 87.4323 502.857 88.0252C503.032 88.6181 502.938 89.1572 502.601 89.6423L482.415 115.759C481.243 117.349 480.138 118.71 479.141 119.815C478.13 120.92 477.147 121.89 476.177 122.726C478.885 124.397 481.513 126.89 484.086 130.218L505.417 157.278C505.7 157.628 505.794 158.167 505.727 158.895C505.66 159.623 505.107 159.987 504.056 159.987H490.743C489.84 159.987 489.22 159.879 488.87 159.677C488.52 159.474 488.169 159.124 487.832 158.639L468.685 133.87C467.297 132.064 465.801 130.838 464.211 130.178C462.621 129.518 460.222 129.194 457.029 129.194H441.209V157.709C441.209 159.232 440.441 160 438.918 160H427.68C426.09 160 425.282 159.232 425.282 157.709V89.4537C425.282 87.9309 426.077 87.1627 427.68 87.1627H438.918V87.1358Z" fill="url(#paint0_linear_27_509)"/>
<defs>
<linearGradient id="paint0_linear_27_509" x1="0" y1="123.561" x2="505.748" y2="123.561" gradientUnits="userSpaceOnUse">
<stop stop-color="#CBDB2A"/>
<stop offset="1" stop-color="#00A84F"/>
</linearGradient>
</defs>
</svg>
