<svg width="225" height="49" viewBox="0 0 225 49" fill="none" xmlns="http://www.w3.org/2000/svg">
<g clip-path="url(#clip0_1_72)">
<path d="M37.95 0L47.445 1.041C45.0247 5.75634 41.8817 10.0641 38.13 13.808C29.0277 22.9601 16.7577 28.2661 3.85501 28.63L5.827 23.211C12.5716 21.9776 18.9557 19.2537 24.5132 15.238C30.0707 11.2224 34.6614 6.01634 37.95 0Z" fill="white"/>
<path d="M5.827 23.211L3.85501 28.63C16.7578 28.2658 29.0278 22.9593 38.13 13.807C41.8816 10.063 45.0246 5.75527 47.445 1.03999L37.95 -0.00100708C34.6615 6.01551 30.0709 11.2217 24.5134 15.2376C18.9559 19.2534 12.5717 21.9775 5.827 23.211Z" fill="white"/>
<path d="M35.035 19.239L42.278 23.031C32.8716 30.2363 21.464 34.3505 9.62399 34.808C8.82066 34.8413 8.02066 34.858 7.22399 34.858C5.38466 34.858 3.55833 34.7727 1.745 34.602L3.25499 30.302H3.41699C3.72799 30.302 3.99399 30.311 4.28499 30.311C4.42599 30.311 4.57299 30.311 4.73299 30.302C15.7437 29.8765 26.3436 26.0079 35.04 19.241" fill="white"/>
<path d="M4.72799 30.3C4.56799 30.307 4.42099 30.309 4.27999 30.309C3.98999 30.309 3.72399 30.3 3.41199 30.3H3.24999L1.73999 34.6C3.55132 34.7693 5.37766 34.8547 7.21899 34.856C8.01899 34.856 8.81899 34.8393 9.61899 34.806C21.459 34.3485 32.8666 30.2343 42.273 23.029L35.03 19.237C26.3353 26.0036 15.7372 29.8729 4.72799 30.3Z" fill="white"/>
<path d="M23.659 13.807C27.6882 10.8615 31.1974 7.26403 34.042 3.16299H14.018C11.8325 3.16959 9.73846 4.04069 8.19308 5.58606C6.64771 7.13143 5.77661 9.22552 5.77002 11.411V21.535C12.2316 20.3153 18.3417 17.6757 23.659 13.807Z" fill="white"/>
<path d="M47.362 4.62099C45.1187 8.39544 42.4117 11.8742 39.304 14.976C38.2707 16.0093 37.2017 16.993 36.097 17.927L43.049 21.564L45.349 22.77L43.284 24.351C37.2029 29.0161 30.267 32.4453 22.868 34.445L27.514 38.458L30.096 40.688L29.957 40.715L29.975 40.731L26.626 41.385C23.9685 41.9025 21.2823 42.2605 18.582 42.457C17.282 42.551 15.882 42.599 14.421 42.599C11.6207 42.591 8.82263 42.4384 6.03802 42.142C6.50254 43.9065 7.53689 45.4681 8.98032 46.5842C10.4237 47.7004 12.1954 48.3084 14.02 48.314H42.698C44.883 48.3082 46.977 47.4379 48.5224 45.8932C50.0679 44.3485 50.9392 42.255 50.946 40.07V11.408C50.9434 10.0709 50.6158 8.75458 49.9914 7.57227C49.3671 6.38995 48.4647 5.37711 47.362 4.62099Z" fill="white"/>
<path d="M5.827 23.211L3.85501 28.63C16.7578 28.2658 29.0278 22.9593 38.13 13.807C41.8816 10.063 45.0246 5.75527 47.445 1.03999L37.95 -0.00100708C34.6615 6.01551 30.0709 11.2217 24.5134 15.2376C18.9559 19.2534 12.5717 21.9775 5.827 23.211Z" fill="white"/>
<path d="M4.72799 30.3C4.56799 30.307 4.42099 30.309 4.27999 30.309C3.98999 30.309 3.72399 30.3 3.41199 30.3H3.24999L1.73999 34.6C3.55132 34.7693 5.37766 34.8547 7.21899 34.856C8.01899 34.856 8.81899 34.8393 9.61899 34.806C21.459 34.3485 32.8666 30.2343 42.273 23.029L35.03 19.237C26.3353 26.0036 15.7372 29.8729 4.72799 30.3Z" fill="white"/>
<path d="M21.232 35.371L26.306 39.756C23.7137 40.2613 21.0933 40.6103 18.459 40.801C17.171 40.895 15.813 40.939 14.419 40.939C9.58175 40.922 4.75586 40.4688 0 39.585L1.2 36.134C3.98831 36.4241 6.78965 36.5709 9.593 36.574C10.942 36.574 12.247 36.535 13.426 36.45C16.0489 36.2585 18.6566 35.8978 21.233 35.37" fill="white"/>
<path d="M60.631 17.244H79.731V20.825H65.284V27.37H79.73V30.91H65.284V39.925H79.73V43.465H60.63L60.631 17.244Z" fill="white"/>
<path d="M85.73 26.484H91.438L96.409 31.315L101.279 26.484H106.939L99.167 34.147L108.567 43.463H102.962L96.376 36.972L89.724 43.463H84.166L93.585 34.121L85.73 26.484Z" fill="white"/>
<path d="M127.615 16.235L143.887 43.467H138.952L134.952 36.758H120.329L116.374 43.467H111.474L127.615 16.235ZM127.602 24.418L122.089 33.77H133.176L127.602 24.418Z" fill="white"/>
<path d="M174.749 18.149V22.204C171.482 20.9067 168.01 20.2027 164.496 20.125C160.895 20.0049 157.35 21.0389 154.378 23.076C151.637 25.0433 150.266 27.459 150.266 30.323C150.266 33.2423 151.668 35.6787 154.473 37.632C157.596 39.6779 161.279 40.7018 165.01 40.562C168.372 40.4975 171.686 39.749 174.749 38.362V42.462C171.522 43.7446 168.076 44.3879 164.604 44.356C159.716 44.4939 154.914 43.0476 150.915 40.233C147.128 37.4843 145.234 34.1697 145.234 30.289C145.234 26.4777 147.096 23.2147 150.82 20.5C154.747 17.7184 159.471 16.2867 164.282 16.42C167.84 16.4505 171.371 17.0338 174.749 18.149Z" fill="white"/>
<path d="M179.125 17.244H200.199V20.825H191.975V43.464H187.322V20.825H179.122L179.125 17.244Z" fill="white"/>
<path d="M220.293 26.484H225V43.463H220.293V40.088C219.244 41.3181 217.936 42.301 216.463 42.9665C214.99 43.6319 213.387 43.9633 211.771 43.937C209.023 44.0046 206.344 43.0681 204.237 41.303C203.262 40.5456 202.474 39.575 201.932 38.4656C201.39 37.3562 201.11 36.1375 201.112 34.903C201.13 33.6939 201.423 32.5049 201.969 31.4261C202.515 30.3473 203.3 29.4071 204.264 28.677C206.323 26.9152 208.955 25.9673 211.664 26.012C213.383 26.0055 215.083 26.378 216.642 27.103C218.079 27.7269 219.335 28.7038 220.294 29.943L220.293 26.484ZM220.942 35.025C220.927 34.2324 220.718 33.4555 220.335 32.7616C219.952 32.0677 219.405 31.4778 218.742 31.043C217.211 29.9666 215.385 29.3881 213.513 29.3864C211.641 29.3846 209.814 29.9595 208.281 31.033C207.622 31.4469 207.075 32.0161 206.688 32.6906C206.301 33.3652 206.085 34.1245 206.059 34.902C206.066 35.7091 206.266 36.5027 206.643 37.2162C207.021 37.9297 207.564 38.5422 208.227 39.002C209.736 40.1483 211.591 40.744 213.485 40.69C215.376 40.7389 217.229 40.148 218.742 39.013C219.403 38.5753 219.949 37.9839 220.332 37.2894C220.715 36.5949 220.925 35.818 220.942 35.025Z" fill="white"/>
<path d="M179.296 10.084V2.99302H182.203C182.595 2.98562 182.987 3.00835 183.375 3.06102C183.712 3.10446 184.036 3.21751 184.327 3.39301C184.589 3.56293 184.803 3.79881 184.945 4.07701C185.102 4.37525 185.183 4.70792 185.179 5.04501C185.185 5.32942 185.132 5.612 185.025 5.87531C184.917 6.13862 184.756 6.37709 184.553 6.57602C183.907 7.06588 183.098 7.28987 182.292 7.20201H180.315V10.084H179.296ZM180.316 6.36401H182.309C182.8 6.40748 183.292 6.28838 183.709 6.02501C183.847 5.90933 183.957 5.76298 184.029 5.59755C184.101 5.43213 184.134 5.25218 184.124 5.07201C184.131 4.7977 184.045 4.52903 183.88 4.31001C183.72 4.10089 183.492 3.9533 183.236 3.89201C182.922 3.83906 182.603 3.81796 182.284 3.82901H180.312L180.316 6.36401Z" fill="white"/>
<path d="M192.257 2.99301H193.277V7.09301C193.299 7.67132 193.21 8.24852 193.014 8.79301C192.822 9.23098 192.487 9.59136 192.065 9.81601C191.509 10.1016 190.889 10.2374 190.265 10.21C189.656 10.2329 189.049 10.1152 188.493 9.86601C188.058 9.66151 187.71 9.30928 187.51 8.87201C187.29 8.30634 187.19 7.70129 187.216 7.09501V2.99501H188.236V7.08401C188.212 7.54572 188.276 8.00775 188.423 8.44601C188.549 8.74028 188.777 8.97969 189.064 9.12101C189.41 9.28857 189.792 9.36989 190.176 9.35801C190.75 9.41297 191.323 9.24503 191.776 8.88901C192.157 8.37099 192.328 7.72786 192.254 7.08901L192.257 2.99301Z" fill="white"/>
<path d="M201.196 7.59801L202.216 7.83501C202.047 8.53842 201.639 9.16143 201.062 9.59801C200.466 10.015 199.752 10.228 199.025 10.205C198.32 10.2352 197.619 10.0738 196.998 9.73801C196.472 9.4206 196.057 8.94838 195.81 8.386C195.537 7.79004 195.398 7.14153 195.402 6.48601C195.386 5.81277 195.544 5.14681 195.862 4.553C196.16 4.01147 196.617 3.57421 197.171 3.3C197.751 3.0113 198.392 2.8646 199.04 2.872C199.729 2.84873 200.408 3.03796 200.985 3.414C201.516 3.7808 201.904 4.31888 202.085 4.938L201.085 5.15601C200.97 4.70653 200.7 4.31187 200.324 4.04125C199.947 3.77063 199.487 3.64133 199.024 3.676C198.501 3.65722 197.984 3.79361 197.539 4.068C197.151 4.31665 196.856 4.68647 196.7 5.12C196.539 5.55615 196.458 6.01727 196.458 6.482C196.446 7.02255 196.543 7.55997 196.744 8.06201C196.916 8.49046 197.231 8.84646 197.635 9.07001C198.035 9.29192 198.486 9.40695 198.944 9.40401C199.465 9.4199 199.976 9.25959 200.395 8.94901C200.813 8.60752 201.097 8.12887 201.196 7.59801Z" fill="white"/>
<path d="M203.705 7.955V7.08H206.613V7.955H203.705Z" fill="white"/>
<path d="M208.517 10.084V2.99301H211.935C212.464 2.97182 212.993 3.03631 213.502 3.18401C213.855 3.30755 214.156 3.54505 214.359 3.85901C214.571 4.17501 214.683 4.54752 214.68 4.92801C214.685 5.1653 214.64 5.40097 214.549 5.61999C214.457 5.839 214.321 6.03655 214.149 6.20001C213.687 6.59082 213.112 6.82166 212.508 6.85801C212.728 6.94804 212.934 7.06674 213.123 7.21101C213.444 7.48814 213.729 7.80502 213.97 8.15401L215.311 10.084H214.028L213.008 8.60901C212.71 8.18301 212.465 7.85735 212.272 7.63201C212.125 7.44773 211.951 7.28776 211.754 7.15801C211.61 7.07106 211.453 7.00728 211.289 6.96901C211.101 6.94153 210.911 6.93015 210.721 6.93501H209.538V10.084H208.517ZM209.537 6.12201H211.729C212.098 6.13475 212.468 6.08987 212.823 5.98901C213.064 5.91615 213.275 5.76657 213.423 5.56301C213.555 5.37722 213.625 5.15474 213.623 4.92701C213.625 4.76751 213.591 4.60964 213.521 4.46603C213.452 4.32243 213.35 4.19707 213.223 4.10001C212.853 3.85412 212.412 3.73998 211.969 3.77601H209.529L209.537 6.12201Z" fill="white"/>
<path d="M216.884 3.994V2.994H217.83V3.994H216.884ZM216.884 10.084V4.947H217.83V10.084H216.884Z" fill="white"/>
<path d="M219.64 7.516C219.609 7.1208 219.67 6.72375 219.82 6.35666C219.97 5.98956 220.203 5.66261 220.502 5.40201C221.004 5.01423 221.624 4.81243 222.258 4.831C222.953 4.80363 223.629 5.05327 224.14 5.525C224.39 5.77544 224.584 6.07567 224.71 6.40613C224.836 6.7366 224.891 7.0899 224.871 7.44301C224.898 7.98204 224.787 8.51906 224.548 9.003C224.33 9.38478 224.002 9.69234 223.607 9.886C223.189 10.0969 222.726 10.2046 222.258 10.2C221.902 10.2268 221.544 10.1751 221.209 10.0487C220.875 9.92226 220.572 9.7241 220.323 9.46817C220.073 9.21223 219.883 8.90473 219.765 8.56729C219.647 8.22985 219.604 7.87167 219.64 7.516ZM220.613 7.516C220.572 8.05071 220.739 8.58061 221.081 8.994C221.234 9.14983 221.417 9.27359 221.619 9.35806C221.821 9.44253 222.037 9.48604 222.256 9.48604C222.475 9.48604 222.691 9.44253 222.893 9.35806C223.095 9.27359 223.278 9.14983 223.431 8.994C223.774 8.5725 223.941 8.03551 223.899 7.494C223.937 6.96973 223.768 6.45136 223.429 6.05C223.275 5.89471 223.093 5.77143 222.891 5.68729C222.69 5.60315 222.473 5.55983 222.255 5.55983C222.037 5.55983 221.82 5.60315 221.619 5.68729C221.417 5.77143 221.235 5.89471 221.081 6.05C220.741 6.45986 220.574 6.98523 220.613 7.516Z" fill="white"/>
</g>
<defs>
<clipPath id="clip0_1_72">
<rect width="225" height="48.315" fill="white"/>
</clipPath>
</defs>
</svg>
