<svg width="220" height="51" viewBox="0 0 220 51" fill="none" xmlns="http://www.w3.org/2000/svg">
<g clip-path="url(#clip0_30_101)">
<path d="M40.3946 22.629C40.9823 22.629 41.2787 22.9254 41.2787 23.5131V27.3254C41.2787 27.9131 40.9823 28.2095 40.3946 28.2095H20.2792C19.5043 28.2095 18.953 28.4123 18.6306 28.8128C18.3082 29.2133 18.147 29.7646 18.147 30.4615V31.8293C18.147 33.3271 18.8438 34.0761 20.2376 34.0761H35.2929C37.6228 34.0761 39.3753 34.6742 40.5506 35.8652C41.7311 37.0562 42.3188 38.7621 42.3188 40.9828V44.197C42.3188 46.1525 41.7415 47.7283 40.5922 48.9349C39.4429 50.1415 37.6488 50.7396 35.2097 50.7396H12.9673C12.3536 50.7396 12.0416 50.4432 12.0416 49.8555V46.0433C12.0416 45.4556 12.3484 45.1591 12.9673 45.1591H34.05C34.8249 45.1591 35.3762 44.9563 35.6986 44.5558C36.021 44.1553 36.1822 43.6041 36.1822 42.9071V41.2585C36.1822 39.7606 35.4854 39.0117 34.0916 39.0117H19.031C16.7012 39.0117 14.9487 38.4136 13.7682 37.2226C12.5929 36.0316 12 34.3257 12 32.105V29.1717C12 27.2161 12.5773 25.6403 13.7266 24.4337C14.8759 23.2271 16.67 22.629 19.1091 22.629H40.3894H40.3946ZM75.2638 22.629C78.3425 22.629 80.5527 23.3259 81.8892 24.7197C83.2258 26.1136 83.8966 28.1731 83.8966 30.9035V33.8732C83.8966 36.6037 83.2258 38.6632 81.8892 40.0571C80.5527 41.4509 78.3425 42.1426 75.2638 42.1426H58.6379V49.8503C58.6379 50.438 58.3415 50.7344 57.7538 50.7344H53.4166C52.803 50.7344 52.4909 50.438 52.4909 49.8503V23.8304C52.4909 23.0295 52.8914 22.6238 53.6974 22.6238H75.2586L75.2638 22.629ZM58.6379 36.8429H74.0157C75.3782 36.8429 76.3455 36.5465 76.9072 35.9588C77.4688 35.3711 77.7496 34.4713 77.7496 33.2699V31.7461C77.7496 30.5395 77.4688 29.6449 76.9072 29.0572C76.3455 28.4696 75.3834 28.1731 74.0157 28.1731H59.1579C58.8095 28.1731 58.6379 28.3343 58.6379 28.6568V36.8481V36.8429ZM107.283 22.629C108.302 22.629 109.155 22.837 109.852 23.2531C110.549 23.6692 111.23 24.4805 111.901 25.6819L125.194 49.8139C125.329 50.0791 125.36 50.3028 125.292 50.4744C125.225 50.646 125.032 50.7344 124.71 50.7344H119.608C119.151 50.7344 118.844 50.5628 118.683 50.2143L115.833 45.0343H96.9602L94.1884 50.2143C94.0011 50.5628 93.6943 50.7344 93.2627 50.7344H88.0414C87.693 50.7344 87.4849 50.646 87.4173 50.4744C87.3497 50.3028 87.3861 50.0791 87.5161 49.8139L100.689 25.6819C101.36 24.4753 102.015 23.6692 102.655 23.2531C103.3 22.837 104.048 22.629 104.901 22.629H107.273H107.283ZM99.4928 40.3795H113.305L106.919 28.6152C106.81 28.4279 106.664 28.3343 106.477 28.3343H106.238C106.051 28.3343 105.905 28.4279 105.796 28.6152L99.4928 40.3795ZM156.969 22.629C160.047 22.629 162.257 23.3259 163.594 24.7197C164.93 26.1136 165.601 28.1731 165.601 30.9035V33.1919C165.601 35.4959 165.133 37.3162 164.197 38.6528C163.261 39.9895 161.732 40.8476 159.621 41.2221L166.485 49.7359C166.621 49.8711 166.657 50.0687 166.605 50.3392C166.553 50.6096 166.34 50.7396 165.965 50.7396H160.786C160.437 50.7396 160.198 50.698 160.063 50.62C159.928 50.542 159.792 50.4068 159.662 50.2195L153.318 41.867H140.348V49.8555C140.348 50.4432 140.051 50.7396 139.464 50.7396H135.127C134.513 50.7396 134.201 50.4432 134.201 49.8555V23.8356C134.201 23.0346 134.601 22.629 135.407 22.629H156.969ZM140.343 36.9626H155.72C157.083 36.9626 158.05 36.6661 158.612 36.0784C159.174 35.4907 159.454 34.591 159.454 33.3896V31.7045C159.454 30.4979 159.174 29.6033 158.612 29.0156C158.05 28.4279 157.088 28.1315 155.72 28.1315H140.863C140.514 28.1315 140.343 28.2927 140.343 28.6152V36.9678V36.9626ZM181.395 22.629C181.983 22.629 182.279 22.9254 182.279 23.5131V34.1957H187.943C188.587 34.1957 189.123 34.1749 189.55 34.1333C189.976 34.0917 190.35 34.0085 190.673 33.8732C190.995 33.738 191.287 33.5508 191.557 33.3116C191.827 33.0723 192.108 32.7603 192.399 32.3858L199.306 23.1491C199.441 22.9618 199.571 22.8266 199.706 22.7486C199.841 22.6706 200.096 22.629 200.471 22.629H205.447C205.796 22.629 206.004 22.7434 206.071 22.9722C206.139 23.2011 206.103 23.4091 205.973 23.5963L198.182 33.6756C197.73 34.2893 197.303 34.8146 196.919 35.2411C196.529 35.6675 196.149 36.042 195.775 36.3645C196.82 37.0094 197.834 37.9715 198.827 39.2561L207.06 49.6995C207.169 49.8347 207.205 50.0427 207.179 50.3236C207.153 50.6044 206.94 50.7448 206.534 50.7448H201.396C201.048 50.7448 200.809 50.7032 200.673 50.6252C200.538 50.5472 200.403 50.412 200.273 50.2248L192.883 40.6656C192.347 39.9687 191.77 39.4954 191.156 39.2405C190.543 38.9857 189.617 38.8609 188.385 38.8609H182.279V49.8659C182.279 50.4536 181.983 50.75 181.395 50.75H177.058C176.444 50.75 176.132 50.4536 176.132 49.8659V23.5235C176.132 22.9358 176.439 22.6394 177.058 22.6394H181.395V22.629Z" fill="url(#paint0_linear_30_101)"/>
<path d="M23.7271 5.94456C23.4098 6.53226 22.9158 7.00033 22.2397 7.35919C21.5637 7.71805 20.7108 7.89488 19.6863 7.89488H17.5905V12.7005H15.0787V0.182007H19.6863C20.6536 0.182007 21.4805 0.348435 22.1617 0.686491C22.843 1.01935 23.3526 1.48222 23.6959 2.06992C24.0391 2.65762 24.2055 3.31813 24.2055 4.06185C24.2055 4.73276 24.0495 5.35686 23.7323 5.94456H23.7271ZM21.1164 5.39847C21.4493 5.08122 21.6209 4.63394 21.6209 4.06185C21.6209 2.84485 20.9396 2.23114 19.5771 2.23114H17.5853V5.87175H19.5771C20.2688 5.87175 20.7836 5.71572 21.1216 5.39847H21.1164Z" fill="black"/>
<path d="M32.4327 12.7057L29.6712 7.82726H28.4855V12.7057H25.9737V0.187195H30.6749C31.6422 0.187195 32.4691 0.358825 33.1504 0.696881C33.8316 1.03494 34.3413 1.49782 34.6845 2.08031C35.0277 2.66281 35.1941 3.30771 35.1941 4.02543C35.1941 4.85237 34.9549 5.59609 34.4765 6.2566C33.998 6.92231 33.2856 7.37999 32.3443 7.62963L35.3398 12.7057H32.4327ZM28.4855 5.94455H30.5813C31.2626 5.94455 31.7722 5.77812 32.1051 5.45047C32.4379 5.12281 32.6095 4.66514 32.6095 4.07744C32.6095 3.48974 32.4431 3.05807 32.1051 2.74082C31.7722 2.42357 31.2626 2.26754 30.5813 2.26754H28.4855V5.94455Z" fill="black"/>
<path d="M40.0514 12.0036C39.0685 11.4523 38.2936 10.693 37.7216 9.71521C37.1495 8.74265 36.8583 7.64006 36.8583 6.40746C36.8583 5.17486 37.1443 4.09308 37.7216 3.11531C38.2936 2.14275 39.0737 1.37823 40.0514 0.826935C41.0291 0.275644 42.1056 0 43.2809 0C44.4562 0 45.5431 0.275644 46.5156 0.826935C47.4881 1.37823 48.2629 2.13755 48.8298 3.11531C49.3966 4.08788 49.6827 5.18526 49.6827 6.40746C49.6827 7.62966 49.3966 8.74265 48.8298 9.71521C48.2629 10.6878 47.4881 11.4523 46.5052 12.0036C45.5223 12.5549 44.451 12.8305 43.2757 12.8305C42.1004 12.8305 41.0291 12.5549 40.0462 12.0036H40.0514ZM45.2727 10.0741C45.8447 9.73081 46.2971 9.24713 46.6196 8.61262C46.942 7.97812 47.1032 7.2448 47.1032 6.40746C47.1032 5.57012 46.942 4.8368 46.6196 4.2127C46.2971 3.58859 45.8499 3.10491 45.2727 2.76686C44.7006 2.434 44.0349 2.26237 43.2809 2.26237C42.5268 2.26237 41.8611 2.4288 41.2787 2.76686C40.6962 3.09971 40.249 3.58339 39.9266 4.2127C39.6041 4.842 39.4429 5.57532 39.4429 6.40746C39.4429 7.2396 39.6041 7.97812 39.9266 8.61262C40.249 9.24713 40.7014 9.73601 41.2787 10.0741C41.8559 10.4173 42.5268 10.5838 43.2809 10.5838C44.0349 10.5838 44.6954 10.4121 45.2727 10.0741Z" fill="black"/>
<path d="M60.2656 3.9527C59.9796 3.42741 59.5843 3.02694 59.0799 2.7513C58.5755 2.47565 57.993 2.34043 57.3221 2.34043C56.5785 2.34043 55.9232 2.50686 55.3512 2.84491C54.7791 3.17777 54.3267 3.65625 54.0042 4.28035C53.6818 4.90446 53.5206 5.61697 53.5206 6.43351C53.5206 7.25004 53.687 7.99897 54.0146 8.62307C54.3423 9.24717 54.7999 9.72565 55.3876 10.0585C55.9752 10.3914 56.6565 10.563 57.4313 10.563C58.3882 10.563 59.1683 10.3082 59.782 9.79847C60.3904 9.28878 60.7909 8.58147 60.9833 7.67132H56.6773V5.7522H63.4587V7.94176C63.2923 8.8155 62.9335 9.62164 62.3822 10.3654C61.831 11.1091 61.1237 11.702 60.2552 12.1493C59.3867 12.5965 58.4194 12.8202 57.3429 12.8202C56.1364 12.8202 55.0443 12.5497 54.0718 12.0036C53.0993 11.4575 52.3349 10.7034 51.7784 9.73605C51.222 8.76869 50.9464 7.66611 50.9464 6.43351C50.9464 5.2009 51.222 4.09832 51.7784 3.12576C52.3349 2.1532 53.0993 1.39388 54.0718 0.847785C55.0443 0.301695 56.1312 0.03125 57.3273 0.03125C58.7367 0.03125 59.964 0.374505 61.0041 1.06102C62.0442 1.74753 62.7618 2.71489 63.1571 3.9579H60.2708L60.2656 3.9527Z" fill="black"/>
<path d="M71.7795 12.7057L69.018 7.82726H67.8323V12.7057H65.3205V0.187195H70.0217C70.989 0.187195 71.8159 0.358825 72.4972 0.696881C73.1784 1.03494 73.6881 1.49782 74.0313 2.08031C74.3745 2.66281 74.5409 3.30771 74.5409 4.02543C74.5409 4.85237 74.3017 5.59609 73.8233 6.2566C73.3448 6.92231 72.6324 7.37999 71.6911 7.62963L74.6866 12.7057H71.7795ZM67.8323 5.94455H69.9281C70.6094 5.94455 71.119 5.77812 71.4519 5.45047C71.7847 5.12281 71.9563 4.66514 71.9563 4.07744C71.9563 3.48974 71.7899 3.05807 71.4519 2.74082C71.119 2.42357 70.6094 2.26754 69.9281 2.26754H67.8323V5.94455Z" fill="black"/>
<path d="M84.4947 10.3185H79.5074L78.6805 12.7057H76.0439L80.5475 0.171631H83.4702L87.9738 12.7057H85.3215L84.4947 10.3185ZM83.8134 8.31098L82.0036 3.07371L80.1939 8.31098H83.8186H83.8134Z" fill="black"/>
<path d="M103.305 0.187195V12.7057H100.793V4.56112L97.4386 12.7057H95.5352L92.1653 4.56112V12.7057H89.6535V0.187195H92.5034L96.4869 9.49674L100.471 0.187195H103.305Z" fill="black"/>
<path d="M113.456 10.3185H108.469L107.642 12.7057H105.005L109.509 0.171631H112.432L116.935 12.7057H114.283L113.456 10.3185ZM112.775 8.31098L110.965 3.07371L109.155 8.31098H112.78H112.775Z" fill="black"/>
</g>
<defs>
<linearGradient id="paint0_linear_30_101" x1="12" y1="36.6869" x2="207.187" y2="36.6869" gradientUnits="userSpaceOnUse">
<stop stop-color="#C9DA2A"/>
<stop offset="1" stop-color="#009E49"/>
</linearGradient>
<clipPath id="clip0_30_101">
<rect width="219.393" height="50.75" fill="white"/>
</clipPath>
</defs>
</svg>
