<svg width="399" height="111" viewBox="0 0 399 111" fill="none" xmlns="http://www.w3.org/2000/svg">
<path d="M114.5 101.7H146.5V96H121.1V80.4H139.2V74.8H121.1V62H146.5V56.3H114.5V101.7ZM158.9 86.9V53.8L152.8 56.3V88.3C152.8 94 154.3 100.2 160.7 103.1L164 98.6C160 96.4 158.8 93.3 158.9 86.9ZM182.7 67.8C173 67.8 167.6 72 167.6 85.1C167.6 98.7 173.5 102.7 183.3 102.7C186.4 102.7 191.2 101.9 194.5 100.9L193.4 95.8C190.7 96.7 186.4 97.4 184 97.4C177.3 97.4 174.2 95.6 174.2 86.6H196.8V85C196.7 71.2 192.3 67.8 182.7 67.8ZM174.2 81.5C174.7 74.9 176.8 73 182.8 73C188.1 73 190 74.5 190.3 81.5H174.2ZM214 97.2C209.8 97.2 208.5 95.1 208.5 90.3V74.2H220.1V68.7H208.5V59.9L202.3 62.4V90.6C202.3 100.4 205.6 102.6 213.1 102.6C215.8 102.6 219.2 101.9 221.2 101.2L220 96.1C218.3 96.8 216.3 97.2 214 97.2ZM231.7 71.1V68.7H225.5V101.8H231.7V77.7C231.7 75.2 235.7 73.7 240.1 73.7C241.5 73.7 242.8 73.8 243.9 74V68.4C242.8 68.3 241.6 68.2 240.5 68.2C235.8 68.2 232.8 69.4 231.7 71.1ZM324.4 71.1V68.7H318.2V101.8H324.4V77.7C324.4 75.2 328.4 73.7 332.8 73.7C334.2 73.7 335.5 73.8 336.6 74V68.4C335.5 68.3 334.3 68.2 333.2 68.2C328.5 68.2 325.5 69.4 324.4 71.1ZM262 67.8C251.6 67.8 246.6 71.6 246.6 85.1C246.6 98.7 251.6 102.7 262 102.7C272.5 102.7 277.4 98.7 277.4 85.1C277.4 71.6 272.4 67.8 262 67.8ZM262 97.4C255.3 97.4 253.1 95.1 253.1 85.1C253.1 74.7 255.3 72.9 262 72.9C268.7 72.9 270.9 74.7 270.9 85.1C270.9 95.1 268.7 97.4 262 97.4ZM298.4 67.8C294.2 67.8 291.3 69 289.6 70.2V53.7L283.4 56.3V100.2C287 101.7 292.9 102.7 297.4 102.7C308 102.7 312.8 98.8 312.8 85.2C312.7 71.7 308.1 67.8 298.4 67.8ZM297.3 97.3C294.6 97.3 291.8 96.9 289.5 96.1V77.7C289.5 75.5 291.2 73.3 297.3 73.3C303.9 73.3 306.2 75.7 306.2 85.2C306.3 95.5 304.1 97.3 297.3 97.3ZM353.2 67.3C348.6 67.3 344.5 68.6 341.6 69.3L343.3 74C346 73 349.1 72.6 352.5 72.6C359.7 72.6 361.2 74.7 361.2 81.6C358.1 80.9 355.5 80.6 352.4 80.6C344.8 80.6 339.4 82.1 339.4 91.5C339.4 100.1 343.1 102.6 353.1 102.6C357.5 102.6 363.3 101.6 367.2 100V80.6C367.1 70.6 362.9 67.3 353.2 67.3ZM361.1 96.3C358.9 97.1 356.1 97.6 353.3 97.6C347.4 97.6 345.9 96.8 345.9 91.2C345.9 86.1 347.8 85.5 353.4 85.5C356.2 85.5 359 85.7 361.1 86.2V96.3ZM386.5 82.2C380.8 81.7 379 80.6 379 77.8C379 73.7 381.5 72.9 386.2 72.9C389.5 72.9 393.1 73.7 395.7 74.6C396.2 72.8 396.8 71.1 397.3 69.5C393.8 68.4 389.6 67.7 386.3 67.7C377.8 67.7 372.7 70.1 372.7 78.3C372.7 84.9 376.9 86.8 384.5 87.4C390.6 87.9 392.1 89.3 392.1 92.2C392.1 96.2 389.8 97.3 384.8 97.3C381.5 97.3 377 96.5 374.6 95.6L373.1 100.8C376.3 101.8 381.6 102.6 385 102.6C393.6 102.6 398.4 100.1 398.4 91.9C398.4 85.6 394.8 83 386.5 82.2Z" fill="white"/>
<path d="M49.4 76.3C49.4 76.3 49.5 76.3 49.5 76.2C60.5 70.8 68.6 61.2 73 47L73.5 45.5C73.5 45.4 73.5 45.3 73.5 45.2C66.2 36 60.3 24.5 64.1 1.7C64.2 1.1 63.4 -0.0999963 61.7 0.800004C55.3 3.5 50.1 7.9 45.9 14C38.1 35.4 37.2 57.6 49.1 76.2C49.1 76.3 49.2 76.4 49.4 76.3Z" fill="white"/>
<path d="M48.5 80.3L48.2 79.9C35.3 85.4 19.5 86.1 2.30003 81.5C1.00003 81.2 0.600034 82.3 0.800034 83.7C2.70003 89.3 4.10003 92.1 7.80003 96.3C36.3 112.8 60.6 114.6 78.1 104.4C64.7 97.7 55 89.5 48.5 80.3Z" fill="white"/>
<path d="M75.5001 47.8C71.0001 62.5 62.4001 72.8 50.9001 78.6C50.8001 78.7 50.8 78.8 50.8 78.9C57.3 88 67.0001 96.1 80.7001 102.7C88.1001 97 93.1 86.9 92.8 77.7C92.5 65.4 85.2001 58.3 75.5001 47.8Z" fill="white"/>
</svg>
