<svg width="361" height="101" viewBox="0 0 361 101" fill="none" xmlns="http://www.w3.org/2000/svg">
<path d="M103.531 92.2998H132.552V87.1304H109.516V72.9828H125.931V67.9041H109.516V56.2958H132.552V51.1265H103.531V92.2998ZM143.797 78.8776V48.8592L138.265 51.1265V80.1473C138.265 85.3166 139.626 90.9394 145.43 93.5694L148.422 89.4884C144.795 87.4932 143.707 84.6818 143.797 78.8776ZM165.382 61.5558C156.585 61.5558 151.687 65.3648 151.687 77.2452C151.687 89.5791 157.038 93.2067 165.926 93.2067C168.737 93.2067 173.09 92.4811 176.083 91.5742L175.085 86.949C172.637 87.7653 168.737 88.4001 166.56 88.4001C160.484 88.4001 157.673 86.7677 157.673 78.6056H178.169V77.1545C178.078 64.6393 174.088 61.5558 165.382 61.5558ZM157.673 73.9804C158.126 67.9948 160.031 66.2717 165.472 66.2717C170.279 66.2717 172.002 67.6321 172.274 73.9804H157.673ZM193.767 88.2187C189.958 88.2187 188.78 86.3142 188.78 81.9611V67.36H199.3V62.3721H188.78V54.3913L183.157 56.6586V82.2332C183.157 91.1208 186.15 93.116 192.951 93.116C195.4 93.116 198.483 92.4812 200.297 91.8463L199.209 87.2211C197.667 87.856 195.853 88.2187 193.767 88.2187ZM209.82 64.5486V62.3721H204.197V92.3904H209.82V70.5342C209.82 68.2669 213.447 66.9066 217.438 66.9066C218.707 66.9066 219.886 66.9972 220.884 67.1786V62.1C219.886 62.0093 218.798 61.9186 217.8 61.9186C213.538 61.9186 210.817 63.0069 209.82 64.5486ZM293.889 64.5486V62.3721H288.267V92.3904H293.889V70.5342C293.889 68.2669 297.517 66.9066 301.507 66.9066C302.777 66.9066 303.956 66.9972 304.953 67.1786V62.1C303.956 62.0093 302.868 61.9186 301.87 61.9186C297.608 61.9186 294.887 63.0069 293.889 64.5486ZM237.299 61.5558C227.867 61.5558 223.332 65.0021 223.332 77.2452C223.332 89.5791 227.867 93.2067 237.299 93.2067C246.821 93.2067 251.265 89.5791 251.265 77.2452C251.265 65.0021 246.73 61.5558 237.299 61.5558ZM237.299 88.4001C231.222 88.4001 229.227 86.3142 229.227 77.2452C229.227 67.8135 231.222 66.181 237.299 66.181C243.375 66.181 245.37 67.8135 245.37 77.2452C245.37 86.3142 243.375 88.4001 237.299 88.4001ZM270.31 61.5558C266.501 61.5558 263.871 62.6441 262.329 63.7324V48.7686L256.706 51.1265V90.9394C259.971 92.2998 265.322 93.2067 269.403 93.2067C279.016 93.2067 283.369 89.6698 283.369 77.3359C283.279 65.0928 279.107 61.5558 270.31 61.5558ZM269.312 88.3094C266.864 88.3094 264.324 87.9466 262.238 87.2211V70.5342C262.238 68.539 263.78 66.5438 269.312 66.5438C275.298 66.5438 277.384 68.7204 277.384 77.3359C277.474 86.677 275.479 88.3094 269.312 88.3094ZM320.008 61.1024C315.836 61.1024 312.118 62.2813 309.488 62.9162L311.03 67.1786C313.478 66.2717 316.29 65.909 319.373 65.909C325.903 65.909 327.263 67.8135 327.263 74.0711C324.452 73.4362 322.094 73.1642 319.283 73.1642C312.39 73.1642 307.493 74.5245 307.493 83.0494C307.493 90.8487 310.848 93.116 319.917 93.116C323.908 93.116 329.168 92.2091 332.705 90.758V73.1642C332.614 64.0952 328.805 61.1024 320.008 61.1024ZM327.173 87.4025C325.177 88.128 322.638 88.5815 320.099 88.5815C314.748 88.5815 313.388 87.856 313.388 82.7773C313.388 78.1521 315.111 77.608 320.189 77.608C322.729 77.608 325.268 77.7894 327.173 78.2428V87.4025ZM350.208 74.6152C345.038 74.1618 343.406 73.1642 343.406 70.6248C343.406 66.9065 345.673 66.181 349.936 66.181C352.929 66.181 356.193 66.9066 358.551 67.7228C359.005 66.0903 359.549 64.5486 360.002 63.0976C356.828 62.1 353.019 61.4652 350.026 61.4652C342.318 61.4652 337.693 63.6417 337.693 71.0783C337.693 77.0638 341.502 78.7869 348.394 79.3311C353.926 79.7845 355.286 81.0542 355.286 83.6842C355.286 87.3118 353.201 88.3094 348.666 88.3094C345.673 88.3094 341.592 87.5839 339.416 86.7677L338.055 91.4835C340.957 92.3904 345.764 93.116 348.847 93.116C356.647 93.116 361 90.8487 361 83.4121C361 77.6987 357.735 75.3407 350.208 74.6152Z" fill="#007AC2"/>
<path d="M45.6706 71.441C33.3368 54.1193 33.8809 33.0791 41.2268 12.7646C45.0358 7.23249 49.7517 3.24213 55.5558 0.793495C57.0976 -0.0227153 57.8231 1.06556 57.7324 1.6097C53.9234 24.1915 60.6345 34.6209 68.1618 43.4178C64.0807 56.9306 56.1907 66.181 45.6706 71.441Z" fill="#CBDB2A"/>
<path d="M72.8777 93.2065C56.9163 104.18 33.881 103.182 6.76465 87.4023C3.40912 83.5934 2.13946 81.0541 0.416351 75.9754C0.23497 74.7058 0.597731 73.7082 1.7767 73.9802C18.4637 78.3334 33.5182 77.4265 45.6707 71.4409C51.5655 79.6937 60.4532 87.1303 72.8777 93.2065Z" fill="#007AC2"/>
<path d="M72.8777 93.2065C79.5887 88.0371 84.1232 78.8774 83.8511 70.534C83.5791 59.3791 76.868 52.9401 68.1618 43.5083C64.0807 56.9304 56.1907 66.2715 45.58 71.5315C51.5655 79.6936 60.4531 87.1302 72.8777 93.2065Z" fill="#00A84F"/>
</svg>
