<svg width="225" height="49" viewBox="0 0 225 49" fill="none" xmlns="http://www.w3.org/2000/svg">
<path d="M37.95 0L47.445 1.041C45.0247 5.75634 41.8817 10.0641 38.13 13.808C29.0277 22.9601 16.7577 28.2661 3.85501 28.63L5.827 23.211C12.5716 21.9776 18.9557 19.2537 24.5132 15.238C30.0707 11.2224 34.6614 6.01634 37.95 0Z" fill="#5A5A5A"/>
<path d="M5.827 23.211L3.85501 28.63C16.7578 28.2658 29.0278 22.9594 38.13 13.807C41.8816 10.063 45.0246 5.7553 47.445 1.04002L37.95 -0.000976562C34.6615 6.01555 30.0709 11.2218 24.5134 15.2376C18.9559 19.2535 12.5717 21.9776 5.827 23.211Z" fill="#0096D8"/>
<path d="M35.035 19.239L42.278 23.031C32.8716 30.2363 21.4641 34.3506 9.62401 34.808C8.82067 34.8413 8.02067 34.858 7.22401 34.858C5.38467 34.858 3.55834 34.7727 1.74501 34.602L3.255 30.302H3.41701C3.72801 30.302 3.994 30.311 4.285 30.311C4.426 30.311 4.57301 30.311 4.73301 30.302C15.7438 29.8765 26.3437 26.0079 35.04 19.241" fill="#5A5A5A"/>
<path d="M4.728 30.3C4.568 30.307 4.42101 30.309 4.28001 30.309C3.99001 30.309 3.72401 30.3 3.41201 30.3H3.25001L1.74001 34.6C3.55134 34.7693 5.37768 34.8547 7.21901 34.856C8.01901 34.856 8.819 34.8393 9.619 34.806C21.4591 34.3485 32.8666 30.2343 42.273 23.029L35.03 19.237C26.3353 26.0036 15.7372 29.8729 4.728 30.3Z" fill="#FFAB08"/>
<path d="M23.659 13.807C27.6882 10.8615 31.1974 7.26406 34.042 3.16302H14.018C11.8325 3.16962 9.73844 4.04072 8.19307 5.58609C6.6477 7.13146 5.7766 9.22555 5.77 11.411V21.535C12.2316 20.3153 18.3417 17.6757 23.659 13.807Z" fill="#5A5A5A"/>
<path d="M47.362 4.62103C45.1187 8.39549 42.4117 11.8742 39.304 14.976C38.2707 16.0094 37.2017 16.993 36.097 17.927L43.049 21.564L45.349 22.77L43.284 24.351C37.2028 29.0162 30.267 32.4454 22.868 34.445L27.514 38.458L30.096 40.688L29.957 40.715L29.975 40.731L26.626 41.385C23.9685 41.9026 21.2823 42.2606 18.582 42.457C17.282 42.551 15.882 42.599 14.421 42.599C11.6207 42.591 8.82262 42.4385 6.03801 42.142C6.50253 43.9065 7.53687 45.4682 8.9803 46.5843C10.4237 47.7004 12.1954 48.3085 14.02 48.314H42.698C44.883 48.3082 46.977 47.4379 48.5224 45.8933C50.0678 44.3486 50.9391 42.2551 50.946 40.07V11.408C50.9434 10.071 50.6158 8.75463 49.9914 7.57231C49.3671 6.38999 48.4647 5.37716 47.362 4.62103Z" fill="#5A5A5A"/>
<path d="M5.827 23.211L3.85501 28.63C16.7578 28.2658 29.0278 22.9594 38.13 13.807C41.8816 10.063 45.0246 5.7553 47.445 1.04002L37.95 -0.000976562C34.6615 6.01555 30.0709 11.2218 24.5134 15.2376C18.9559 19.2535 12.5717 21.9776 5.827 23.211Z" fill="#0096D9"/>
<path d="M4.728 30.3C4.568 30.307 4.42101 30.309 4.28001 30.309C3.99001 30.309 3.72401 30.3 3.41201 30.3H3.25001L1.74001 34.6C3.55134 34.7693 5.37768 34.8547 7.21901 34.856C8.01901 34.856 8.819 34.8393 9.619 34.806C21.4591 34.3485 32.8666 30.2343 42.273 23.029L35.03 19.237C26.3353 26.0036 15.7372 29.8729 4.728 30.3Z" fill="#FFAB08"/>
<path d="M21.232 35.371L26.306 39.756C23.7137 40.2613 21.0933 40.6103 18.459 40.801C17.171 40.895 15.813 40.939 14.419 40.939C9.58175 40.922 4.75586 40.4688 0 39.585L1.2 36.134C3.98831 36.4241 6.78965 36.5709 9.593 36.574C10.942 36.574 12.247 36.535 13.426 36.45C16.0489 36.2585 18.6566 35.8978 21.233 35.37" fill="#CA0E1F"/>
<path d="M60.631 17.2441H79.731V20.8251H65.284V27.3701H79.73V30.9101H65.284V39.9251H79.73V43.4651H60.63L60.631 17.2441Z" fill="#5A5A5A"/>
<path d="M85.73 26.4841H91.438L96.409 31.3151L101.279 26.4841H106.939L99.167 34.1471L108.567 43.4631H102.962L96.376 36.9721L89.724 43.4631H84.166L93.585 34.1211L85.73 26.4841Z" fill="#5A5A5A"/>
<path d="M127.615 16.235L143.887 43.467H138.952L134.952 36.758H120.329L116.374 43.467H111.474L127.615 16.235ZM127.602 24.418L122.089 33.7701H133.176L127.602 24.418Z" fill="#5A5A5A"/>
<path d="M174.749 18.149V22.204C171.482 20.9067 168.01 20.2027 164.496 20.125C160.895 20.005 157.35 21.039 154.378 23.076C151.637 25.0434 150.266 27.459 150.266 30.323C150.266 33.2424 151.668 35.6787 154.473 37.632C157.596 39.6779 161.279 40.7019 165.01 40.562C168.372 40.4976 171.686 39.749 174.749 38.362V42.462C171.522 43.7447 168.076 44.3879 164.604 44.356C159.716 44.4939 154.914 43.0476 150.915 40.233C147.128 37.4844 145.234 34.1697 145.234 30.289C145.234 26.4777 147.096 23.2147 150.82 20.5C154.747 17.7185 159.471 16.2867 164.282 16.42C167.84 16.4506 171.371 17.0339 174.749 18.149Z" fill="#5A5A5A"/>
<path d="M179.125 17.2441H200.199V20.8251H191.975V43.4641H187.322V20.8251H179.122L179.125 17.2441Z" fill="#5A5A5A"/>
<path d="M220.293 26.4841H225V43.4631H220.293V40.0881C219.244 41.3182 217.936 42.3011 216.463 42.9666C214.99 43.632 213.387 43.9634 211.771 43.9371C209.023 44.0047 206.344 43.0682 204.237 41.3031C203.262 40.5457 202.474 39.5751 201.932 38.4657C201.39 37.3563 201.11 36.1376 201.112 34.9031C201.13 33.694 201.423 32.5049 201.969 31.4261C202.515 30.3473 203.3 29.4072 204.264 28.6771C206.323 26.9153 208.955 25.9674 211.664 26.0121C213.383 26.0056 215.083 26.3781 216.642 27.1031C218.079 27.727 219.335 28.7039 220.294 29.9431L220.293 26.4841ZM220.942 35.0251C220.927 34.2325 220.718 33.4556 220.335 32.7617C219.952 32.0678 219.405 31.4779 218.742 31.0431C217.211 29.9667 215.385 29.3882 213.513 29.3864C211.641 29.3847 209.814 29.9596 208.281 31.0331C207.622 31.447 207.075 32.0162 206.688 32.6907C206.301 33.3653 206.085 34.1246 206.059 34.9021C206.066 35.7091 206.266 36.5028 206.643 37.2163C207.021 37.9298 207.564 38.5422 208.227 39.0021C209.736 40.1484 211.591 40.7441 213.485 40.6901C215.376 40.739 217.229 40.1481 218.742 39.0131C219.403 38.5754 219.949 37.984 220.332 37.2895C220.715 36.595 220.925 35.8181 220.942 35.0251Z" fill="#5A5A5A"/>
<path d="M179.296 10.0841V2.99306H182.203C182.595 2.98567 182.987 3.0084 183.375 3.06106C183.712 3.1045 184.036 3.21756 184.327 3.39305C184.589 3.56298 184.803 3.79886 184.945 4.07706C185.102 4.37529 185.183 4.70796 185.179 5.04506C185.185 5.32947 185.132 5.61204 185.025 5.87535C184.917 6.13867 184.756 6.37714 184.553 6.57606C183.907 7.06592 183.098 7.28991 182.292 7.20206H180.315V10.0841H179.296ZM180.316 6.36406H182.309C182.8 6.40753 183.292 6.28842 183.709 6.02506C183.847 5.90938 183.957 5.76302 184.029 5.5976C184.101 5.43217 184.134 5.25223 184.124 5.07206C184.131 4.79775 184.045 4.52907 183.88 4.31005C183.72 4.10094 183.492 3.95335 183.236 3.89206C182.922 3.8391 182.603 3.818 182.284 3.82906H180.312L180.316 6.36406Z" fill="#5A5A5A"/>
<path d="M192.257 2.99304H193.277V7.09304C193.299 7.67135 193.21 8.24856 193.014 8.79304C192.822 9.23101 192.487 9.5914 192.065 9.81604C191.509 10.1016 190.889 10.2374 190.265 10.21C189.656 10.2329 189.049 10.1152 188.493 9.86604C188.058 9.66154 187.71 9.30931 187.51 8.87204C187.29 8.30637 187.19 7.70132 187.216 7.09504V2.99504H188.236V7.08404C188.212 7.54575 188.276 8.00778 188.423 8.44604C188.549 8.74031 188.777 8.97972 189.064 9.12104C189.41 9.2886 189.792 9.36992 190.176 9.35804C190.75 9.413 191.323 9.24506 191.776 8.88904C192.157 8.37102 192.328 7.72789 192.254 7.08904L192.257 2.99304Z" fill="#5A5A5A"/>
<path d="M201.196 7.59804L202.216 7.83504C202.047 8.53845 201.639 9.16146 201.062 9.59804C200.466 10.0151 199.752 10.228 199.025 10.205C198.32 10.2352 197.619 10.0739 196.998 9.73804C196.472 9.42063 196.057 8.94841 195.81 8.38603C195.537 7.79007 195.398 7.14156 195.402 6.48604C195.386 5.8128 195.544 5.14684 195.862 4.55303C196.16 4.0115 196.617 3.57424 197.171 3.30003C197.751 3.01133 198.392 2.86463 199.04 2.87203C199.729 2.84876 200.408 3.03799 200.985 3.41403C201.516 3.78083 201.904 4.31891 202.085 4.93803L201.085 5.15604C200.97 4.70656 200.7 4.3119 200.324 4.04128C199.947 3.77067 199.487 3.64136 199.024 3.67603C198.501 3.65725 197.984 3.79364 197.539 4.06803C197.151 4.31668 196.856 4.6865 196.7 5.12003C196.539 5.55618 196.458 6.0173 196.458 6.48203C196.446 7.02258 196.543 7.56 196.744 8.06204C196.916 8.49049 197.231 8.84649 197.635 9.07004C198.035 9.29195 198.486 9.40698 198.944 9.40404C199.465 9.41993 199.976 9.25962 200.395 8.94904C200.813 8.60755 201.097 8.1289 201.196 7.59804Z" fill="#5A5A5A"/>
<path d="M203.705 7.95502V7.08002H206.613V7.95502H203.705Z" fill="#5A5A5A"/>
<path d="M208.517 10.084V2.99301H211.935C212.464 2.97182 212.993 3.03631 213.502 3.18401C213.855 3.30755 214.156 3.54505 214.359 3.85901C214.571 4.17501 214.683 4.54752 214.68 4.92801C214.685 5.1653 214.64 5.40097 214.549 5.61999C214.457 5.839 214.321 6.03655 214.149 6.20001C213.687 6.59082 213.112 6.82166 212.508 6.85801C212.728 6.94804 212.934 7.06674 213.123 7.21101C213.444 7.48814 213.729 7.80502 213.97 8.15401L215.311 10.084H214.028L213.008 8.60901C212.71 8.18301 212.465 7.85735 212.272 7.63201C212.125 7.44773 211.951 7.28776 211.754 7.15801C211.61 7.07106 211.453 7.00728 211.289 6.96901C211.101 6.94153 210.911 6.93015 210.721 6.93501H209.538V10.084H208.517ZM209.537 6.12201H211.729C212.098 6.13475 212.468 6.08987 212.823 5.98901C213.064 5.91615 213.275 5.76657 213.423 5.56301C213.555 5.37723 213.625 5.15474 213.623 4.92701C213.625 4.76751 213.591 4.60964 213.521 4.46603C213.452 4.32243 213.35 4.19707 213.223 4.10001C212.853 3.85412 212.412 3.73998 211.969 3.77601H209.529L209.537 6.12201Z" fill="#5A5A5A"/>
<path d="M216.884 3.99402V2.99402H217.83V3.99402H216.884ZM216.884 10.084V4.94701H217.83V10.084H216.884Z" fill="#5A5A5A"/>
<path d="M219.64 7.51602C219.609 7.12082 219.67 6.72377 219.82 6.35667C219.97 5.98957 220.203 5.66263 220.502 5.40202C221.004 5.01425 221.624 4.81244 222.258 4.83101C222.953 4.80365 223.629 5.05328 224.14 5.52501C224.39 5.77545 224.584 6.07568 224.71 6.40615C224.836 6.73662 224.891 7.08991 224.871 7.44302C224.898 7.98206 224.787 8.51908 224.548 9.00302C224.33 9.38479 224.002 9.69236 223.607 9.88601C223.189 10.097 222.726 10.2046 222.258 10.2C221.902 10.2268 221.544 10.1751 221.209 10.0487C220.875 9.92228 220.572 9.72412 220.323 9.46818C220.073 9.21225 219.883 8.90474 219.765 8.5673C219.647 8.22986 219.604 7.87168 219.64 7.51602ZM220.613 7.51602C220.572 8.05072 220.739 8.58062 221.081 8.99402C221.234 9.14985 221.417 9.2736 221.619 9.35808C221.821 9.44255 222.037 9.48605 222.256 9.48605C222.475 9.48605 222.691 9.44255 222.893 9.35808C223.095 9.2736 223.278 9.14985 223.431 8.99402C223.774 8.57252 223.941 8.03553 223.899 7.49402C223.937 6.96974 223.768 6.45137 223.429 6.05002C223.275 5.89473 223.093 5.77145 222.891 5.68731C222.69 5.60317 222.473 5.55985 222.255 5.55985C222.037 5.55985 221.82 5.60317 221.619 5.68731C221.417 5.77145 221.235 5.89473 221.081 6.05002C220.741 6.45988 220.574 6.98524 220.613 7.51602Z" fill="#5A5A5A"/>
</svg>
