<svg xmlns="http://www.w3.org/2000/svg" width="91" height="91" viewBox="0 0 91 91"><path d="M0,0H91V91H0V0Z" fill="#5a5a5a" fill-rule="evenodd" opacity="0.003"/><path d="M76.227,154.891v6.388a4.5,4.5,0,0,0,.457,2.577,2.313,2.313,0,0,0,1.855.713h.846v.6H70v-.6h.816a2.2,2.2,0,0,0,1.988-.906,5.356,5.356,0,0,0,.326-2.379V147.111a4.708,4.708,0,0,0-.429-2.577,2.4,2.4,0,0,0-1.879-.711H70v-.6h8.039a14.194,14.194,0,0,1,4.638.608,6.362,6.362,0,0,1,2.864,2.049,5.244,5.244,0,0,1,1.166,3.412,5.753,5.753,0,0,1-1.771,4.368,6.986,6.986,0,0,1-5.01,1.684,13.793,13.793,0,0,1-1.718-.116c-.612-.077-1.275-.189-1.975-.337Zm0-.921c.573.105,1.074.187,1.522.243a10.518,10.518,0,0,0,1.134.077,3.844,3.844,0,0,0,2.9-1.3,4.738,4.738,0,0,0,1.22-3.367,6.077,6.077,0,0,0-.58-2.645,4.013,4.013,0,0,0-1.649-1.827,4.808,4.808,0,0,0-2.431-.608,9.661,9.661,0,0,0-2.119.3Z" transform="translate(-54.969 -112.467)" fill="#fff" fill-rule="evenodd"/><path d="M170.981,143.843v-.6h7.769v.6h-.829a2.223,2.223,0,0,0-1.988,1.074,5.113,5.113,0,0,0-.341,2.33v8.9a15.92,15.92,0,0,1-.644,5.117,6.339,6.339,0,0,1-2.577,3.126,9.2,9.2,0,0,1-5.218,1.3,9.794,9.794,0,0,1-5.448-1.248,6.723,6.723,0,0,1-2.641-3.345,18.73,18.73,0,0,1-.518-5.4v-8.568a4.254,4.254,0,0,0-.558-2.65,2.3,2.3,0,0,0-1.8-.629h-.829v-.6h9.48v.6H164a2.158,2.158,0,0,0-1.943.859,4.775,4.775,0,0,0-.4,2.424v9.562a21.3,21.3,0,0,0,.232,2.927,6.242,6.242,0,0,0,.859,2.577,4.6,4.6,0,0,0,1.774,1.518,6.065,6.065,0,0,0,2.839.6,7.831,7.831,0,0,0,3.835-.938,5.013,5.013,0,0,0,2.323-2.4,13.925,13.925,0,0,0,.625-4.958v-8.892a4.59,4.59,0,0,0-.453-2.577,2.407,2.407,0,0,0-1.879-.711Z" transform="translate(-122 -112.482)" fill="#fff" fill-rule="evenodd"/><path d="M282.822,140.93l.5,7.453h-.5a9.413,9.413,0,0,0-2.86-4.821,6.977,6.977,0,0,0-4.466-1.473,6.883,6.883,0,0,0-6.71,4.653,15.751,15.751,0,0,0-1.011,6.034,12.751,12.751,0,0,0,.956,5.154,7.163,7.163,0,0,0,2.871,3.345,8.235,8.235,0,0,0,4.374,1.166,7.579,7.579,0,0,0,3.762-.917,12.446,12.446,0,0,0,3.588-3.629l.5.32a11.529,11.529,0,0,1-3.848,4.295,9.72,9.72,0,0,1-5.229,1.359,9.881,9.881,0,0,1-8.441-4.048,11.579,11.579,0,0,1-2.231-7.086,12.634,12.634,0,0,1,1.469-6.034,10.667,10.667,0,0,1,4.052-4.254,10.985,10.985,0,0,1,5.637-1.5,10.373,10.373,0,0,1,4.694,1.16,2.59,2.59,0,0,0,.971.359,1.074,1.074,0,0,0,.758-.309,2.517,2.517,0,0,0,.6-1.209Z" transform="translate(-207.373 -110.668)" fill="#fff" fill-rule="evenodd"/><path d="M237.4,257.314a3.406,3.406,0,0,1,1.969.481,1.552,1.552,0,0,1,.694,1.357,1.568,1.568,0,0,1-.384,1.087,1.986,1.986,0,0,1-1.1.593l1.349,2.132a2.147,2.147,0,0,0,.339.429.43.43,0,0,0,.279.12v.142H238.7v-.142h.054a.18.18,0,0,0,.122-.043.109.109,0,0,0,.052-.094.175.175,0,0,0-.03-.079.347.347,0,0,1-.028-.052l-1.486-2.326h-2.119v2.122a.492.492,0,0,0,.064.292.507.507,0,0,0,.275.133v.178h-1.84v-.174a.506.506,0,0,0,.277-.133.515.515,0,0,0,.06-.292v-5.132a.49.49,0,0,0-.06-.288.536.536,0,0,0-.277-.137v-.178Zm.352.99h-2.5v1.658h2.5a1.693,1.693,0,0,0,.94-.2.724.724,0,0,0,.294-.644.691.691,0,0,0-.307-.618,1.719,1.719,0,0,0-.928-.2Z" transform="translate(-183.565 -202.058)" fill="#fff" fill-rule="evenodd"/><path d="M286.723,263.025a.511.511,0,0,0,.062.292.524.524,0,0,0,.275.133v.178h-1.84v-.174a.344.344,0,0,0,.339-.429v-5.132a.47.47,0,0,0-.062-.288.517.517,0,0,0-.277-.137v-.178h1.84v.178a.556.556,0,0,0-.275.137.487.487,0,0,0-.062.288Z" transform="translate(-223.975 -202.042)" fill="#fff" fill-rule="evenodd"/><path d="M317.841,263.251a3.779,3.779,0,0,1-2.641-.94,3.221,3.221,0,0,1,0-4.739,4.189,4.189,0,0,1,5.282,0,3.221,3.221,0,0,1,0,4.724,3.779,3.779,0,0,1-2.639.94Zm-2.484-3.318a2.362,2.362,0,0,0,.685,1.767,2.474,2.474,0,0,0,1.815.676,2.431,2.431,0,0,0,1.791-.679,2.377,2.377,0,0,0,.687-1.765,2.336,2.336,0,0,0-.683-1.748,2.791,2.791,0,0,0-3.614,0A2.336,2.336,0,0,0,315.356,259.934Z" transform="translate(-246.701 -201.528)" fill="#fff" fill-rule="evenodd"/></svg>