<svg width="398" height="173" viewBox="0 0 398 173" fill="none" xmlns="http://www.w3.org/2000/svg">
<path d="M113.749 101.224H145.749V95.5236H120.349V79.9236H138.449V74.3236H120.349V61.5236H145.749V55.8236H113.749V101.224ZM158.149 86.4236V53.3236L152.049 55.8236V87.8236C152.049 93.5236 153.549 99.7236 159.949 102.624L163.249 98.1236C159.249 95.9236 158.049 92.8236 158.149 86.4236ZM181.949 67.3236C172.249 67.3236 166.849 71.5236 166.849 84.6236C166.849 98.2236 172.749 102.224 182.549 102.224C185.649 102.224 190.449 101.424 193.749 100.424L192.649 95.3236C189.949 96.2236 185.649 96.9236 183.249 96.9236C176.549 96.9236 173.449 95.1236 173.449 86.1236H196.049V84.5236C195.949 70.7236 191.549 67.3236 181.949 67.3236ZM173.449 81.0236C173.949 74.4236 176.049 72.5236 182.049 72.5236C187.349 72.5236 189.249 74.0236 189.549 81.0236H173.449ZM213.249 96.7236C209.049 96.7236 207.749 94.6236 207.749 89.8236V73.7236H219.349V68.2236H207.749V59.4236L201.549 61.9236V90.1236C201.549 99.9236 204.849 102.124 212.349 102.124C215.049 102.124 218.449 101.424 220.449 100.724L219.249 95.6236C217.549 96.3236 215.549 96.7236 213.249 96.7236ZM230.949 70.6236V68.2236H224.749V101.324H230.949V77.2236C230.949 74.7236 234.949 73.2236 239.349 73.2236C240.749 73.2236 242.049 73.3236 243.149 73.5236V67.9236C242.049 67.8236 240.849 67.7236 239.749 67.7236C235.049 67.7236 232.049 68.9236 230.949 70.6236ZM323.649 70.6236V68.2236H317.449V101.324H323.649V77.2236C323.649 74.7236 327.649 73.2236 332.049 73.2236C333.449 73.2236 334.749 73.3236 335.849 73.5236V67.9236C334.749 67.8236 333.549 67.7236 332.449 67.7236C327.749 67.7236 324.749 68.9236 323.649 70.6236ZM261.249 67.3236C250.849 67.3236 245.849 71.1236 245.849 84.6236C245.849 98.2236 250.849 102.224 261.249 102.224C271.749 102.224 276.649 98.2236 276.649 84.6236C276.649 71.1236 271.649 67.3236 261.249 67.3236ZM261.249 96.9236C254.549 96.9236 252.349 94.6236 252.349 84.6236C252.349 74.2236 254.549 72.4236 261.249 72.4236C267.949 72.4236 270.149 74.2236 270.149 84.6236C270.149 94.6236 267.949 96.9236 261.249 96.9236ZM297.649 67.3236C293.449 67.3236 290.549 68.5236 288.849 69.7236V53.2236L282.649 55.8236V99.7236C286.249 101.224 292.149 102.224 296.649 102.224C307.249 102.224 312.049 98.3236 312.049 84.7236C311.949 71.2236 307.349 67.3236 297.649 67.3236ZM296.549 96.8236C293.849 96.8236 291.049 96.4236 288.749 95.6236V77.2236C288.749 75.0236 290.449 72.8236 296.549 72.8236C303.149 72.8236 305.449 75.2236 305.449 84.7236C305.549 95.0236 303.349 96.8236 296.549 96.8236ZM352.449 66.8236C347.849 66.8236 343.749 68.1236 340.849 68.8236L342.549 73.5236C345.249 72.5236 348.349 72.1236 351.749 72.1236C358.949 72.1236 360.449 74.2236 360.449 81.1236C357.349 80.4236 354.749 80.1236 351.649 80.1236C344.049 80.1236 338.649 81.6236 338.649 91.0236C338.649 99.6236 342.349 102.124 352.349 102.124C356.749 102.124 362.549 101.124 366.449 99.5236V80.1236C366.349 70.1236 362.149 66.8236 352.449 66.8236ZM360.349 95.8236C358.149 96.6236 355.349 97.1236 352.549 97.1236C346.649 97.1236 345.149 96.3236 345.149 90.7236C345.149 85.6236 347.049 85.0236 352.649 85.0236C355.449 85.0236 358.249 85.2236 360.349 85.7236V95.8236ZM385.749 81.7236C380.049 81.2236 378.249 80.1236 378.249 77.3236C378.249 73.2236 380.749 72.4236 385.449 72.4236C388.749 72.4236 392.349 73.2236 394.949 74.1236C395.449 72.3236 396.049 70.6236 396.549 69.0236C393.049 67.9236 388.849 67.2236 385.549 67.2236C377.049 67.2236 371.949 69.6236 371.949 77.8236C371.949 84.4236 376.149 86.3236 383.749 86.9236C389.849 87.4236 391.349 88.8236 391.349 91.7236C391.349 95.7236 389.049 96.8236 384.049 96.8236C380.749 96.8236 376.249 96.0236 373.849 95.1236L372.349 100.324C375.549 101.324 380.849 102.124 384.249 102.124C392.849 102.124 397.649 99.6236 397.649 91.4236C397.649 85.1236 394.049 82.5236 385.749 81.7236Z" fill="#0072C6"/>
<path d="M49.9487 78.2236C36.3487 59.1236 36.9487 35.9236 45.0487 13.5236C49.2487 7.42362 54.4487 3.02362 60.8487 0.323624C62.5487 -0.576376 63.3487 0.623618 63.2487 1.22362C59.0487 26.1236 66.4487 37.6236 74.7487 47.3236C70.2487 62.2236 61.5487 72.4236 49.9487 78.2236Z" fill="#CBDB2A"/>
<path d="M79.9487 102.224C62.3487 114.324 36.9487 113.224 7.04869 95.8236C3.34869 91.6236 1.94869 88.8236 0.0486913 83.2236C-0.151309 81.8236 0.248691 80.7236 1.54869 81.0236C19.9487 85.8236 36.5487 84.8236 49.9487 78.2236C56.4487 87.3236 66.2487 95.5236 79.9487 102.224Z" fill="#007AC2"/>
<path d="M79.9486 102.224C87.3486 96.5236 92.3486 86.4236 92.0486 77.2236C91.7486 64.9236 84.3486 57.8236 74.7486 47.4236C70.2486 62.2236 61.5486 72.5236 49.8486 78.3236C56.4486 87.3236 66.2486 95.5236 79.9486 102.224Z" fill="#00A84F"/>
<path d="M130.893 123.934C134.183 123.934 138.355 124.51 141.221 125.375L140 128.818C137.779 127.919 133.81 127.394 130.943 127.394C121.632 127.394 118.138 129.412 118.138 142.963C118.138 156.464 121.632 159.008 130.943 159.008C133.81 159.008 137.779 158.482 140 157.634L141.221 161.026C138.372 161.925 134.183 162.502 130.893 162.502C119.461 162.502 114 158.007 114 142.963C114 127.868 119.461 123.951 130.893 123.951V123.934Z" fill="#0072C6"/>
<path d="M168.697 148.713H149.583C149.634 157.396 152.381 159.245 158.572 159.245C160.472 159.245 163.982 158.669 166.255 157.82L167.052 160.992C164.305 161.84 160.489 162.468 158.267 162.468C150.177 162.468 145.767 159.194 145.767 148.238C145.767 137.756 149.837 134.262 157.775 134.262C165.339 134.262 168.68 137.332 168.68 148.713H168.697ZM149.634 145.592H164.779C164.457 138.927 162.71 137.485 157.792 137.485C152.178 137.485 150.058 139.3 149.634 145.592Z" fill="#0072C6"/>
<path d="M178.721 160.246V171.575L175.278 173V136.365C178.195 135.043 182.859 134.245 186.082 134.245C194.341 134.245 198.208 137.315 198.208 148.221C198.208 159.177 194.392 162.451 186.082 162.451C182.266 162.451 180.044 161.28 178.721 160.229V160.246ZM178.721 138.638V155.378C178.721 157.871 182.113 159.194 186.082 159.194C192.323 159.194 194.392 157.023 194.392 148.339C194.392 139.232 192.323 137.536 186.082 137.536C183.487 137.536 180.79 137.909 178.721 138.638Z" fill="#0072C6"/>
<path d="M226.481 148.713H207.367C207.418 157.396 210.182 159.245 216.373 159.245C218.273 159.245 221.766 158.669 224.056 157.82L224.853 160.992C222.106 161.84 218.29 162.468 216.068 162.468C207.961 162.468 203.568 159.194 203.568 148.238C203.568 137.756 207.638 134.262 215.593 134.262C223.174 134.262 226.498 137.332 226.498 148.713H226.481ZM207.418 145.592H222.564C222.241 138.927 220.494 137.485 215.576 137.485C209.962 137.485 207.842 139.3 207.418 145.592Z" fill="#0072C6"/>
<path d="M235.301 151.715C235.301 156.006 236.895 158.567 239.168 160.246L237.404 162.773C234.012 161.145 231.824 156.531 231.824 152.122V123.493L235.301 122V151.715Z" fill="#0072C6"/>
</svg>
