<svg width="220" height="100" viewBox="0 0 220 100" fill="none" xmlns="http://www.w3.org/2000/svg">
<g clip-path="url(#clip0_30_111)">
<path d="M28.3894 71.8914C28.9771 71.8914 29.2735 72.1879 29.2735 72.7755V76.5875C29.2735 77.1751 28.9771 77.4715 28.3894 77.4715H8.27397C7.4991 77.4715 6.94785 77.6744 6.62542 78.0748C6.30299 78.4752 6.14178 79.0265 6.14178 79.7234V81.0911C6.14178 82.5888 6.83864 83.3377 8.23237 83.3377H23.2878C25.6176 83.3377 27.3701 83.9357 28.5454 85.1267C29.7259 86.3176 30.3136 88.0233 30.3136 90.2439V93.4578C30.3136 95.4132 29.7363 96.9889 28.587 98.1955C27.4377 99.402 25.6436 100 23.2045 100H0.962101C0.348445 100 0.0364158 99.7036 0.0364158 99.1159V95.304C0.0364158 94.7163 0.343244 94.4199 0.962101 94.4199H22.0448C22.8197 94.4199 23.371 94.2171 23.6934 93.8166C24.0158 93.4162 24.177 92.865 24.177 92.1681V90.5195C24.177 89.0218 23.4802 88.2729 22.0864 88.2729H7.02586C4.69604 88.2729 2.94348 87.6749 1.76297 86.484C0.587667 85.2931 -0.00518799 83.5873 -0.00518799 81.3667V78.4336C-0.00518799 76.4783 0.572065 74.9025 1.72137 73.696C2.87068 72.4895 4.66484 71.8914 7.10387 71.8914H28.3842H28.3894ZM63.2586 71.8914C66.3373 71.8914 68.5475 72.5883 69.884 73.982C71.2206 75.3758 71.8914 77.4351 71.8914 80.1654V83.1349C71.8914 85.8651 71.2206 87.9245 69.884 89.3182C68.5475 90.712 66.3373 91.4036 63.2586 91.4036H46.6327V99.1107C46.6327 99.6984 46.3363 99.9948 45.7486 99.9948H41.4114C40.7978 99.9948 40.4857 99.6984 40.4857 99.1107V73.0927C40.4857 72.2919 40.8862 71.8862 41.6922 71.8862H63.2534L63.2586 71.8914ZM46.6327 86.1043H62.0105C63.373 86.1043 64.3403 85.8079 64.902 85.2203C65.4636 84.6326 65.7445 83.7329 65.7445 82.5316V81.0079C65.7445 79.8014 65.4636 78.9069 64.902 78.3192C64.3403 77.7316 63.3782 77.4351 62.0105 77.4351H47.1528C46.8043 77.4351 46.6327 77.5964 46.6327 77.9188V86.1095V86.1043ZM95.278 71.8914C96.2973 71.8914 97.1501 72.0995 97.847 72.5155C98.5439 72.9315 99.2251 73.7428 99.896 74.9441L113.188 99.0743C113.324 99.3396 113.355 99.5632 113.287 99.7348C113.22 99.9064 113.027 99.9948 112.705 99.9948H107.603C107.145 99.9948 106.839 99.8232 106.677 99.4748L103.828 94.2951H84.955L82.1832 99.4748C81.996 99.8232 81.6891 99.9948 81.2575 99.9948H76.0362C75.6878 99.9948 75.4798 99.9064 75.4121 99.7348C75.3445 99.5632 75.3809 99.3396 75.511 99.0743L88.6838 74.9441C89.3546 73.7376 90.0099 72.9315 90.6495 72.5155C91.2944 72.0995 92.0433 71.8914 92.8962 71.8914H95.2676H95.278ZM87.4877 89.6407H101.3L94.9139 77.8772C94.8047 77.69 94.6591 77.5964 94.4719 77.5964H94.2327C94.0455 77.5964 93.8999 77.69 93.7906 77.8772L87.4877 89.6407ZM144.963 71.8914C148.042 71.8914 150.252 72.5883 151.589 73.982C152.925 75.3758 153.596 77.4351 153.596 80.1654V82.4536C153.596 84.7574 153.128 86.5776 152.192 87.9141C151.256 89.2506 149.727 90.1087 147.616 90.4831L154.48 98.9963C154.615 99.1315 154.652 99.3292 154.6 99.5996C154.548 99.87 154.335 100 153.96 100H148.781C148.432 100 148.193 99.9584 148.058 99.8804C147.922 99.8024 147.787 99.6672 147.657 99.48L141.313 91.128H128.343V99.1159C128.343 99.7036 128.046 100 127.459 100H123.121C122.508 100 122.196 99.7036 122.196 99.1159V73.0979C122.196 72.2971 122.596 71.8914 123.402 71.8914H144.963ZM128.337 86.224H143.715C145.078 86.224 146.045 85.9275 146.607 85.3399C147.168 84.7522 147.449 83.8525 147.449 82.6512V80.9663C147.449 79.7598 147.168 78.8653 146.607 78.2776C146.045 77.69 145.083 77.3935 143.715 77.3935H128.857C128.509 77.3935 128.337 77.5548 128.337 77.8772V86.2292V86.224ZM169.39 71.8914C169.978 71.8914 170.274 72.1879 170.274 72.7755V83.4573H175.937C176.582 83.4573 177.118 83.4365 177.544 83.3949C177.971 83.3533 178.345 83.2701 178.668 83.1349C178.99 82.9997 179.281 82.8124 179.552 82.5732C179.822 82.334 180.103 82.022 180.394 81.6475L187.3 72.4115C187.436 72.2243 187.566 72.0891 187.701 72.011C187.836 71.933 188.091 71.8914 188.465 71.8914H193.442C193.791 71.8914 193.999 72.0058 194.066 72.2347C194.134 72.4635 194.097 72.6715 193.967 72.8587L186.177 82.9372C185.725 83.5509 185.298 84.0762 184.913 84.5026C184.523 84.929 184.144 85.3035 183.769 85.6259C184.815 86.2708 185.829 87.2328 186.822 88.5174L195.054 98.9599C195.164 99.0951 195.2 99.3032 195.174 99.584C195.148 99.8648 194.935 100.005 194.529 100.005H189.391C189.043 100.005 188.803 99.9636 188.668 99.8856C188.533 99.8076 188.398 99.6724 188.268 99.4852L180.878 89.9267C180.342 89.2298 179.765 88.7566 179.151 88.5018C178.538 88.2469 177.612 88.1221 176.379 88.1221H170.274V99.1263C170.274 99.714 169.978 100.01 169.39 100.01H165.053C164.439 100.01 164.127 99.714 164.127 99.1263V72.7859C164.127 72.1983 164.434 71.9018 165.053 71.9018H169.39V71.8914Z" fill="url(#paint0_linear_30_111)"/>
<path fill-rule="evenodd" clip-rule="evenodd" d="M159.14 52.9357C178.829 40.3713 196.355 43.658 211.712 62.7854C198.58 42.0615 201.139 24.4162 219.393 9.84971C199.704 22.4089 182.178 19.1274 166.821 0C179.952 20.7239 177.394 38.3691 159.14 52.9357Z" fill="black"/>
<path fill-rule="evenodd" clip-rule="evenodd" d="M157.392 56.6436C169.27 51.7812 180.581 51.0531 191.331 54.4646C192.475 60.0343 194.982 65.8797 198.851 71.9798C186.442 56.5292 172.625 51.4223 157.392 56.6436Z" fill="black"/>
<path fill-rule="evenodd" clip-rule="evenodd" d="M168.095 21.9772C167.856 33.2519 163.508 43.7204 155.063 53.3881C164.933 40.6626 164.564 25.9348 153.955 9.19446C158.479 14.8318 163.191 19.091 168.095 21.9772Z" fill="black"/>
<path d="M11.7219 55.2083C11.4047 55.796 10.9106 56.264 10.2345 56.6228C9.55848 56.9817 8.7056 57.1585 7.68111 57.1585H5.58532V61.9637H3.07349V49.4462H7.68111C8.6484 49.4462 9.47528 49.6126 10.1565 49.9506C10.8378 50.2834 11.3474 50.7463 11.6907 51.3339C12.0339 51.9216 12.2003 52.5821 12.2003 53.3257C12.2003 53.9966 12.0443 54.6206 11.7271 55.2083H11.7219ZM9.11124 54.6622C9.44407 54.345 9.61569 53.8978 9.61569 53.3257C9.61569 52.1088 8.93443 51.4952 7.5719 51.4952H5.58012V55.1355H7.5719C8.26356 55.1355 8.77841 54.9795 9.11644 54.6622H9.11124Z" fill="black"/>
<path d="M20.4275 61.9689L17.666 57.0909H16.4803V61.9689H13.9685V49.4514H18.6697C19.637 49.4514 20.4639 49.623 21.1452 49.961C21.8264 50.299 22.3361 50.7619 22.6793 51.3443C23.0225 51.9268 23.189 52.5716 23.189 53.2893C23.189 54.1162 22.9497 54.8599 22.4713 55.5203C21.9928 56.186 21.2804 56.6436 20.3391 56.8932L23.3346 61.9689H20.4275ZM16.4803 55.2083H18.5761C19.2574 55.2083 19.767 55.0419 20.0999 54.7142C20.4327 54.3866 20.6043 53.929 20.6043 53.3413C20.6043 52.7537 20.4379 52.322 20.0999 52.0048C19.767 51.6876 19.2574 51.5315 18.5761 51.5315H16.4803V55.2083Z" fill="black"/>
<path d="M28.0462 61.2668C27.0633 60.7156 26.2884 59.9563 25.7164 58.9786C25.1443 58.0061 24.8531 56.9036 24.8531 55.6711C24.8531 54.4386 25.1391 53.3569 25.7164 52.3792C26.2884 51.4067 27.0685 50.6423 28.0462 50.091C29.0239 49.5398 30.1004 49.2641 31.2757 49.2641C32.451 49.2641 33.5379 49.5398 34.5104 50.091C35.4829 50.6423 36.2577 51.4015 36.8246 52.3792C37.3914 53.3517 37.6775 54.449 37.6775 55.6711C37.6775 56.8932 37.3914 58.0061 36.8246 58.9786C36.2577 59.9511 35.4829 60.7156 34.5 61.2668C33.5171 61.8181 32.4458 62.0937 31.2705 62.0937C30.0952 62.0937 29.0239 61.8181 28.041 61.2668H28.0462ZM33.2675 59.3375C33.8395 58.9942 34.292 58.5106 34.6144 57.8761C34.9368 57.2417 35.098 56.5084 35.098 55.6711C35.098 54.8338 34.9368 54.1006 34.6144 53.4765C34.292 52.8525 33.8447 52.3688 33.2675 52.0308C32.6954 51.698 32.0297 51.5263 31.2757 51.5263C30.5216 51.5263 29.8559 51.6928 29.2735 52.0308C28.691 52.3636 28.2438 52.8473 27.9214 53.4765C27.5989 54.1058 27.4377 54.839 27.4377 55.6711C27.4377 56.5032 27.5989 57.2417 27.9214 57.8761C28.2438 58.5106 28.6962 58.9994 29.2735 59.3375C29.8507 59.6807 30.5216 59.8471 31.2757 59.8471C32.0297 59.8471 32.6902 59.6755 33.2675 59.3375Z" fill="black"/>
<path d="M48.2604 53.2165C47.9744 52.6913 47.5792 52.2908 47.0747 52.0152C46.5703 51.7396 45.9878 51.6044 45.317 51.6044C44.5733 51.6044 43.918 51.7708 43.346 52.1088C42.7739 52.4416 42.3215 52.9201 41.999 53.5441C41.6766 54.1682 41.5154 54.8807 41.5154 55.6971C41.5154 56.5136 41.6818 57.2625 42.0094 57.8865C42.3371 58.5106 42.7947 58.989 43.3824 59.3219C43.97 59.6547 44.6513 59.8263 45.4262 59.8263C46.383 59.8263 47.1631 59.5715 47.7768 59.0618C48.3852 58.5522 48.7857 57.8449 48.9781 56.9349H44.6721V55.0159H51.4535V57.2053C51.2871 58.079 50.9283 58.885 50.377 59.6287C49.8258 60.3724 49.1185 60.9652 48.25 61.4125C47.3815 61.8597 46.4143 62.0833 45.3378 62.0833C44.1312 62.0833 43.0391 61.8129 42.0667 61.2669C41.0942 60.7208 40.3297 59.9667 39.7732 58.9994C39.2168 58.0322 38.9412 56.9297 38.9412 55.6971C38.9412 54.4646 39.2168 53.3621 39.7732 52.3896C40.3297 51.4171 41.0942 50.6579 42.0667 50.1118C43.0391 49.5658 44.126 49.2953 45.3222 49.2953C46.7315 49.2953 47.9588 49.6386 48.9989 50.325C50.039 51.0115 50.7567 51.9788 51.1519 53.2217H48.2656L48.2604 53.2165Z" fill="black"/>
<path d="M59.7743 61.9689L57.0128 57.0909H55.8271V61.9689H53.3153V49.4514H58.0165C58.9838 49.4514 59.8107 49.623 60.492 49.961C61.1732 50.299 61.6829 50.7619 62.0261 51.3443C62.3693 51.9268 62.5358 52.5716 62.5358 53.2893C62.5358 54.1162 62.2965 54.8599 61.8181 55.5203C61.3396 56.186 60.6272 56.6436 59.6859 56.8932L62.6814 61.9689H59.7743ZM55.8271 55.2083H57.9229C58.6042 55.2083 59.1138 55.0419 59.4467 54.7142C59.7795 54.3866 59.9511 53.929 59.9511 53.3413C59.9511 52.7537 59.7847 52.322 59.4467 52.0048C59.1138 51.6876 58.6042 51.5315 57.9229 51.5315H55.8271V55.2083Z" fill="black"/>
<path d="M72.4895 59.5819H67.5022L66.6753 61.9689H64.0387L68.5423 49.4358H71.465L75.9686 61.9689H73.3163L72.4895 59.5819ZM71.8082 57.5745L69.9984 52.3376L68.1887 57.5745H71.8134H71.8082Z" fill="black"/>
<path d="M91.2996 49.4514V61.9689H88.7877V53.825L85.4334 61.9689H83.5301L80.1601 53.825V61.9689H77.6483V49.4514H80.4982L84.4817 58.7602L88.4653 49.4514H91.2996Z" fill="black"/>
<path d="M101.451 59.5819H96.4637L95.6368 61.9689H93.0002L97.5038 49.4358H100.426L104.93 61.9689H102.278L101.451 59.5819ZM100.77 57.5745L98.9599 52.3376L97.1502 57.5745H100.775H100.77Z" fill="black"/>
</g>
<defs>
<linearGradient id="paint0_linear_30_111" x1="-0.00518799" y1="85.9483" x2="195.182" y2="85.9483" gradientUnits="userSpaceOnUse">
<stop stop-color="#C9DA2A"/>
<stop offset="1" stop-color="#009E49"/>
</linearGradient>
<clipPath id="clip0_30_111">
<rect width="219.393" height="100" fill="white"/>
</clipPath>
</defs>
</svg>
