<svg width="640" height="557" viewBox="0 0 640 557" fill="none" xmlns="http://www.w3.org/2000/svg">
<path d="M217.814 446.965C225.146 446.965 234.444 448.25 240.831 450.178L238.11 457.85C233.159 455.847 224.315 454.676 217.928 454.676C197.178 454.676 189.392 459.173 189.392 489.372C189.392 519.457 197.178 525.126 217.928 525.126C224.315 525.126 233.159 523.954 238.11 522.065L240.831 529.624C234.482 531.627 225.146 532.912 217.814 532.912C192.34 532.912 180.17 522.896 180.17 489.372C180.17 455.734 192.34 447.003 217.814 447.003V446.965Z" fill="#FEFEFE"/>
<path d="M302.06 502.184H259.465C259.578 521.535 265.701 525.655 279.496 525.655C283.729 525.655 291.553 524.37 296.617 522.48L298.394 529.548C292.271 531.438 283.767 532.836 278.816 532.836C260.787 532.836 250.961 525.542 250.961 501.126C250.961 477.768 260.031 469.983 277.72 469.983C294.576 469.983 302.022 476.824 302.022 502.184H302.06ZM259.578 495.23H293.329C292.611 480.376 288.718 477.164 277.757 477.164C265.247 477.164 260.523 481.208 259.578 495.23Z" fill="#FEFEFE"/>
<path d="M324.397 527.885V553.132L316.724 556.307V474.669C323.225 471.721 333.619 469.945 340.8 469.945C359.206 469.945 367.824 476.786 367.824 501.088C367.824 525.504 359.32 532.798 340.8 532.798C332.296 532.798 327.345 530.19 324.397 527.847V527.885ZM324.397 479.734V517.038C324.397 522.594 331.956 525.542 340.8 525.542C354.709 525.542 359.32 520.704 359.32 501.353C359.32 481.057 354.709 477.277 340.8 477.277C335.017 477.277 329.008 478.109 324.397 479.734Z" fill="#FEFEFE"/>
<path d="M430.828 502.184H388.233C388.346 521.535 394.507 525.655 408.302 525.655C412.535 525.655 420.321 524.37 425.424 522.48L427.2 529.548C421.077 531.438 412.573 532.836 407.622 532.836C389.556 532.836 379.767 525.542 379.767 501.126C379.767 477.768 388.838 469.983 406.564 469.983C423.458 469.983 430.866 476.824 430.866 502.184H430.828ZM388.346 495.23H422.098C421.38 480.376 417.487 477.164 406.526 477.164C394.016 477.164 389.291 481.208 388.346 495.23Z" fill="#FEFEFE"/>
<path d="M450.482 508.874C450.482 518.436 454.035 524.143 459.099 527.885L455.169 533.517C447.609 529.888 442.734 519.608 442.734 509.781V445.983L450.482 442.657V508.874Z" fill="#FEFEFE"/>
<path d="M0 397.113H72.1134V384.339H14.8535V349.265H55.5213V336.641H14.8535V307.576H72.1134V294.802H0V397.113ZM99.9685 363.665L99.9307 289.17L86.1354 294.764V366.726C86.211 379.539 89.4614 393.485 103.975 400.175L111.42 390.046C102.387 385.17 99.7417 378.178 99.9307 363.665H99.9685ZM153.524 320.616C131.641 320.616 119.471 330.027 119.471 359.507C119.471 390.046 132.85 399.154 154.847 399.154C161.726 399.154 172.611 397.378 180.094 395.035L177.6 383.432C171.439 385.472 161.726 386.947 156.472 386.947C141.354 386.947 134.438 382.827 134.287 362.72H185.083V359.318C185.083 328.213 175.106 320.578 153.524 320.578V320.616ZM134.438 351.457C135.609 336.641 140.296 332.219 153.827 332.219C165.846 332.219 169.965 335.583 170.683 351.457H134.4H134.438ZM224.05 386.833C214.526 386.833 211.578 382.147 211.578 371.261V335.016H237.694V322.695H211.578V302.89L197.631 308.597V372.169C197.631 394.203 205.002 399.192 221.858 399.192C228.019 399.192 235.502 397.718 240.227 396.093L237.581 384.641C233.764 385.964 229.228 386.833 224.05 386.833ZM263.849 328.099V322.657H249.902V397.113H263.849V342.953C263.849 337.208 272.806 333.844 282.784 333.844C285.883 333.844 288.945 334.147 291.439 334.6V321.976C288.945 321.674 286.299 321.523 283.805 321.523C273.109 321.523 266.494 324.282 263.849 328.099ZM472.592 328.099V322.657H458.646V397.113H472.592V342.953C472.592 337.208 481.55 333.844 491.528 333.844C494.589 333.844 497.688 334.147 500.183 334.6V321.976C497.688 321.674 495.043 321.523 492.548 321.523C481.852 321.523 475.238 324.282 472.592 328.099ZM332.145 320.616C308.787 320.616 297.487 329.12 297.487 359.507C297.487 390.046 308.674 399.154 332.145 399.154C355.767 399.154 366.765 390.046 366.765 359.507C366.765 329.12 355.616 320.616 332.145 320.616ZM332.145 387.4C317.027 387.4 312.151 382.109 312.151 359.81C312.151 336.49 316.989 332.37 332.145 332.37C347.263 332.37 352.101 336.49 352.101 359.81C352.101 382.147 347.263 387.4 332.145 387.4ZM414.123 320.616C404.712 320.616 398.098 323.375 394.318 326.058V288.943L380.372 294.688V393.561C388.46 396.924 401.802 399.154 411.78 399.154C435.553 399.154 446.438 390.348 446.438 359.81C446.438 329.573 436.006 320.616 414.123 320.616ZM411.78 387.098C405.77 387.098 399.307 386.228 394.318 384.452V343.028C394.318 338.039 398.135 333.05 411.931 333.05C426.898 333.05 431.887 338.455 431.887 359.734C431.887 382.94 426.898 387.022 411.78 387.022V387.098ZM537.449 319.482C527.017 319.482 517.946 322.317 511.37 324.093L515.112 334.713C521.121 332.37 528.113 331.539 535.748 331.539C552.038 331.539 555.402 336.339 555.402 351.91C548.334 350.436 542.627 349.718 535.559 349.718C518.551 349.718 506.192 353.082 506.192 374.247C506.192 393.636 514.545 399.23 537.033 399.23C547.011 399.23 560.088 397 568.894 393.372V349.605C568.894 327.154 559.332 319.558 537.449 319.558V319.482ZM555.364 384.906C550.375 386.644 544.025 387.854 537.902 387.854C524.561 387.854 521.159 385.926 521.159 373.454C521.159 361.888 525.43 360.528 538.054 360.528C544.365 360.528 550.677 360.981 555.364 362.153V384.906ZM612.548 353.195C599.773 352.175 595.654 349.68 595.654 343.369C595.654 334.109 601.247 332.37 611.792 332.37C619.124 332.37 627.364 334.147 633.222 336.187C634.394 332.219 635.717 328.402 636.888 324.584C628.951 322.09 619.578 320.616 612.094 320.616C593.008 320.616 581.405 326.058 581.405 344.54C581.405 359.356 590.816 363.778 607.975 365.101C621.619 366.272 624.983 369.372 624.983 375.986C624.983 384.943 619.843 387.4 608.542 387.4C601.058 387.4 590.929 385.661 585.638 383.583L582.274 395.186C589.493 397.529 601.361 399.154 608.995 399.154C628.384 399.154 639.231 393.561 639.231 375.079C639.231 360.679 631.143 354.821 612.51 353.195H612.548Z" fill="#FEFEFE"/>
<path d="M302.173 170.833C302.249 170.795 302.324 170.758 302.438 170.72C327.118 158.512 345.411 136.969 355.313 104.843L356.372 101.403C356.409 101.101 356.334 100.874 356.258 100.723C339.704 79.9355 326.551 54.0457 335.168 2.8331C335.395 1.39687 333.694 -1.28659 329.726 0.71656C315.326 6.83939 303.609 16.7418 294.123 30.4992C276.586 78.6504 274.583 128.654 301.38 170.569C301.682 170.795 301.909 170.871 302.173 170.833Z" fill="#FEFEFE"/>
<path d="M300.17 179.677L299.49 178.732C270.387 191.205 234.973 192.679 196.12 182.436C193.285 181.718 192.34 184.25 192.831 187.35C197.065 200.049 200.239 206.247 208.592 215.772C272.769 252.887 327.609 257.082 366.841 233.913C336.831 218.833 314.986 200.389 300.17 179.639V179.677Z" fill="#FEFEFE"/>
<path d="M361.096 106.619C350.929 139.841 331.616 162.896 305.613 175.898C305.424 176.124 305.386 176.313 305.386 176.54C320.05 196.95 341.972 215.243 372.813 230.134H372.85C389.48 217.208 400.706 194.606 400.139 173.819C399.42 146.191 382.791 130.203 361.096 106.619Z" fill="#FEFEFE"/>
</svg>
