<svg width="98" height="50" viewBox="0 0 98 50" fill="none" xmlns="http://www.w3.org/2000/svg">
<path fill-rule="evenodd" clip-rule="evenodd" d="M10.2045 19.3269V29.4783C10.0355 30.8852 10.2882 32.3105 10.9307 33.5735C11.307 33.9695 11.7668 34.2767 12.2767 34.4727C12.7867 34.6687 13.3339 34.7486 13.8785 34.7065H15.2229V35.66H0.30896V34.7065H1.60569C2.21206 34.7624 2.82252 34.659 3.37664 34.4065C3.93075 34.154 4.40929 33.7611 4.76488 33.2668C5.22147 32.062 5.3986 30.7694 5.28293 29.4862V6.96347C5.44656 5.56143 5.21021 4.14171 4.60119 2.86829C4.21468 2.47539 3.74761 2.17094 3.23213 1.97588C2.71665 1.78083 2.16502 1.69982 1.61522 1.73842H0.30896V0.784957H13.084C15.5773 0.697196 18.0679 1.02367 20.4544 1.75113C22.2476 2.38665 23.8251 3.51528 25.0056 5.00727C26.2448 6.53881 26.9012 8.45982 26.8586 10.4294C26.9061 11.7195 26.6799 13.0051 26.1949 14.2015C25.7098 15.3979 24.9768 16.478 24.0442 17.3707C21.8432 19.271 18.9846 20.2318 16.0827 20.0468C15.1697 20.0423 14.2579 19.9807 13.3525 19.8624C12.38 19.7401 11.3264 19.5621 10.214 19.3269H10.2045ZM10.2045 17.8633C11.115 18.0302 11.9112 18.1605 12.6231 18.2495C13.2212 18.3227 13.8227 18.3636 14.4252 18.3718C15.2962 18.376 16.1581 18.1938 16.9529 17.8375C17.7478 17.4812 18.4572 16.959 19.0337 16.306C20.355 14.8448 21.0511 12.9239 20.9724 10.9554C20.9852 9.50281 20.6702 8.06605 20.0507 6.75212C19.5029 5.53377 18.5863 4.51822 17.4302 3.84879C16.2506 3.19091 14.9176 2.85752 13.5671 2.8826C12.4304 2.91631 11.301 3.07621 10.1997 3.35934L10.2045 17.8633Z" fill="white"/>
<path fill-rule="evenodd" clip-rule="evenodd" d="M54.2599 1.74646V0.792969H66.6059V1.74646H65.2885C64.6574 1.72259 64.0315 1.86833 63.4758 2.1685C62.9202 2.46866 62.4552 2.9123 62.1293 3.45319C61.663 4.62844 61.4775 5.89627 61.5874 7.15584V21.2991C61.6905 24.0472 61.3448 26.7938 60.564 29.4307C59.779 31.4899 58.3405 33.235 56.4688 34.3983C53.9722 35.8974 51.0848 36.6167 48.1767 36.4642C45.1595 36.658 42.1511 35.9689 39.5191 34.4809C37.5807 33.2111 36.1077 31.3454 35.3222 29.1653C34.6329 26.36 34.3556 23.4692 34.4991 20.584V6.96833C34.6701 5.50548 34.3588 4.0268 33.6124 2.75715C33.2348 2.39569 32.784 2.11942 32.2906 1.94699C31.7971 1.77456 31.2724 1.70997 30.7519 1.75759H29.4345V0.804099H44.4995V1.75759H43.1662C42.5775 1.69949 41.9838 1.79465 41.4427 2.03385C40.9017 2.27304 40.4317 2.64812 40.0785 3.12264C39.5343 4.32924 39.3151 5.6572 39.4429 6.97468V22.17C39.4586 23.7271 39.5818 25.2812 39.8115 26.8213C39.9604 28.27 40.4265 29.6682 41.1766 30.9165C41.8932 31.9497 42.8642 32.7805 43.9957 33.3288C45.4003 34.007 46.9484 34.3342 48.5072 34.2823C50.6326 34.3141 52.7308 33.8009 54.6016 32.7917C56.2319 31.9798 57.5348 30.6337 58.2931 28.9778C59.0966 26.4329 59.4331 23.7636 59.2863 21.0989V6.96833C59.4488 5.56234 59.1986 4.13946 58.5664 2.87315C58.1795 2.48086 57.7123 2.1768 57.197 1.98178C56.6816 1.78677 56.1302 1.70542 55.5805 1.74328L54.2599 1.74646Z" fill="white"/>
<path fill-rule="evenodd" clip-rule="evenodd" d="M96.3209 0L97.1155 11.8438H96.3209C95.6192 8.88776 94.0339 6.21551 91.7761 4.1826C89.7525 2.60456 87.2443 1.77729 84.679 1.84182C82.3452 1.7749 80.0512 2.45651 78.1326 3.78696C76.214 5.11741 74.7714 7.02687 74.016 9.23604C72.8588 12.2966 72.313 15.5543 72.4093 18.8248C72.343 21.6307 72.8603 24.4198 73.9285 27.0152C74.8527 29.2226 76.4492 31.0826 78.4909 32.3308C80.5893 33.5857 82.9972 34.2276 85.4418 34.1838C87.5271 34.2239 89.5871 33.7217 91.4201 32.7266C93.6986 31.2187 95.64 29.2551 97.1219 26.9596L97.9164 27.4681C96.4892 30.2245 94.3851 32.5731 91.8015 34.2934C89.2914 35.7841 86.4102 36.5329 83.4919 36.4531C80.8985 36.5733 78.3157 36.0486 75.9748 34.926C73.6339 33.8034 71.6079 32.1179 70.0781 30.0203C67.6916 26.758 66.4456 22.8007 66.5327 18.7597C66.5009 15.419 67.3033 12.1231 68.8671 9.17089C70.3384 6.3592 72.5695 4.01697 75.3063 2.41073C78.0229 0.823405 81.118 -0.000198088 84.2642 0.0270367C86.8612 0.0453187 89.417 0.676922 91.7236 1.87041C92.1943 2.16248 92.7191 2.35653 93.2666 2.44092C93.7172 2.44267 94.1502 2.26614 94.4712 1.94987C94.958 1.4082 95.2877 0.743893 95.4247 0.0286129L96.3209 0Z" fill="white"/>
<path fill-rule="evenodd" clip-rule="evenodd" d="M61.9735 39.7186C63.07 39.6499 64.1613 39.9166 65.1026 40.483C65.4564 40.7172 65.7437 41.0387 65.9369 41.4165C66.1301 41.7943 66.2226 42.2155 66.2054 42.6394C66.2287 43.2718 66.0106 43.8894 65.5952 44.3668C65.1291 44.8609 64.516 45.1913 63.8471 45.3092L65.9909 48.6972C66.1407 48.9464 66.3217 49.1756 66.5296 49.3789C66.6493 49.4943 66.8069 49.5621 66.973 49.5696V49.7953H64.0394V49.5696H64.1252C64.1961 49.5716 64.2652 49.5473 64.3191 49.5013C64.3446 49.4856 64.3656 49.4636 64.3801 49.4375C64.3946 49.4113 64.402 49.3818 64.4017 49.3519C64.3963 49.3068 64.38 49.2637 64.3541 49.2264C64.3369 49.2001 64.322 49.1725 64.3096 49.1437L61.9481 45.4474H58.5808V48.8195C58.5657 48.981 58.6013 49.1432 58.6825 49.2836C58.8029 49.3973 58.9556 49.4711 59.1195 49.4949V49.7778H56.1955V49.5013C56.3606 49.4782 56.5144 49.4043 56.6357 49.2899C56.7125 49.148 56.7457 48.9866 56.731 48.8259V40.6705C56.7469 40.5118 56.7136 40.352 56.6357 40.2128C56.5135 40.0986 56.3604 40.0229 56.1955 39.9951V39.7122L61.9735 39.7186ZM62.5329 41.2918H58.5601V43.9266H62.5329C63.0511 43.9672 63.5699 43.8568 64.0267 43.6088C64.1857 43.4925 64.3121 43.3373 64.3939 43.1581C64.4757 42.9789 64.5102 42.7817 64.4939 42.5854C64.5058 42.3933 64.467 42.2015 64.3813 42.0291C64.2957 41.8567 64.1663 41.7099 64.0061 41.6033C63.5541 41.361 63.043 41.2509 62.5314 41.2855L62.5329 41.2918Z" fill="white"/>
<path fill-rule="evenodd" clip-rule="evenodd" d="M76.1375 48.8197C76.1235 48.9807 76.1578 49.1423 76.2361 49.2837C76.3575 49.396 76.5096 49.4696 76.6731 49.4951V49.7779H73.7491V49.5015C73.8331 49.5028 73.9164 49.4848 73.9923 49.4488C74.0683 49.4128 74.1349 49.3597 74.187 49.2938C74.2391 49.2278 74.2753 49.1507 74.2928 49.0685C74.3103 48.9863 74.3086 48.9011 74.2878 48.8197V40.6643C74.3048 40.5051 74.2703 40.3447 74.1893 40.2066C74.0682 40.0909 73.9146 40.0149 73.7491 39.9889V39.7061H76.6731V39.9889C76.5099 40.019 76.3584 40.0945 76.2361 40.2066C76.1568 40.3454 76.1223 40.5052 76.1375 40.6643V48.8197Z" fill="white"/>
<path fill-rule="evenodd" clip-rule="evenodd" d="M89.4735 49.9958C87.9348 50.0544 86.4324 49.5196 85.2766 48.502C84.756 48.0226 84.3405 47.4405 84.0562 46.7924C83.772 46.1443 83.6252 45.4443 83.6252 44.7366C83.6252 44.0289 83.772 43.3289 84.0562 42.6808C84.3405 42.0326 84.756 41.4505 85.2766 40.9711C86.4631 40.0075 87.945 39.4814 89.4735 39.4814C91.002 39.4814 92.4839 40.0075 93.6704 40.9711C94.1872 41.4503 94.5995 42.031 94.8815 42.6769C95.1634 43.3228 95.3089 44.0199 95.3089 44.7246C95.3089 45.4294 95.1634 46.1266 94.8815 46.7724C94.5995 47.4183 94.1872 47.999 93.6704 48.4782C92.5155 49.495 91.0143 50.0297 89.4767 49.9719L89.4735 49.9958ZM85.5261 44.7231C85.5038 45.2409 85.5891 45.7577 85.7764 46.241C85.9638 46.7243 86.2492 47.1635 86.6147 47.5311C86.9985 47.8949 87.4517 48.1776 87.9473 48.3622C88.4429 48.5467 88.9706 48.6294 89.4989 48.6053C90.0217 48.6276 90.5435 48.5434 91.0328 48.3579C91.522 48.1725 91.9685 47.8895 92.3451 47.5263C92.7096 47.1585 92.9946 46.7198 93.1824 46.2373C93.3702 45.7548 93.4568 45.2389 93.4368 44.7215C93.4578 44.2086 93.3722 43.6969 93.1853 43.2188C92.9985 42.7406 92.7146 42.3065 92.3514 41.9437C91.5497 41.2625 90.5319 40.8886 89.4799 40.8886C88.4279 40.8886 87.4101 41.2625 86.6083 41.9437C86.245 42.307 85.9612 42.7417 85.7746 43.2204C85.5881 43.6991 85.5029 44.2113 85.5245 44.7246L85.5261 44.7231Z" fill="white"/>
</svg>
