<svg width="86" height="76" viewBox="0 0 86 76" fill="none" xmlns="http://www.w3.org/2000/svg">
<path d="M46.5161 4.01562V5.55371C47.4536 5.72949 48.3618 5.94922 49.1821 6.16895C51.0571 6.66699 52.1704 8.60059 51.6723 10.4756C51.1743 12.3506 49.2407 13.4639 47.3657 12.9658C45.769 12.541 44.2749 12.248 42.9419 12.2334C41.8725 12.2188 40.7885 12.4824 40.1001 12.8779C39.7924 13.0684 39.646 13.2295 39.5874 13.3174C39.5434 13.3906 39.4848 13.4932 39.4848 13.7275C39.4848 13.7715 39.4848 13.8008 39.4848 13.8154C39.5141 13.8447 39.6167 13.9912 39.9682 14.1963C40.8178 14.709 42.0776 15.1045 43.9819 15.6758L44.1137 15.7197C45.7397 16.2031 47.9077 16.8623 49.6655 17.9609C51.6723 19.2207 53.4887 21.3154 53.5327 24.5381C53.5766 27.834 51.8628 30.2363 49.6216 31.6426C48.6401 32.2432 47.5854 32.668 46.5014 32.9316V34.4844C46.5014 36.4326 44.9341 38 42.9858 38C41.0376 38 39.4702 36.4326 39.4702 34.4844V32.8145C38.0786 32.4775 36.8042 32.0381 35.7202 31.6719C35.4126 31.5693 35.1196 31.4668 34.8413 31.3789C32.9956 30.7637 31.9995 28.7715 32.6147 26.9258C33.2299 25.0801 35.2221 24.084 37.0678 24.6992C37.4487 24.8311 37.8003 24.9482 38.1372 25.0654C40.1294 25.7393 41.5649 26.2227 43.103 26.2812C44.2749 26.3252 45.3149 26.0469 45.9155 25.6807C46.1938 25.5049 46.3257 25.3584 46.3842 25.2559C46.4428 25.168 46.5161 24.9922 46.5014 24.6553V24.626C46.5014 24.4795 46.5014 24.3184 45.9155 23.9521C45.0805 23.4248 43.8208 23.0146 41.9458 22.4434L41.6674 22.3555C40.0854 21.8867 38.0053 21.2568 36.3354 20.2461C34.3579 19.0596 32.4536 17.0234 32.4389 13.7861C32.4243 10.4316 34.3286 8.13184 36.4966 6.84277C37.4341 6.28613 38.4448 5.90527 39.4555 5.6416V4.01562C39.4555 2.06738 41.0229 0.5 42.9712 0.5C44.9194 0.5 46.4868 2.06738 46.4868 4.01562H46.5161ZM84.0454 49.7627C85.9643 52.3701 85.4077 56.0322 82.8003 57.9512L64.2553 71.6182C60.8276 74.1377 56.6967 75.5 52.4341 75.5H28.938H5.50046C2.90768 75.5 0.812958 73.4053 0.812958 70.8125V61.4375C0.812958 58.8447 2.90768 56.75 5.50046 56.75H10.8911L17.4682 51.4766C20.7934 48.8105 24.9243 47.375 29.187 47.375H40.6567H43.0005H52.3755C54.9682 47.375 57.063 49.4697 57.063 52.0625C57.063 54.6553 54.9682 56.75 52.3755 56.75H43.0005H40.6567C39.3676 56.75 38.313 57.8047 38.313 59.0938C38.313 60.3828 39.3676 61.4375 40.6567 61.4375H58.3227L75.8569 48.5176C78.4643 46.5986 82.1264 47.1553 84.0454 49.7627ZM29.1723 56.75H29.0405C29.0844 56.75 29.1284 56.75 29.1723 56.75Z" fill="#00A84F"/>
</svg>
