<svg width="58" height="76" viewBox="0 0 58 76" fill="none" xmlns="http://www.w3.org/2000/svg">
<path d="M10.25 7.53125C8.96094 7.53125 7.90625 8.58594 7.90625 9.875V66.125C7.90625 67.4141 8.96094 68.4688 10.25 68.4688H21.9688V59.0938C21.9688 55.2119 25.1182 52.0625 29 52.0625C32.8818 52.0625 36.0312 55.2119 36.0312 59.0938V68.4688H47.75C49.0391 68.4688 50.0938 67.4141 50.0938 66.125V9.875C50.0938 8.58594 49.0391 7.53125 47.75 7.53125H10.25ZM0.875 9.875C0.875 4.7041 5.0791 0.5 10.25 0.5H47.75C52.9209 0.5 57.125 4.7041 57.125 9.875V66.125C57.125 71.2959 52.9209 75.5 47.75 75.5H10.25C5.0791 75.5 0.875 71.2959 0.875 66.125V9.875ZM13.7656 15.7344C13.7656 14.4453 14.8203 13.3906 16.1094 13.3906H23.1406C24.4297 13.3906 25.4844 14.4453 25.4844 15.7344V22.7656C25.4844 24.0547 24.4297 25.1094 23.1406 25.1094H16.1094C14.8203 25.1094 13.7656 24.0547 13.7656 22.7656V15.7344ZM34.8594 13.3906H41.8906C43.1797 13.3906 44.2344 14.4453 44.2344 15.7344V22.7656C44.2344 24.0547 43.1797 25.1094 41.8906 25.1094H34.8594C33.5703 25.1094 32.5156 24.0547 32.5156 22.7656V15.7344C32.5156 14.4453 33.5703 13.3906 34.8594 13.3906ZM13.7656 34.4844C13.7656 33.1953 14.8203 32.1406 16.1094 32.1406H23.1406C24.4297 32.1406 25.4844 33.1953 25.4844 34.4844V41.5156C25.4844 42.8047 24.4297 43.8594 23.1406 43.8594H16.1094C14.8203 43.8594 13.7656 42.8047 13.7656 41.5156V34.4844ZM34.8594 32.1406H41.8906C43.1797 32.1406 44.2344 33.1953 44.2344 34.4844V41.5156C44.2344 42.8047 43.1797 43.8594 41.8906 43.8594H34.8594C33.5703 43.8594 32.5156 42.8047 32.5156 41.5156V34.4844C32.5156 33.1953 33.5703 32.1406 34.8594 32.1406Z" fill="#FFAB08"/>
</svg>
