<svg width="94" height="76" viewBox="0 0 94 76" fill="none" xmlns="http://www.w3.org/2000/svg">
<path d="M23.5625 9.875C23.5625 4.7041 27.7666 0.5 32.9375 0.5H84.5C89.6709 0.5 93.875 4.7041 93.875 9.875V52.0625C93.875 57.2334 89.6709 61.4375 84.5 61.4375H49.4609C47.7324 57.7021 45.0811 54.4795 41.7852 52.0625H56.375V47.375C56.375 44.7822 58.4697 42.6875 61.0625 42.6875H70.4375C73.0303 42.6875 75.125 44.7822 75.125 47.375V52.0625H84.5V9.875H32.9375V17.0674C30.1836 15.4707 26.9756 14.5625 23.5625 14.5625V9.875ZM23.5625 19.25C25.4092 19.25 27.2378 19.6137 28.944 20.3204C30.6501 21.0272 32.2004 22.063 33.5062 23.3688C34.812 24.6746 35.8479 26.2249 36.5546 27.931C37.2613 29.6372 37.625 31.4658 37.625 33.3125C37.625 35.1592 37.2613 36.9878 36.5546 38.694C35.8479 40.4001 34.812 41.9504 33.5062 43.2562C32.2004 44.562 30.6501 45.5979 28.944 46.3046C27.2378 47.0113 25.4092 47.375 23.5625 47.375C21.7158 47.375 19.8872 47.0113 18.181 46.3046C16.4749 45.5979 14.9246 44.562 13.6188 43.2562C12.313 41.9504 11.2772 40.4001 10.5704 38.694C9.86374 36.9878 9.5 35.1592 9.5 33.3125C9.5 31.4658 9.86374 29.6372 10.5704 27.931C11.2772 26.2249 12.313 24.6746 13.6188 23.3688C14.9246 22.063 16.4749 21.0272 18.181 20.3204C19.8872 19.6137 21.7158 19.25 23.5625 19.25ZM19.6514 52.0625H27.459C38.2549 52.0625 47 60.8076 47 71.5889C47 73.7422 45.2568 75.5 43.0889 75.5H4.03613C1.86816 75.5 0.125 73.7568 0.125 71.5889C0.125 60.8076 8.87012 52.0625 19.6514 52.0625Z" fill="#0096D9"/>
</svg>
