<svg width="100" height="106" viewBox="0 0 100 106" fill="none" xmlns="http://www.w3.org/2000/svg">
<path d="M92.4985 88.3966C94.5547 93.3608 95.7233 98.6421 95.9565 104L4.0435 104C4.27666 98.6421 5.44528 93.3608 7.50154 88.3966C9.81326 82.8156 13.2016 77.7446 17.4731 73.4731C21.7446 69.2016 26.8156 65.8133 32.3966 63.5015C37.9775 61.1898 43.9592 60 50 60C56.0408 60 62.0225 61.1898 67.6034 63.5015C73.1844 65.8133 78.2554 69.2016 82.5269 73.4731C86.7984 77.7446 90.1867 82.8156 92.4985 88.3966L94.3462 87.6312L92.4985 88.3966Z" stroke="black" stroke-width="4"/>
<circle cx="50" cy="34" r="22" stroke="black" stroke-width="4"/>
<rect x="30" y="6" width="40" height="14" rx="2" fill="black"/>
<rect x="21" width="58" height="10" rx="4" fill="black"/>
</svg>
