<svg width="66" height="75" viewBox="0 0 66 75" fill="none" xmlns="http://www.w3.org/2000/svg">
<path d="M0.1875 14.0625C0.1875 6.29883 6.48633 0 14.25 0H28.3125V27.9346C28.3125 29.8975 30.583 30.9961 32.1211 29.7656L40.0312 23.4375L47.9414 29.7656C49.4795 30.9961 51.75 29.8975 51.75 27.9346V0H56.4375H61.125C63.7178 0 65.8125 2.09473 65.8125 4.6875V51.5625C65.8125 54.1553 63.7178 56.25 61.125 56.25V65.625C63.7178 65.625 65.8125 67.7197 65.8125 70.3125C65.8125 72.9053 63.7178 75 61.125 75H56.4375H14.25C6.48633 75 0.1875 68.7012 0.1875 60.9375V14.0625ZM9.5625 60.9375C9.5625 63.5303 11.6572 65.625 14.25 65.625H51.75V56.25H14.25C11.6572 56.25 9.5625 58.3447 9.5625 60.9375Z" fill="#FFAB08"/>
</svg>
