<svg width="101" height="106" viewBox="0 0 101 106" fill="none" xmlns="http://www.w3.org/2000/svg">
<rect x="2.9231" y="8" width="96" height="96" rx="6" stroke="black" stroke-width="4"/>
<path d="M2.9231 14C2.9231 10.6863 5.60939 8 8.9231 8H92.9231C96.2368 8 98.9231 10.6863 98.9231 14V66C98.9231 86.9868 81.9099 104 60.9231 104H8.92309C5.60939 104 2.9231 101.314 2.9231 98V14Z" stroke="black" stroke-width="4"/>
<rect x="18.9231" y="35" width="20" height="20" rx="4" fill="black"/>
<rect x="20.9231" y="60" width="16" height="16" rx="2" stroke="black" stroke-width="4"/>
<rect x="42.9231" y="37" width="16" height="16" rx="2" stroke="black" stroke-width="4"/>
<rect x="42.9231" y="60" width="16" height="16" rx="2" stroke="black" stroke-width="4"/>
<rect x="64.9231" y="37" width="16" height="16" rx="2" stroke="black" stroke-width="4"/>
<rect x="64.9231" y="60" width="16" height="16" rx="2" stroke="black" stroke-width="4"/>
<path d="M10.9231 16C9.73641 16 8.57637 15.5308 7.58967 14.6518C6.60298 13.7727 5.83394 12.5233 5.37982 11.0615C4.92569 9.59966 4.80687 7.99112 5.03838 6.43928C5.2699 4.88743 5.84134 3.46197 6.68046 2.34315C7.51957 1.22433 8.58867 0.462399 9.75255 0.153718C10.9164 -0.154964 12.1228 0.00346289 13.2192 0.608964C14.3156 1.21447 15.2526 2.23985 15.9119 3.55544C16.5712 4.87103 16.9231 6.41775 16.9231 8H14.5231C14.5231 7.05065 14.312 6.12262 13.9164 5.33326C13.5208 4.54391 12.9586 3.92868 12.3008 3.56538C11.6429 3.20208 10.9191 3.10702 10.2208 3.29223C9.52244 3.47744 8.88098 3.93459 8.37751 4.60589C7.87404 5.27718 7.53118 6.13246 7.39227 7.06357C7.25336 7.99467 7.32465 8.95979 7.59713 9.83688C7.8696 10.714 8.33103 11.4636 8.92304 11.9911C9.51506 12.5185 10.2111 12.8 10.9231 12.8L10.9231 16Z" fill="black"/>
<path d="M36.9231 16C35.7364 16 34.5764 15.5308 33.5897 14.6518C32.603 13.7727 31.8339 12.5233 31.3798 11.0615C30.9257 9.59966 30.8069 7.99112 31.0384 6.43928C31.2699 4.88743 31.8413 3.46197 32.6805 2.34315C33.5196 1.22433 34.5887 0.462399 35.7526 0.153718C36.9164 -0.154964 38.1228 0.00346289 39.2192 0.608964C40.3156 1.21447 41.2526 2.23985 41.9119 3.55544C42.5712 4.87103 42.9231 6.41775 42.9231 8H40.5231C40.5231 7.05065 40.312 6.12262 39.9164 5.33326C39.5208 4.54391 38.9586 3.92868 38.3008 3.56538C37.6429 3.20208 36.9191 3.10702 36.2208 3.29223C35.5224 3.47744 34.881 3.93459 34.3775 4.60589C33.874 5.27718 33.5312 6.13246 33.3923 7.06357C33.2534 7.99467 33.3247 8.95979 33.5971 9.83688C33.8696 10.714 34.331 11.4636 34.923 11.9911C35.5151 12.5185 36.2111 12.8 36.9231 12.8L36.9231 16Z" fill="black"/>
<path d="M64.9231 16C63.7364 16 62.5764 15.5308 61.5897 14.6518C60.603 13.7727 59.8339 12.5233 59.3798 11.0615C58.9257 9.59966 58.8069 7.99112 59.0384 6.43928C59.2699 4.88743 59.8413 3.46197 60.6805 2.34315C61.5196 1.22433 62.5887 0.462399 63.7526 0.153718C64.9164 -0.154964 66.1228 0.00346289 67.2192 0.608964C68.3156 1.21447 69.2526 2.23985 69.9119 3.55544C70.5712 4.87103 70.9231 6.41775 70.9231 8H68.5231C68.5231 7.05065 68.312 6.12262 67.9164 5.33326C67.5208 4.54391 66.9586 3.92868 66.3008 3.56538C65.6429 3.20208 64.9191 3.10702 64.2208 3.29223C63.5224 3.47744 62.881 3.93459 62.3775 4.60589C61.874 5.27718 61.5312 6.13246 61.3923 7.06357C61.2534 7.99467 61.3247 8.95979 61.5971 9.83688C61.8696 10.714 62.331 11.4636 62.923 11.9911C63.5151 12.5185 64.2111 12.8 64.9231 12.8L64.9231 16Z" fill="black"/>
<path d="M90.9231 16C89.7364 16 88.5764 15.5308 87.5897 14.6518C86.603 13.7727 85.8339 12.5233 85.3798 11.0615C84.9257 9.59966 84.8069 7.99112 85.0384 6.43928C85.2699 4.88743 85.8413 3.46197 86.6805 2.34315C87.5196 1.22433 88.5887 0.462399 89.7526 0.153718C90.9164 -0.154964 92.1228 0.00346289 93.2192 0.608964C94.3156 1.21447 95.2526 2.23985 95.9119 3.55544C96.5712 4.87103 96.9231 6.41775 96.9231 8H94.5231C94.5231 7.05065 94.312 6.12262 93.9164 5.33326C93.5208 4.54391 92.9586 3.92868 92.3008 3.56538C91.6429 3.20208 90.9191 3.10702 90.2208 3.29223C89.5224 3.47744 88.881 3.93459 88.3775 4.60589C87.874 5.27718 87.5312 6.13246 87.3923 7.06357C87.2534 7.99467 87.3247 8.95979 87.5971 9.83688C87.8696 10.714 88.331 11.4636 88.923 11.9911C89.5151 12.5185 90.2111 12.8 90.9231 12.8L90.9231 16Z" fill="black"/>
<path d="M77.9231 16C76.7364 16 75.5764 15.5308 74.5897 14.6518C73.603 13.7727 72.8339 12.5233 72.3798 11.0615C71.9257 9.59966 71.8069 7.99112 72.0384 6.43928C72.2699 4.88743 72.8413 3.46197 73.6805 2.34315C74.5196 1.22433 75.5887 0.462399 76.7526 0.153718C77.9164 -0.154964 79.1228 0.00346289 80.2192 0.608964C81.3156 1.21447 82.2526 2.23985 82.9119 3.55544C83.5712 4.87103 83.9231 6.41775 83.9231 8H81.5231C81.5231 7.05065 81.312 6.12262 80.9164 5.33326C80.5208 4.54391 79.9586 3.92868 79.3008 3.56538C78.6429 3.20208 77.9191 3.10702 77.2208 3.29223C76.5224 3.47744 75.881 3.93459 75.3775 4.60589C74.874 5.27718 74.5312 6.13246 74.3923 7.06357C74.2534 7.99467 74.3247 8.95979 74.5971 9.83688C74.8696 10.714 75.331 11.4636 75.923 11.9911C76.5151 12.5185 77.2111 12.8 77.9231 12.8L77.9231 16Z" fill="black"/>
<path d="M50.9231 16C49.5386 16 48.1852 15.5308 47.0341 14.6518C45.883 13.7727 44.9858 12.5233 44.4559 11.0615C43.9261 9.59966 43.7875 7.99112 44.0576 6.43928C44.3277 4.88743 44.9944 3.46197 45.9733 2.34315C46.9523 1.22433 48.1996 0.462399 49.5575 0.153718C50.9153 -0.154964 52.3228 0.00346289 53.6019 0.608964C54.881 1.21447 55.9742 2.23985 56.7434 3.55544C57.5126 4.87103 57.9231 6.41775 57.9231 8H55.1231C55.1231 7.05065 54.8768 6.12262 54.4153 5.33326C53.9538 4.54391 53.2978 3.92868 52.5304 3.56538C51.7629 3.20208 50.9184 3.10702 50.1037 3.29223C49.289 3.47744 48.5406 3.93459 47.9532 4.60589C47.3659 5.27718 46.9659 6.13246 46.8038 7.06357C46.6417 7.99467 46.7249 8.95979 47.0428 9.83688C47.3607 10.714 47.899 11.4636 48.5897 11.9911C49.2804 12.5185 50.0924 12.8 50.9231 12.8L50.9231 16Z" fill="black"/>
<path d="M23.9231 16C22.7364 16 21.5764 15.5308 20.5897 14.6518C19.603 13.7727 18.8339 12.5233 18.3798 11.0615C17.9257 9.59966 17.8069 7.99112 18.0384 6.43928C18.2699 4.88743 18.8413 3.46197 19.6805 2.34315C20.5196 1.22433 21.5887 0.462399 22.7526 0.153718C23.9164 -0.154964 25.1228 0.00346289 26.2192 0.608964C27.3156 1.21447 28.2526 2.23985 28.9119 3.55544C29.5712 4.87103 29.9231 6.41775 29.9231 8H27.5231C27.5231 7.05065 27.312 6.12262 26.9164 5.33326C26.5208 4.54391 25.9586 3.92868 25.3008 3.56538C24.6429 3.20208 23.9191 3.10702 23.2208 3.29223C22.5224 3.47744 21.881 3.93459 21.3775 4.60589C20.874 5.27718 20.5312 6.13246 20.3923 7.06357C20.2534 7.99467 20.3247 8.95979 20.5971 9.83688C20.8696 10.714 21.331 11.4636 21.923 11.9911C22.5151 12.5185 23.2111 12.8 23.9231 12.8L23.9231 16Z" fill="black"/>
</svg>
