<svg width="126" height="75" viewBox="0 0 126 75" fill="none" xmlns="http://www.w3.org/2000/svg">
<path d="M63.6641 4.14102L44.7561 19.455C41.6112 21.9943 41.0057 26.5651 43.3887 29.8271C45.9085 33.304 50.8113 33.9876 54.1906 31.3507L73.587 16.2711C74.9543 15.2163 76.9076 15.4507 77.9819 16.818C79.0562 18.1853 78.8023 20.1387 77.435 21.213L73.3526 24.3773L107.965 56.2554H116.13C121.306 56.2554 125.506 52.0558 125.506 46.8795V21.8771C125.506 16.7008 121.306 12.5012 116.13 12.5012H101.285H100.504H100.367L99.6051 12.0129L85.424 2.92997C82.4355 1.01572 78.939 0 75.384 0C71.1258 0 66.9848 1.46498 63.6641 4.14102ZM68.1177 28.4402L58.019 36.2926C51.8661 41.0977 42.9395 39.8476 38.3297 33.5189C33.9933 27.5612 35.0872 19.2401 40.8104 14.6108L57.0619 1.46498C54.7961 0.507861 52.3544 0.0195328 49.8737 0.0195328C46.2015 -2.98343e-07 42.6269 1.09386 39.5602 3.1253L25.4964 12.5012H9.86989C4.69361 12.5012 0.493988 16.7008 0.493988 21.8771V46.8795C0.493988 52.0558 4.69361 56.2554 9.86989 56.2554H31.0047L48.858 72.546C52.6865 76.0425 58.605 75.769 62.1015 71.9405C63.1758 70.749 63.8985 69.3621 64.2696 67.9167L67.5903 70.9639C71.3992 74.4603 77.3373 74.2064 80.8337 70.3974C81.7127 69.4403 82.3573 68.3269 82.7675 67.1744C86.557 69.7137 91.7137 69.1863 94.8976 65.7094C98.394 61.9005 98.1401 55.9624 94.3311 52.466L68.1177 28.4402Z" fill="#15BBEE"/>
</svg>
