<svg width="250" height="150" viewBox="0 0 250 150" fill="none" xmlns="http://www.w3.org/2000/svg">
<path d="M65.4818 1.52588e-05L69.4534 0.435446C68.441 2.40778 67.1263 4.20963 65.5571 5.77564C61.7497 9.60378 56.6174 11.8232 51.2205 11.9754L52.0453 9.70874C54.8665 9.19284 57.5368 8.05347 59.8614 6.37379C62.186 4.69412 64.1062 2.51653 65.4818 1.52588e-05Z" fill="#5A5A5A"/>
<path d="M52.0453 9.70916L51.2205 11.9758C56.6175 11.8235 61.7498 9.60389 65.5571 5.77564C67.1263 4.20959 68.4409 2.40776 69.4534 0.435446L65.4818 1.52588e-05C64.1063 2.51661 62.1861 4.69428 59.8615 6.37403C57.5369 8.05378 54.8665 9.19322 52.0453 9.70916Z" fill="#0096D8"/>
<path d="M64.2629 8.04718L67.2925 9.6333C63.358 12.6471 58.5865 14.368 53.634 14.5594C53.298 14.5733 52.9634 14.5803 52.6301 14.5803C51.8608 14.5803 51.0968 14.5446 50.3384 14.4732L50.97 12.6746H51.0377C51.1678 12.6746 51.2791 12.6784 51.4008 12.6784C51.4598 12.6784 51.5213 12.6784 51.5882 12.6746C56.1938 12.4966 60.6275 10.8785 64.265 8.04802" fill="#5A5A5A"/>
<path d="M51.586 12.6746C51.5191 12.6776 51.4576 12.6784 51.3986 12.6784C51.2773 12.6784 51.1661 12.6746 51.0355 12.6746H50.9678L50.3362 14.4732C51.0938 14.5441 51.8578 14.5798 52.6279 14.5803C52.9626 14.5803 53.2972 14.5733 53.6318 14.5594C58.5843 14.368 63.3559 12.6471 67.2904 9.6333L64.2608 8.04718C60.6239 10.8775 56.191 12.496 51.586 12.6746Z" fill="#FFAB08"/>
<path d="M59.5044 5.77556C61.1897 4.5435 62.6576 3.03876 63.8474 1.32338H55.4718C54.5576 1.32614 53.6817 1.6905 53.0353 2.3369C52.3889 2.9833 52.0245 3.85922 52.0218 4.77336V9.00804C54.7246 8.49785 57.2803 7.39377 59.5044 5.77556Z" fill="#5A5A5A"/>
<path d="M69.4191 1.93207C68.4808 3.51085 67.3485 4.96594 66.0486 6.26337C65.6164 6.69559 65.1693 7.10704 64.7072 7.49771L67.6151 9.019L68.5771 9.52345L67.7134 10.1848C65.1698 12.1361 62.2686 13.5704 59.1738 14.4069L61.1171 16.0854L62.1971 17.0182L62.139 17.0295L62.1465 17.0362L60.7457 17.3097C59.6341 17.5262 58.5105 17.676 57.381 17.7581C56.8373 17.7975 56.2517 17.8175 55.6406 17.8175C54.4692 17.8142 53.2989 17.7504 52.1341 17.6264C52.3284 18.3644 52.7611 19.0176 53.3648 19.4845C53.9686 19.9513 54.7096 20.2057 55.4728 20.208H67.4683C68.3822 20.2056 69.2581 19.8416 69.9045 19.1954C70.5509 18.5493 70.9154 17.6737 70.9183 16.7597V4.77094C70.9172 4.21168 70.7801 3.66107 70.519 3.16653C70.2578 2.67199 69.8804 2.24834 69.4191 1.93207Z" fill="#5A5A5A"/>
<path d="M52.0453 9.70916L51.2205 11.9758C56.6175 11.8235 61.7498 9.60389 65.5571 5.77564C67.1263 4.20959 68.4409 2.40776 69.4534 0.435446L65.4818 1.52588e-05C64.1063 2.51661 62.1861 4.69428 59.8615 6.37403C57.5369 8.05378 54.8665 9.19322 52.0453 9.70916Z" fill="#0096D9"/>
<path d="M51.586 12.6746C51.5191 12.6776 51.4576 12.6784 51.3986 12.6784C51.2773 12.6784 51.1661 12.6746 51.0355 12.6746H50.9678L50.3362 14.4732C51.0938 14.5441 51.8578 14.5798 52.6279 14.5803C52.9626 14.5803 53.2972 14.5733 53.6318 14.5594C58.5843 14.368 63.3559 12.6471 67.2904 9.6333L64.2608 8.04718C60.6239 10.8775 56.191 12.496 51.586 12.6746Z" fill="#FFAB08"/>
<path d="M58.4893 14.7954L60.6117 16.6296C59.5273 16.841 58.4313 16.9869 57.3294 17.0667C56.7907 17.106 56.2226 17.1244 55.6395 17.1244C53.6162 17.1173 51.5976 16.9277 49.6084 16.5581L50.1103 15.1146C51.2766 15.2359 52.4483 15.2973 53.6209 15.2986C54.1852 15.2986 54.731 15.2823 55.2242 15.2467C56.3213 15.1666 57.4121 15.0157 58.4897 14.795" fill="#CA0E1F"/>
<path d="M108.636 22.7538V33.1057H78.4923V22.7538H108.636ZM86.2563 9.81387H99.2179V57.9266C99.2179 59.2482 99.4134 60.2785 99.8045 61.0177C100.196 61.7344 100.739 62.2384 101.434 62.5296C102.151 62.8208 102.976 62.9664 103.91 62.9664C104.562 62.9664 105.214 62.9104 105.866 62.7984C106.517 62.664 107.017 62.5632 107.365 62.496L109.548 73.1466C108.853 73.3706 107.875 73.6282 106.615 73.9194C105.355 74.233 103.824 74.4234 102.02 74.4906C98.6748 74.625 95.7419 74.1658 93.2218 73.1131C90.7235 72.0603 88.7791 70.4252 87.3887 68.2077C85.9983 65.9902 86.2345 63.1904 86.2563 59.8081V9.81387Z" fill="#5A5A5A"/>
<path d="M55.2005 74.5134V22.7538H68.1404V74.5134H55.2005Z" fill="#5A5A5A"/>
<path d="M0 74.5134V7.22591H43.9957V17.5778H12.9399V35.6937H41.4077V46.0456H12.9399V74.5134H0Z" fill="#5A5A5A"/>
<path d="M233.893 133.386C229.314 137.314 222.926 139.28 214.718 139.28C209.796 139.28 205.371 138.525 201.441 137.014C197.513 135.5 194.447 133.408 192.243 130.73C190.04 128.053 188.94 125.031 188.94 121.662C188.94 119.933 189.329 118.703 190.105 117.971C190.882 117.234 192.136 116.868 193.862 116.868H240.758C240.758 123.95 238.47 129.456 233.893 133.386ZM69.088 96.9463C73.6655 93.0162 80.0547 91.0525 88.2624 91.0525C93.1841 91.0525 97.6095 91.8079 101.54 93.3187C105.47 94.8296 108.536 96.9251 110.737 99.6017C112.941 102.279 114.041 105.301 114.041 108.67C114.041 110.398 113.654 111.629 112.875 112.361C112.098 113.096 110.845 113.464 109.118 113.464H62.2229C62.2229 106.383 64.5104 100.876 69.088 96.9463ZM249.303 113.614C249.251 103.039 246.234 94.8605 240.239 89.0808C234.195 83.2507 225.6 80.475 214.46 80.3361C180.198 79.9142 151.743 110.062 151.743 110.062L151.72 110.085C151.57 109.9 151.411 109.71 151.237 109.508L129.798 85.2118C128.848 84.0035 127.769 83.3985 126.561 83.3985C125.955 83.3985 125.178 83.701 124.228 84.3043C123.365 85.0809 122.933 85.9884 122.933 87.026C122.933 88.1476 123.365 89.2268 124.228 90.2635L146.393 114.757C146.457 114.828 146.687 115.139 146.386 115.447C143.222 118.603 118.259 142.741 88.5207 142.741C80.1413 142.741 73.6425 140.754 69.0252 136.781C64.4025 132.81 62.0938 127.281 62.0938 120.2H111.451C114.818 120.2 117.452 119.208 119.353 117.22C121.251 115.233 122.204 112.514 122.204 109.058C122.204 104.135 120.777 99.776 117.929 95.975C115.078 92.1732 111.082 89.2171 105.946 87.1012C100.805 84.9845 94.9116 83.9265 88.2624 83.9265C77.5514 83.9265 69.1092 86.8403 62.9359 92.6712C56.7608 98.4996 53.6729 106.425 53.6729 116.444C53.6729 127.152 56.6945 135.421 62.7413 141.251C68.7854 147.079 77.3798 149.858 88.5207 149.996C122.783 150.418 151.237 120.27 151.237 120.27L151.26 120.247C151.411 120.432 151.57 120.622 151.743 120.825L172.729 144.667C173.679 145.876 174.758 146.481 175.967 146.481C176.572 146.481 177.348 146.179 178.299 145.573C179.163 144.796 179.594 143.891 179.594 142.854C179.594 141.729 179.163 140.65 178.299 139.616L156.586 115.576C156.525 115.505 156.293 115.193 156.593 114.886C159.758 111.73 184.723 87.5913 214.46 87.5913C222.839 87.5913 229.338 89.5762 233.958 93.5505C238.578 97.523 240.887 103.051 240.887 110.132H191.53C188.163 110.132 185.528 111.125 183.628 113.112C181.73 115.097 180.779 117.819 180.779 121.275C180.779 126.198 182.204 130.557 185.054 134.358C187.903 138.157 191.898 141.115 197.037 143.231C202.175 145.348 208.069 146.406 214.718 146.406C225.429 146.406 233.871 143.491 240.046 137.661C240.376 137.352 240.69 137.032 241.002 136.709V140.555C241.002 141.936 241.367 143.037 242.102 143.858C242.836 144.677 243.808 145.087 245.017 145.087C247.609 145.087 248.904 143.534 248.904 140.426L249.288 114.853C249.296 114.531 249.308 114.215 249.308 113.888L249.305 113.76L249.308 113.607L249.303 113.614Z" fill="url(#paint0_linear_4066_133)"/>
<defs>
<linearGradient id="paint0_linear_4066_133" x1="55.0662" y1="116.559" x2="248.744" y2="115.863" gradientUnits="userSpaceOnUse">
<stop stop-color="#15BBEE"/>
<stop offset="1" stop-color="#195AA9"/>
</linearGradient>
</defs>
</svg>
