<svg width="142" height="40" viewBox="0 0 142 40" fill="none" xmlns="http://www.w3.org/2000/svg">
<path d="M122.011 24.6903C122.348 24.3831 122.518 23.9575 122.518 23.412C122.518 22.8676 122.348 22.4405 122.011 22.1337C121.673 21.8275 121.205 21.6741 120.606 21.6741C120.045 21.6741 119.608 21.8275 119.294 22.1337C118.979 22.4405 118.821 22.8676 118.821 23.412C118.821 23.9575 118.979 24.3831 119.294 24.6903C119.608 24.9976 120.045 25.151 120.606 25.151C121.205 25.151 121.673 24.9976 122.011 24.6903ZM119.08 28.8477C118.578 28.67 118.184 28.4287 117.901 28.1215C117.793 28.0072 117.74 27.8762 117.74 27.7294C117.74 27.5379 117.831 27.3658 118.015 27.2124C118.13 27.1195 118.254 27.0732 118.385 27.0732C118.584 27.0732 118.806 27.1855 119.051 27.4074C119.236 27.576 119.468 27.7091 119.749 27.8051C120.028 27.9006 120.33 27.9488 120.652 27.9488C121.251 27.9488 121.716 27.7685 122.046 27.4074C122.376 27.0463 122.532 26.5481 122.518 25.9107L122.505 25.4501C122.245 25.7574 121.94 25.9834 121.591 26.1291C121.241 26.2759 120.813 26.3485 120.307 26.3485C119.363 26.3485 118.626 26.0885 118.097 25.5715C117.567 25.053 117.302 24.3333 117.302 23.412C117.302 22.4903 117.573 21.7711 118.114 21.2536C118.654 20.7351 119.409 20.4766 120.376 20.4766C120.774 20.4766 121.159 20.5573 121.527 20.7178C121.895 20.8793 122.226 21.1058 122.518 21.3968V21.1678C122.518 20.9519 122.586 20.7838 122.725 20.6599C122.863 20.537 123.047 20.4766 123.277 20.4766C123.508 20.4766 123.69 20.536 123.824 20.6543C123.959 20.7742 124.027 20.9438 124.027 21.1678V25.9107C124.027 26.5253 123.893 27.0732 123.629 27.5572C123.364 28.0407 122.984 28.4206 122.49 28.6969C121.994 28.9742 121.407 29.1118 120.733 29.1118C120.135 29.1118 119.584 29.024 119.08 28.8477Z" fill="#7DCB29"/>
<path d="M129.57 24.6905C129.911 24.3832 130.082 23.9576 130.082 23.4122C130.082 22.8677 129.911 22.4406 129.57 22.1339C129.228 21.8276 128.762 21.6742 128.172 21.6742C127.58 21.6742 127.114 21.8276 126.772 22.1339C126.43 22.4406 126.26 22.8677 126.26 23.4122C126.26 23.9576 126.43 24.3832 126.772 24.6905C127.114 24.9977 127.58 25.1511 128.172 25.1511C128.762 25.1511 129.228 24.9977 129.57 24.6905ZM126.392 25.9865C125.873 25.7438 125.469 25.4004 125.177 24.9561C124.886 24.5102 124.739 23.9952 124.739 23.4122C124.739 22.8286 124.886 22.3141 125.177 21.8698C125.469 21.4239 125.873 21.08 126.392 20.8393C126.911 20.5965 127.504 20.4767 128.172 20.4767C128.838 20.4767 129.433 20.5965 129.95 20.8393C130.469 21.08 130.872 21.4239 131.165 21.8698C131.456 22.3141 131.603 22.8286 131.603 23.4122C131.603 23.9952 131.456 24.5102 131.165 24.9561C130.872 25.4004 130.469 25.7438 129.95 25.9865C129.433 26.2278 128.838 26.3486 128.172 26.3486C127.504 26.3486 126.911 26.2278 126.392 25.9865Z" fill="#7DCB29"/>
<path d="M117.486 34.6848C117.363 34.5233 117.302 34.3775 117.302 34.247C117.302 34.0637 117.398 33.9021 117.589 33.7635C117.72 33.6797 117.846 33.6365 117.969 33.6365C118.139 33.6365 118.295 33.7097 118.441 33.8564C118.702 34.1165 118.958 34.3034 119.207 34.4141C119.456 34.5258 119.766 34.5812 120.134 34.5812C120.449 34.5812 120.713 34.5395 120.929 34.4547C121.143 34.3694 121.251 34.2673 121.251 34.1434C121.251 33.9895 121.163 33.8605 120.987 33.7528C120.81 33.6447 120.452 33.506 119.916 33.3374C119.071 33.0764 118.472 32.8016 118.119 32.5147C117.766 32.2262 117.589 31.8681 117.589 31.438C117.589 30.9545 117.797 30.5746 118.212 30.2973C118.625 30.021 119.198 29.8834 119.927 29.8834C120.487 29.8834 120.993 29.9687 121.446 30.1368C121.9 30.3054 122.229 30.5314 122.438 30.8158C122.538 30.9464 122.587 31.0774 122.587 31.2079C122.587 31.3913 122.494 31.5421 122.311 31.6564C122.181 31.7412 122.045 31.7828 121.907 31.7828C121.685 31.7828 121.481 31.6914 121.297 31.5071C121.143 31.3613 120.946 31.2496 120.704 31.1729C120.461 31.0962 120.199 31.0586 119.916 31.0586C119.378 31.0586 119.11 31.1851 119.11 31.438C119.11 31.538 119.152 31.6254 119.235 31.7021C119.32 31.7793 119.473 31.86 119.691 31.9448C119.91 32.0296 120.253 32.1439 120.721 32.2897C121.473 32.5197 122.001 32.7732 122.304 33.0494C122.607 33.3257 122.76 33.6904 122.76 34.1434C122.76 34.6269 122.538 35.0174 122.092 35.3125C121.647 35.6076 121.021 35.7559 120.215 35.7559C118.978 35.7559 118.069 35.3988 117.486 34.6848Z" fill="#7DCB29"/>
<path d="M127.268 34.472C127.54 34.3227 127.676 34.1134 127.676 33.8443C127.676 33.5908 127.538 33.3877 127.262 33.2338C126.984 33.0804 126.617 33.0037 126.156 33.0037C125.741 33.0037 125.42 33.0764 125.194 33.2231C124.968 33.3689 124.855 33.5761 124.855 33.8443C124.855 34.1134 124.966 34.3227 125.189 34.472C125.411 34.6213 125.726 34.697 126.133 34.697C126.617 34.697 126.995 34.6213 127.268 34.472ZM124.515 35.5131C124.15 35.3531 123.866 35.1281 123.663 34.8397C123.461 34.5527 123.358 34.2201 123.358 33.8443C123.358 33.2759 123.594 32.8229 124.067 32.4862C124.538 32.148 125.177 31.9784 125.984 31.9784C126.682 31.9784 127.242 32.1292 127.665 32.4283V32.152C127.665 31.7909 127.553 31.5152 127.331 31.3227C127.109 31.1312 126.785 31.0352 126.364 31.0352C125.734 31.0352 125.193 31.1688 124.74 31.4385C124.547 31.5462 124.383 31.5985 124.244 31.5985C124.076 31.5985 123.926 31.5233 123.796 31.3694C123.711 31.2618 123.669 31.15 123.669 31.0352C123.669 30.8428 123.769 30.6747 123.968 30.5289C124.244 30.3283 124.593 30.1719 125.016 30.0561C125.438 29.9418 125.884 29.8839 126.351 29.8839C127.242 29.8839 127.943 30.0845 128.453 30.4888C128.963 30.8915 129.219 31.4461 129.219 32.152V35.1104C129.219 35.3115 129.152 35.4674 129.017 35.5832C128.883 35.698 128.701 35.7559 128.47 35.7559C128.232 35.7559 128.049 35.702 127.918 35.5944C127.788 35.4877 127.722 35.3343 127.722 35.1332V35.0068C127.285 35.5065 126.635 35.7559 125.776 35.7559C125.301 35.7559 124.88 35.6751 124.515 35.5131Z" fill="#7DCB29"/>
<path d="M134.999 28.0292C134.999 28.1288 134.968 28.2329 134.907 28.3405C134.784 28.5478 134.63 28.6519 134.447 28.6519C134.362 28.6519 134.254 28.6275 134.123 28.5818C133.808 28.4508 133.509 28.3863 133.226 28.3863C133.011 28.3863 132.838 28.4538 132.708 28.5884C132.577 28.722 132.512 28.9007 132.512 29.1232V29.9987H133.837C134.074 29.9987 134.259 30.0526 134.394 30.1592C134.529 30.2669 134.597 30.4121 134.597 30.597C134.597 30.7732 134.529 30.9159 134.394 31.0226C134.259 31.1303 134.074 31.1841 133.837 31.1841H132.512V35.0642C132.512 35.2795 132.446 35.4481 132.317 35.5705C132.185 35.6944 132.002 35.7549 131.763 35.7549C131.533 35.7549 131.35 35.6944 131.211 35.5705C131.073 35.4481 131.004 35.2795 131.004 35.0642V31.1841H130.751C130.52 31.1841 130.336 31.1303 130.198 31.0226C130.059 30.9159 129.991 30.7732 129.991 30.597C129.991 30.4121 130.058 30.2669 130.191 30.1592C130.326 30.0526 130.512 29.9987 130.751 29.9987H131.004V29.1689C131.004 28.5777 131.193 28.1008 131.573 27.7357C131.953 27.3705 132.446 27.1887 133.053 27.1887C133.445 27.1887 133.767 27.2171 134.02 27.275C134.273 27.3329 134.503 27.4269 134.711 27.5579C134.904 27.6803 134.999 27.8378 134.999 28.0292Z" fill="#7DCB29"/>
<path d="M139.418 32.2318C139.549 32.2318 139.64 32.2074 139.694 32.1567C139.749 32.1064 139.776 32.0246 139.776 31.9098C139.776 31.6407 139.623 31.4304 139.32 31.2765C139.017 31.1231 138.609 31.0465 138.094 31.0465C137.579 31.0465 137.174 31.1526 136.879 31.3684C136.584 31.5838 136.436 31.8707 136.436 32.2318H139.418ZM136.481 35.3989C135.991 35.1607 135.613 34.825 135.347 34.3913C135.083 33.9575 134.95 33.4482 134.95 32.8651C134.95 31.9205 135.225 31.1876 135.773 30.6666C136.323 30.144 137.096 29.8824 138.094 29.8824C138.708 29.8824 139.251 29.9794 139.724 30.1709C140.196 30.3634 140.563 30.63 140.829 30.9708C141.094 31.3131 141.226 31.7026 141.226 32.1404C141.226 32.5081 141.109 32.7925 140.875 32.9916C140.64 33.1912 140.309 33.2907 139.879 33.2907H136.413C136.413 33.7204 136.564 34.0449 136.868 34.2648C137.171 34.4827 137.619 34.5919 138.21 34.5919C138.831 34.5919 139.36 34.4547 139.798 34.1785C140.043 34.0251 140.236 33.9479 140.374 33.9479C140.504 33.9479 140.631 34.0088 140.754 34.1312C140.884 34.2618 140.95 34.405 140.95 34.5584C140.95 34.7417 140.873 34.8885 140.72 34.9946C140.396 35.2414 140.02 35.4288 139.591 35.5594C139.161 35.6899 138.7 35.7549 138.21 35.7549C137.549 35.7549 136.973 35.636 136.481 35.3989Z" fill="#7DCB29"/>
<path d="M104.317 30.4613C101.688 32.7162 98.0206 33.8452 93.3081 33.8452C90.4823 33.8452 87.9415 33.4115 85.685 32.544C83.4296 31.6751 81.6693 30.4735 80.4037 28.9361C79.1392 27.3993 78.5074 25.664 78.5074 23.7295C78.5074 22.7371 78.7308 22.0307 79.1767 21.6107C79.6226 21.1876 80.3423 20.9774 81.3336 20.9774H108.259C108.259 25.0434 106.945 28.2048 104.317 30.4613ZM9.69458 9.53922C12.3228 7.28278 15.9911 6.15531 20.7036 6.15531C23.5294 6.15531 26.0702 6.58903 28.3267 7.45647C30.5831 8.3239 32.3439 9.52703 33.6074 11.0638C34.8725 12.6011 35.5043 14.336 35.5043 16.2705C35.5043 17.2623 35.2819 17.9693 34.835 18.3898C34.3885 18.8113 33.6694 19.0226 32.678 19.0226H5.75303C5.75303 14.9571 7.06637 11.7957 9.69458 9.53922ZM113.165 19.1089C113.135 13.0374 111.403 8.34168 107.961 5.02328C104.491 1.67594 99.5559 0.0822525 93.1598 0.0025177C73.4881 -0.239735 57.1511 17.0694 57.1511 17.0694L57.1379 17.0831C57.0515 16.9764 56.9601 16.8672 56.8606 16.7514L44.5514 2.80188C44.006 2.10813 43.3864 1.76075 42.6927 1.76075C42.3448 1.76075 41.8989 1.93444 41.3534 2.2808C40.8577 2.72671 40.6099 3.24778 40.6099 3.84351C40.6099 4.48748 40.8577 5.10708 41.3534 5.7023L54.0795 19.7651C54.1161 19.8057 54.2481 19.9845 54.0755 20.1612C52.2588 21.9733 37.9263 35.8325 20.8519 35.8325C16.0409 35.8325 12.3096 34.6913 9.65852 32.4105C7.00441 30.1301 5.67888 26.956 5.67888 22.8905H34.0173C35.9502 22.8905 37.4627 22.3207 38.5541 21.1795C39.6439 20.0383 40.1909 18.4772 40.1909 16.4929C40.1909 13.6667 39.3717 11.1639 37.7364 8.98159C36.0995 6.79878 33.8055 5.10149 30.8568 3.88668C27.9051 2.67136 24.5212 2.06395 20.7036 2.06395C14.5538 2.06395 9.70676 3.73685 6.16237 7.08471C2.61695 10.431 0.843994 14.9815 0.843994 20.7336C0.843994 26.8818 2.57886 31.6294 6.05064 34.9767C9.52088 38.323 14.4553 39.9182 20.8519 39.9975C40.5236 40.2402 56.8606 22.9306 56.8606 22.9306L56.8738 22.9174C56.9601 23.0236 57.0515 23.1328 57.1511 23.2491L69.2002 36.9381C69.7457 37.6323 70.3653 37.9797 71.059 37.9797C71.4064 37.9797 71.8523 37.806 72.3982 37.4581C72.8939 37.0122 73.1418 36.4927 73.1418 35.897C73.1418 35.2515 72.8939 34.6319 72.3982 34.0382L59.9317 20.2354C59.8966 20.1948 59.763 20.0155 59.9357 19.8393C61.7529 18.0272 76.0864 4.16804 93.1598 4.16804C97.9708 4.16804 101.702 5.30769 104.355 7.58953C107.007 9.87035 108.333 13.0445 108.333 17.11H79.9944C78.0615 17.11 76.5485 17.6798 75.4576 18.821C74.3678 19.9606 73.8218 21.5233 73.8218 23.5076C73.8218 26.3338 74.64 28.8366 76.2763 31.0189C77.9121 33.2002 80.2062 34.8985 83.1564 36.1138C86.1066 37.3291 89.4905 37.9365 93.3081 37.9365C99.4578 37.9365 104.305 36.2631 107.85 32.9158C108.039 32.738 108.22 32.5547 108.399 32.3688V34.577C108.399 35.3703 108.609 36.0021 109.031 36.4734C109.452 36.9437 110.01 37.1793 110.704 37.1793C112.193 37.1793 112.936 36.2875 112.936 34.5029L113.157 19.8205C113.161 19.6356 113.168 19.4538 113.168 19.2664L113.166 19.1927L113.168 19.1049L113.165 19.1089Z" fill="white"/>
</svg>
