<svg width="250" height="150" viewBox="0 0 250 150" fill="none" xmlns="http://www.w3.org/2000/svg">
<path d="M233.893 133.386C229.314 137.314 222.926 139.28 214.718 139.28C209.797 139.28 205.371 138.525 201.441 137.014C197.513 135.5 194.447 133.408 192.243 130.73C190.04 128.053 188.94 125.031 188.94 121.662C188.94 119.933 189.329 118.703 190.106 117.971C190.882 117.234 192.136 116.868 193.862 116.868H240.758C240.758 123.95 238.47 129.456 233.893 133.386ZM69.0881 96.9463C73.6656 93.0162 80.0548 91.0525 88.2625 91.0525C93.1842 91.0525 97.6096 91.8079 101.54 93.3187C105.47 94.8296 108.536 96.9251 110.737 99.6017C112.941 102.279 114.041 105.301 114.041 108.67C114.041 110.398 113.654 111.629 112.875 112.361C112.098 113.096 110.845 113.464 109.119 113.464H62.2231C62.2231 106.383 64.5105 100.876 69.0881 96.9463ZM249.303 113.614C249.251 103.039 246.234 94.8605 240.239 89.0808C234.195 83.2507 225.6 80.475 214.46 80.3361C180.198 79.9142 151.743 110.062 151.743 110.062L151.72 110.085C151.57 109.9 151.411 109.71 151.237 109.508L129.799 85.2118C128.848 84.0035 127.769 83.3985 126.561 83.3985C125.955 83.3985 125.178 83.701 124.228 84.3043C123.365 85.0809 122.933 85.9884 122.933 87.026C122.933 88.1476 123.365 89.2268 124.228 90.2635L146.394 114.757C146.457 114.828 146.687 115.139 146.387 115.447C143.222 118.603 118.26 142.741 88.5208 142.741C80.1415 142.741 73.6427 140.754 69.0253 136.781C64.4026 132.81 62.0939 127.281 62.0939 120.2H111.451C114.818 120.2 117.452 119.208 119.353 117.22C121.251 115.233 122.204 112.514 122.204 109.058C122.204 104.135 120.777 99.776 117.929 95.975C115.078 92.1732 111.082 89.2171 105.947 87.1012C100.806 84.9845 94.9117 83.9265 88.2625 83.9265C77.5515 83.9265 69.1093 86.8403 62.936 92.6712C56.7609 98.4996 53.673 106.425 53.673 116.444C53.673 127.152 56.6946 135.421 62.7414 141.251C68.7856 147.079 77.3799 149.858 88.5208 149.996C122.783 150.418 151.237 120.27 151.237 120.27L151.26 120.247C151.411 120.432 151.57 120.622 151.743 120.825L172.729 144.667C173.679 145.876 174.759 146.481 175.967 146.481C176.572 146.481 177.349 146.179 178.299 145.573C179.163 144.796 179.594 143.891 179.594 142.854C179.594 141.729 179.163 140.65 178.299 139.616L156.586 115.576C156.525 115.505 156.293 115.193 156.593 114.886C159.758 111.73 184.723 87.5913 214.46 87.5913C222.839 87.5913 229.338 89.5762 233.958 93.5505C238.578 97.523 240.887 103.051 240.887 110.132H191.53C188.163 110.132 185.528 111.125 183.628 113.112C181.73 115.097 180.779 117.819 180.779 121.275C180.779 126.198 182.204 130.557 185.054 134.358C187.903 138.157 191.899 141.115 197.037 143.231C202.175 145.348 208.069 146.406 214.718 146.406C225.429 146.406 233.872 143.491 240.047 137.661C240.376 137.352 240.69 137.032 241.002 136.709V140.555C241.002 141.936 241.367 143.037 242.102 143.858C242.836 144.677 243.808 145.087 245.017 145.087C247.61 145.087 248.904 143.534 248.904 140.426L249.288 114.853C249.296 114.531 249.308 114.215 249.308 113.888L249.305 113.76L249.308 113.607L249.303 113.614Z" fill="url(#paint0_linear_4035_638)"/>
<path d="M63.228 0L65.8636 0.288966C65.1918 1.59787 64.3194 2.79363 63.2779 3.83289C60.7513 6.37336 57.3453 7.84624 53.7637 7.94724L54.3111 6.44301C56.1833 6.10065 57.9555 5.34453 59.4981 4.22984C61.0408 3.11515 62.3151 1.67004 63.228 0Z" fill="#5A5A5A"/>
<path d="M54.3111 6.44329L53.7637 7.94752C57.3454 7.84642 60.7513 6.37344 63.2779 3.83289C64.3193 2.79361 65.1918 1.59785 65.8636 0.288966L63.228 0C62.3151 1.67009 61.0409 3.11526 59.4982 4.23C57.9555 5.34473 56.1834 6.1009 54.3111 6.44329Z" fill="#0096D8"/>
<path d="M62.419 5.3403L64.4296 6.3929C61.8185 8.39298 58.652 9.53503 55.3653 9.66201C55.1423 9.67127 54.9203 9.67589 54.6991 9.67589C54.1886 9.67589 53.6816 9.65221 53.1783 9.60483L53.5974 8.41122H53.6424C53.7287 8.41122 53.8025 8.41372 53.8833 8.41372C53.9225 8.41372 53.9633 8.41372 54.0077 8.41122C57.0641 8.29311 60.0065 7.21924 62.4204 5.34086" fill="#5A5A5A"/>
<path d="M54.0063 8.41122C53.9619 8.41316 53.9211 8.41372 53.8819 8.41372C53.8014 8.41372 53.7276 8.41122 53.641 8.41122H53.596L53.1769 9.60483C53.6797 9.65184 54.1866 9.67552 54.6978 9.67589C54.9198 9.67589 55.1419 9.67127 55.364 9.66201C58.6506 9.53503 61.8171 8.39298 64.4282 6.3929L62.4177 5.3403C60.0041 7.21862 57.0623 8.29266 54.0063 8.41122Z" fill="#FFAB08"/>
<path d="M59.2612 3.83281C60.3796 3.01518 61.3537 2.01659 62.1433 0.878204H56.585C55.9783 0.880035 55.397 1.12184 54.9681 1.55081C54.5391 1.97978 54.2973 2.56107 54.2955 3.16772V5.97799C56.0891 5.63941 57.7852 4.90671 59.2612 3.83281Z" fill="#5A5A5A"/>
<path d="M65.8407 1.28226C65.218 2.32999 64.4666 3.29563 63.6039 4.15664C63.3171 4.44348 63.0203 4.71653 62.7137 4.9758L64.6435 5.98537L65.2819 6.32014L64.7087 6.759C63.0207 8.05397 61.0954 9.00585 59.0415 9.56094L60.3312 10.6749L61.0479 11.2939L61.0093 11.3014L61.0143 11.3058L60.0847 11.4874C59.347 11.631 58.6014 11.7304 57.8518 11.7849C57.491 11.811 57.1023 11.8244 56.6968 11.8244C55.9195 11.8221 55.1428 11.7798 54.3698 11.6975C54.4987 12.1873 54.7859 12.6208 55.1865 12.9306C55.5872 13.2404 56.079 13.4092 56.5855 13.4108H64.546C65.1526 13.4091 65.7338 13.1676 66.1628 12.7388C66.5918 12.31 66.8337 11.7289 66.8356 11.1223V3.16622C66.8348 2.79508 66.7439 2.42968 66.5706 2.10149C66.3973 1.77329 66.1468 1.49215 65.8407 1.28226Z" fill="#5A5A5A"/>
<path d="M54.3111 6.44329L53.7637 7.94752C57.3454 7.84642 60.7513 6.37344 63.2779 3.83289C64.3193 2.79361 65.1918 1.59785 65.8636 0.288966L63.228 0C62.3151 1.67009 61.0409 3.11526 59.4982 4.23C57.9555 5.34473 56.1834 6.1009 54.3111 6.44329Z" fill="#0096D9"/>
<path d="M54.0063 8.41122C53.9619 8.41316 53.9211 8.41372 53.8819 8.41372C53.8014 8.41372 53.7276 8.41122 53.641 8.41122H53.596L53.1769 9.60483C53.6797 9.65184 54.1866 9.67552 54.6978 9.67589C54.9198 9.67589 55.1419 9.67127 55.364 9.66201C58.6506 9.53503 61.8171 8.39298 64.4282 6.3929L62.4177 5.3403C60.0041 7.21862 57.0623 8.29266 54.0063 8.41122Z" fill="#FFAB08"/>
<path d="M58.5875 9.81867L59.996 11.0359C59.2764 11.1761 58.549 11.273 57.8178 11.326C57.4603 11.352 57.0833 11.3643 56.6963 11.3643C55.3536 11.3595 54.014 11.2337 52.6938 10.9884L53.027 10.0305C53.8009 10.111 54.5785 10.1517 55.3567 10.1526C55.7312 10.1526 56.0934 10.1418 56.4207 10.1182C57.1488 10.065 57.8726 9.96489 58.5878 9.81839" fill="#CA0E1F"/>
<path d="M108.667 16.0405V26.7342H77.529V16.0405H108.667ZM85.5493 2.67343H98.9388V52.3745C98.9388 53.7396 99.1408 54.804 99.5447 55.5676C99.9487 56.308 100.51 56.8286 101.228 57.1294C101.968 57.4302 102.821 57.5806 103.786 57.5806C104.46 57.5806 105.133 57.5227 105.806 57.4071C106.479 57.2682 106.996 57.1641 107.355 57.0947L109.61 68.0969C108.892 68.3283 107.882 68.5944 106.58 68.8952C105.279 69.2191 103.697 69.4158 101.834 69.4852C98.3777 69.6241 95.348 69.1497 92.7448 68.0622C90.1639 66.9747 88.1554 65.2856 86.7191 62.995C85.2828 60.7043 85.5268 57.812 85.5493 54.3181V2.67343Z" fill="#5A5A5A"/>
<path d="M53.4683 69.5088V16.0405H66.8353V69.5088H53.4683Z" fill="#5A5A5A"/>
<path d="M0 69.5088V0H45.4481V10.6937H13.3671V29.4076H42.7746V40.1012H13.3671V69.5088H0Z" fill="#5A5A5A"/>
<defs>
<linearGradient id="paint0_linear_4035_638" x1="55.0663" y1="116.559" x2="248.744" y2="115.863" gradientUnits="userSpaceOnUse">
<stop stop-color="#15BBEE"/>
<stop offset="1" stop-color="#195AA9"/>
</linearGradient>
</defs>
</svg>
