<svg xmlns="http://www.w3.org/2000/svg" width="225" height="48.315" viewBox="0 0 225 48.315">
  <g id="Group_72913" data-name="Group 72913" transform="translate(-65.618 -67.033)">
    <path id="Path_1419" data-name="Path 1419" d="M122.866,67.033l9.495,1.041a50.825,50.825,0,0,1-9.315,12.767A50.342,50.342,0,0,1,88.771,95.663l1.972-5.419a46.049,46.049,0,0,0,32.123-23.211" transform="translate(-19.298)" fill="#fff"/>
    <path id="Path_1420" data-name="Path 1420" d="M90.743,90.244l-1.972,5.419A50.343,50.343,0,0,0,123.046,80.84a50.832,50.832,0,0,0,9.315-12.767l-9.495-1.041A46.049,46.049,0,0,1,90.743,90.244Z" transform="translate(-19.298)" fill="#0096d8"/>
    <path id="Path_1421" data-name="Path 1421" d="M109.367,182.655l7.243,3.792a57.339,57.339,0,0,1-32.654,11.777q-1.205.05-2.4.05-2.759,0-5.479-.256l1.51-4.3h.162c.311,0,.577.009.868.009.141,0,.288,0,.448-.009a52.662,52.662,0,0,0,30.307-11.061" transform="translate(-8.714 -96.383)" fill="#fff"/>
    <path id="Path_1422" data-name="Path 1422" d="M79.06,193.716c-.16.007-.307.009-.448.009-.29,0-.556-.009-.868-.009h-.162l-1.51,4.3q2.717.254,5.479.256,1.2,0,2.4-.05a57.339,57.339,0,0,0,32.654-11.777l-7.243-3.792A52.662,52.662,0,0,1,79.06,193.716Z" transform="translate(-8.714 -96.383)" fill="#ffab08"/>
    <g id="Group_72909" data-name="Group 72909" transform="translate(71.388 70.196)">
      <path id="Path_1423" data-name="Path 1423" d="M118.16,96.672a44.848,44.848,0,0,0,10.383-10.644H108.519a8.273,8.273,0,0,0-8.248,8.248V104.4A44.407,44.407,0,0,0,118.16,96.672Z" transform="translate(-100.271 -86.028)" fill="#fff"/>
      <path id="Path_1424" data-name="Path 1424" d="M143.194,94.783a52.6,52.6,0,0,1-8.058,10.355q-1.55,1.55-3.207,2.951l6.952,3.637,2.3,1.206-2.065,1.581A58.706,58.706,0,0,1,118.7,124.607l4.646,4.013,2.582,2.23-.139.027.018.016-3.349.654a67.831,67.831,0,0,1-8.044,1.072c-1.3.094-2.7.142-4.161.142a81.384,81.384,0,0,1-8.383-.457,8.28,8.28,0,0,0,7.982,6.172h28.678a8.27,8.27,0,0,0,8.248-8.244V101.57A8.249,8.249,0,0,0,143.194,94.783Z" transform="translate(-101.602 -93.325)" fill="#fff"/>
    </g>
    <path id="Path_1425" data-name="Path 1425" d="M90.743,90.244l-1.972,5.419A50.343,50.343,0,0,0,123.046,80.84a50.832,50.832,0,0,0,9.315-12.767l-9.495-1.041A46.049,46.049,0,0,1,90.743,90.244Z" transform="translate(-19.298)" fill="#0096d9"/>
    <path id="Path_1426" data-name="Path 1426" d="M79.06,193.716c-.16.007-.307.009-.448.009-.29,0-.556-.009-.868-.009h-.162l-1.51,4.3q2.717.254,5.479.256,1.2,0,2.4-.05a57.339,57.339,0,0,0,32.654-11.777l-7.243-3.792A52.662,52.662,0,0,1,79.06,193.716Z" transform="translate(-8.714 -96.383)" fill="#ffab08"/>
    <path id="Path_1427" data-name="Path 1427" d="M86.85,279.57l5.074,4.385A65.863,65.863,0,0,1,84.077,285c-1.288.094-2.646.138-4.04.138a80.466,80.466,0,0,1-14.419-1.354l1.2-3.451a81.987,81.987,0,0,0,8.393.44c1.349,0,2.654-.039,3.833-.124a61.057,61.057,0,0,0,7.807-1.08" transform="translate(0 -177.166)" fill="#ca0e1f"/>
    <g id="Group_72911" data-name="Group 72911" transform="translate(126.249 83.268)">
      <g id="Group_72910" data-name="Group 72910" transform="translate(0 0)">
        <path id="Path_1428" data-name="Path 1428" d="M430.355,170.725h19.1v3.581H435.008v6.545h14.446v3.54H435.008v9.015h14.446v3.54h-19.1Z" transform="translate(-430.355 -169.716)" fill="#fff"/>
        <path id="Path_1429" data-name="Path 1429" d="M573.237,226.223h5.708l4.971,4.831,4.87-4.831h5.66l-7.772,7.663,9.4,9.316h-5.605l-6.586-6.491-6.652,6.491h-5.558l9.419-9.342Z" transform="translate(-548.138 -215.974)" fill="#fff"/>
        <path id="Path_1430" data-name="Path 1430" d="M751.863,164.668,768.135,191.9H763.2l-4-6.709H744.577l-3.955,6.709h-4.9Zm-.013,8.183-5.513,9.352h11.087Z" transform="translate(-684.879 -164.668)" fill="#fff"/>
        <path id="Path_1431" data-name="Path 1431" d="M967.967,167.509v4.055a29.549,29.549,0,0,0-10.253-2.079,16.9,16.9,0,0,0-10.118,2.951q-4.112,2.951-4.112,7.247,0,4.379,4.207,7.309a18,18,0,0,0,10.537,2.93,24.762,24.762,0,0,0,9.739-2.2v4.1a26.8,26.8,0,0,1-10.145,1.894,22.673,22.673,0,0,1-13.689-4.123q-5.681-4.123-5.681-9.944,0-5.717,5.586-9.789A22.226,22.226,0,0,1,957.5,165.78,34.333,34.333,0,0,1,967.967,167.509Z" transform="translate(-853.849 -165.595)" fill="#fff"/>
        <path id="Path_1432" data-name="Path 1432" d="M1141.99,170.725h21.074v3.581h-8.224v22.639h-4.653V174.306h-8.2Z" transform="translate(-1023.496 -169.716)" fill="#fff"/>
        <path id="Path_1433" data-name="Path 1433" d="M1293.223,223.853h4.707v16.979h-4.707v-3.375a10.965,10.965,0,0,1-8.522,3.849,11.3,11.3,0,0,1-7.534-2.634,8.085,8.085,0,0,1-3.125-6.4,7.958,7.958,0,0,1,3.152-6.226,11.1,11.1,0,0,1,7.4-2.665,11.7,11.7,0,0,1,4.978,1.091,9.3,9.3,0,0,1,3.652,2.84Zm.649,8.541a4.875,4.875,0,0,0-2.2-3.982,9.108,9.108,0,0,0-10.461-.01,4.754,4.754,0,0,0-2.222,3.869,5.039,5.039,0,0,0,2.168,4.1,8.3,8.3,0,0,0,5.258,1.688,8.4,8.4,0,0,0,5.257-1.677A4.911,4.911,0,0,0,1293.872,232.394Z" transform="translate(-1133.561 -213.604)" fill="#fff"/>
      </g>
    </g>
    <g id="Group_72912" data-name="Group 72912" transform="translate(244.914 69.905)">
      <path id="Path_1434" data-name="Path 1434" d="M1143.021,92.1V85.009h2.907a7.648,7.648,0,0,1,1.172.068,2.449,2.449,0,0,1,.952.332,1.784,1.784,0,0,1,.618.684,2.03,2.03,0,0,1,.234.968,2.083,2.083,0,0,1-.626,1.531,3.173,3.173,0,0,1-2.261.626h-1.977V92.1Zm1.02-3.72h1.993a2.25,2.25,0,0,0,1.4-.339,1.161,1.161,0,0,0,.415-.953,1.211,1.211,0,0,0-.244-.762,1.148,1.148,0,0,0-.644-.418,4.742,4.742,0,0,0-.952-.063h-1.972Z" transform="translate(-1143.021 -84.888)" fill="#fff"/>
      <path id="Path_1435" data-name="Path 1435" d="M1195.623,85.009h1.02v4.1a4.5,4.5,0,0,1-.263,1.7,2.128,2.128,0,0,1-.949,1.023,3.593,3.593,0,0,1-1.8.394,3.972,3.972,0,0,1-1.772-.344,2.03,2.03,0,0,1-.983-.994,4.393,4.393,0,0,1-.294-1.777v-4.1h1.02V89.1a3.687,3.687,0,0,0,.187,1.362,1.342,1.342,0,0,0,.641.675,2.383,2.383,0,0,0,1.112.237,2.244,2.244,0,0,0,1.6-.469,2.544,2.544,0,0,0,.478-1.8Z" transform="translate(-1182.662 -84.888)" fill="#fff"/>
      <path id="Path_1436" data-name="Path 1436" d="M1245.545,89.009l1.02.237a3.129,3.129,0,0,1-1.154,1.763,3.366,3.366,0,0,1-2.037.607,3.91,3.91,0,0,1-2.027-.467,2.979,2.979,0,0,1-1.188-1.352,4.491,4.491,0,0,1-.408-1.9,3.9,3.9,0,0,1,.46-1.933,3.027,3.027,0,0,1,1.309-1.253,4.091,4.091,0,0,1,1.869-.428,3.356,3.356,0,0,1,1.945.542,2.812,2.812,0,0,1,1.1,1.524l-1,.218a1.975,1.975,0,0,0-2.061-1.48,2.65,2.65,0,0,0-1.485.392,2.091,2.091,0,0,0-.839,1.052,3.934,3.934,0,0,0-.242,1.362,4.015,4.015,0,0,0,.286,1.58,2.008,2.008,0,0,0,.891,1.008,2.665,2.665,0,0,0,1.309.334,2.317,2.317,0,0,0,1.451-.455A2.284,2.284,0,0,0,1245.545,89.009Z" transform="translate(-1223.645 -84.283)" fill="#fff"/>
      <path id="Path_1437" data-name="Path 1437" d="M1289.616,110.432v-.875h2.908v.875Z" transform="translate(-1265.207 -105.349)" fill="#fff"/>
      <path id="Path_1438" data-name="Path 1438" d="M1318.515,92.1V85.009h3.418a4.914,4.914,0,0,1,1.567.191,1.682,1.682,0,0,1,.857.675,1.894,1.894,0,0,1,.321,1.069,1.707,1.707,0,0,1-.531,1.272,2.8,2.8,0,0,1-1.641.658,2.692,2.692,0,0,1,.615.353,5,5,0,0,1,.847.943l1.341,1.93h-1.283l-1.02-1.475q-.447-.639-.736-.977a2.237,2.237,0,0,0-.518-.474,1.608,1.608,0,0,0-.465-.189,3.337,3.337,0,0,0-.568-.034h-1.183V92.1Zm1.02-3.962h2.192a3.559,3.559,0,0,0,1.094-.133,1.156,1.156,0,0,0,.6-.426,1.086,1.086,0,0,0,.2-.636,1.022,1.022,0,0,0-.4-.827,1.975,1.975,0,0,0-1.254-.324h-2.44Z" transform="translate(-1289.294 -84.888)" fill="#fff"/>
      <path id="Path_1439" data-name="Path 1439" d="M1368.76,86.01v-1h.946v1Zm0,6.09V86.963h.946V92.1Z" transform="translate(-1331.172 -84.888)" fill="#fff"/>
      <path id="Path_1440" data-name="Path 1440" d="M1385.312,98.733a2.539,2.539,0,0,1,.862-2.114,2.74,2.74,0,0,1,1.756-.571,2.621,2.621,0,0,1,1.882.694,2.518,2.518,0,0,1,.731,1.918,3.164,3.164,0,0,1-.323,1.56,2.2,2.2,0,0,1-.941.883,2.931,2.931,0,0,1-1.349.314,2.447,2.447,0,0,1-2.618-2.685Zm.973,0a2.069,2.069,0,0,0,.468,1.478,1.649,1.649,0,0,0,2.35,0,2.118,2.118,0,0,0,.468-1.5,2.01,2.01,0,0,0-.47-1.444,1.651,1.651,0,0,0-2.348,0A2.06,2.06,0,0,0,1386.285,98.733Z" transform="translate(-1344.968 -94.089)" fill="#fff"/>
    </g>
  </g>
</svg>
