<svg width="176" height="50" viewBox="0 0 176 50" fill="none" xmlns="http://www.w3.org/2000/svg">
<path d="M151.459 30.8627C151.88 30.4786 152.092 29.9466 152.092 29.2648C152.092 28.5843 151.88 28.0504 151.459 27.6669C151.036 27.2841 150.452 27.0924 149.703 27.0924C149.002 27.0924 148.454 27.2841 148.063 27.6669C147.669 28.0504 147.471 28.5843 147.471 29.2648C147.471 29.9466 147.669 30.4786 148.063 30.8627C148.454 31.2467 149.002 31.4385 149.703 31.4385C150.452 31.4385 151.036 31.2467 151.459 30.8627ZM147.795 36.0594C147.167 35.8372 146.675 35.5357 146.321 35.1516C146.187 35.0088 146.12 34.845 146.12 34.6615C146.12 34.4222 146.234 34.207 146.464 34.0153C146.608 33.8991 146.763 33.8413 146.926 33.8413C147.175 33.8413 147.453 33.9816 147.759 34.259C147.99 34.4698 148.28 34.6361 148.632 34.7561C148.98 34.8755 149.358 34.9358 149.76 34.9358C150.509 34.9358 151.09 34.7104 151.503 34.259C151.916 33.8077 152.11 33.1849 152.092 32.3882L152.077 31.8124C151.752 32.1965 151.37 32.479 150.934 32.6612C150.496 32.8446 149.962 32.9354 149.329 32.9354C148.148 32.9354 147.227 32.6104 146.566 31.9641C145.904 31.3159 145.572 30.4164 145.572 29.2648C145.572 28.1126 145.911 27.2137 146.587 26.5668C147.262 25.9186 148.206 25.5955 149.415 25.5955C149.913 25.5955 150.393 25.6964 150.854 25.897C151.314 26.0989 151.727 26.382 152.092 26.7458V26.4595C152.092 26.1897 152.178 25.9795 152.351 25.8246C152.523 25.671 152.754 25.5955 153.042 25.5955C153.33 25.5955 153.557 25.6697 153.725 25.8177C153.894 25.9675 153.978 26.1795 153.978 26.4595V32.3882C153.978 33.1563 153.812 33.8413 153.482 34.4463C153.15 35.0507 152.675 35.5255 152.057 35.8709C151.437 36.2175 150.704 36.3895 149.861 36.3895C149.113 36.3895 148.425 36.2797 147.795 36.0594Z" fill="#7DCB29"/>
<path d="M160.908 30.8626C161.334 30.4785 161.548 29.9465 161.548 29.2647C161.548 28.5842 161.334 28.0503 160.908 27.6668C160.48 27.284 159.897 27.0923 159.159 27.0923C158.42 27.0923 157.838 27.284 157.41 27.6668C156.983 28.0503 156.771 28.5842 156.771 29.2647C156.771 29.9465 156.983 30.4785 157.41 30.8626C157.838 31.2466 158.42 31.4384 159.159 31.4384C159.897 31.4384 160.48 31.2466 160.908 30.8626ZM156.935 32.4827C156.287 32.1792 155.781 31.7501 155.416 31.1946C155.053 30.6372 154.869 29.9935 154.869 29.2647C154.869 28.5353 155.053 27.8922 155.416 27.3367C155.781 26.7793 156.287 26.3496 156.935 26.0486C157.584 25.7452 158.325 25.5954 159.159 25.5954C159.993 25.5954 160.736 25.7452 161.383 26.0486C162.031 26.3496 162.535 26.7793 162.901 27.3367C163.265 27.8922 163.448 28.5353 163.448 29.2647C163.448 29.9935 163.265 30.6372 162.901 31.1946C162.535 31.7501 162.031 32.1792 161.383 32.4827C160.736 32.7842 159.993 32.9353 159.159 32.9353C158.325 32.9353 157.584 32.7842 156.935 32.4827Z" fill="#7DCB29"/>
<path d="M145.802 43.356C145.649 43.1541 145.573 42.9719 145.573 42.8087C145.573 42.5796 145.692 42.3777 145.932 42.2044C146.095 42.0996 146.253 42.0457 146.407 42.0457C146.619 42.0457 146.814 42.1371 146.996 42.3206C147.323 42.6456 147.643 42.8792 147.954 43.0176C148.265 43.1573 148.653 43.2265 149.112 43.2265C149.507 43.2265 149.837 43.1744 150.106 43.0684C150.374 42.9617 150.509 42.8341 150.509 42.6792C150.509 42.4869 150.399 42.3256 150.179 42.191C149.958 42.0558 149.51 41.8825 148.84 41.6718C147.784 41.3454 147.035 41.002 146.594 40.6433C146.152 40.2827 145.932 39.8352 145.932 39.2975C145.932 38.6931 146.191 38.2183 146.71 37.8716C147.227 37.5263 147.942 37.3543 148.853 37.3543C149.554 37.3543 150.186 37.4609 150.753 37.671C151.32 37.8818 151.731 38.1643 151.992 38.5198C152.117 38.683 152.179 38.8467 152.179 39.0099C152.179 39.2391 152.062 39.4276 151.834 39.5705C151.671 39.6765 151.502 39.7285 151.329 39.7285C151.051 39.7285 150.797 39.6143 150.566 39.3838C150.374 39.2016 150.128 39.062 149.825 38.9661C149.522 38.8702 149.194 38.8233 148.84 38.8233C148.168 38.8233 147.833 38.9813 147.833 39.2975C147.833 39.4225 147.885 39.5317 147.989 39.6276C148.095 39.7241 148.286 39.825 148.559 39.931C148.833 40.0371 149.261 40.1799 149.847 40.3621C150.786 40.6497 151.447 40.9665 151.826 41.3118C152.204 41.6572 152.394 42.113 152.394 42.6792C152.394 43.2836 152.117 43.7718 151.56 44.1406C151.004 44.5095 150.221 44.6948 149.214 44.6948C147.668 44.6948 146.531 44.2485 145.802 43.356Z" fill="#7DCB29"/>
<path d="M158.029 43.09C158.37 42.9033 158.54 42.6418 158.54 42.3053C158.54 41.9885 158.368 41.7346 158.023 41.5422C157.675 41.3505 157.216 41.2547 156.64 41.2547C156.122 41.2547 155.721 41.3454 155.438 41.5289C155.155 41.7111 155.013 41.9701 155.013 42.3053C155.013 42.6418 155.153 42.9033 155.431 43.09C155.709 43.2766 156.103 43.3712 156.611 43.3712C157.216 43.3712 157.689 43.2766 158.029 43.09ZM154.589 44.3914C154.132 44.1914 153.777 43.9102 153.523 43.5496C153.271 43.1909 153.143 42.7751 153.143 42.3053C153.143 41.5949 153.437 41.0287 154.028 40.6078C154.618 40.185 155.416 39.9729 156.425 39.9729C157.297 39.9729 157.997 40.1615 158.526 40.5354V40.1901C158.526 39.7387 158.386 39.394 158.108 39.1534C157.831 38.914 157.426 38.7941 156.899 38.7941C156.113 38.7941 155.436 38.961 154.87 39.2981C154.629 39.4327 154.424 39.4981 154.25 39.4981C154.04 39.4981 153.853 39.4041 153.69 39.2118C153.584 39.0772 153.532 38.9375 153.532 38.7941C153.532 38.5535 153.656 38.3433 153.905 38.1611C154.25 37.9104 154.686 37.7148 155.215 37.5701C155.742 37.4273 156.3 37.3549 156.884 37.3549C157.997 37.3549 158.873 37.6057 159.511 38.111C160.149 38.6144 160.469 39.3076 160.469 40.1901V43.888C160.469 44.1393 160.385 44.3342 160.216 44.479C160.048 44.6225 159.821 44.6948 159.533 44.6948C159.235 44.6948 159.006 44.6275 158.843 44.4929C158.68 44.3596 158.597 44.1679 158.597 43.9165V43.7584C158.051 44.3831 157.239 44.6948 156.165 44.6948C155.571 44.6948 155.045 44.5939 154.589 44.3914Z" fill="#7DCB29"/>
<path d="M167.694 35.0368C167.694 35.1612 167.655 35.2913 167.579 35.4259C167.424 35.6849 167.233 35.8151 167.004 35.8151C166.898 35.8151 166.762 35.7846 166.599 35.7275C166.206 35.5637 165.832 35.4831 165.478 35.4831C165.209 35.4831 164.993 35.5675 164.83 35.7357C164.666 35.9027 164.586 36.1261 164.586 36.4042V37.4987H166.241C166.538 37.4987 166.769 37.5659 166.938 37.6993C167.106 37.8338 167.191 38.0154 167.191 38.2465C167.191 38.4668 167.106 38.6452 166.938 38.7785C166.769 38.9131 166.538 38.9804 166.241 38.9804H164.586V43.8305C164.586 44.0996 164.503 44.3104 164.341 44.4634C164.176 44.6183 163.948 44.6938 163.649 44.6938C163.361 44.6938 163.132 44.6183 162.959 44.4634C162.786 44.3104 162.699 44.0996 162.699 43.8305V38.9804H162.383C162.095 38.9804 161.865 38.9131 161.693 38.7785C161.519 38.6452 161.434 38.4668 161.434 38.2465C161.434 38.0154 161.517 37.8338 161.684 37.6993C161.853 37.5659 162.085 37.4987 162.383 37.4987H162.699V36.4613C162.699 35.7224 162.937 35.1263 163.412 34.6698C163.887 34.2134 164.503 33.9861 165.261 33.9861C165.751 33.9861 166.154 34.0217 166.47 34.0941C166.786 34.1664 167.074 34.2839 167.334 34.4477C167.575 34.6006 167.694 34.7974 167.694 35.0368Z" fill="#7DCB29"/>
<path d="M173.218 40.2903C173.381 40.2903 173.495 40.2598 173.563 40.1963C173.631 40.1335 173.664 40.0312 173.664 39.8878C173.664 39.5513 173.474 39.2885 173.095 39.0961C172.716 38.9044 172.206 38.8086 171.562 38.8086C170.919 38.8086 170.413 38.9412 170.044 39.211C169.675 39.4802 169.49 39.8389 169.49 40.2903H173.218ZM169.547 44.2491C168.934 43.9513 168.461 43.5317 168.129 42.9896C167.799 42.4474 167.632 41.8107 167.632 41.0819C167.632 39.9011 167.976 38.985 168.661 38.3337C169.348 37.6805 170.315 37.3535 171.562 37.3535C172.331 37.3535 173.009 37.4748 173.6 37.7141C174.189 37.9547 174.649 38.288 174.981 38.714C175.313 39.1418 175.477 39.6288 175.477 40.176C175.477 40.6356 175.331 40.9911 175.038 41.24C174.745 41.4895 174.331 41.6139 173.794 41.6139H169.461C169.461 42.151 169.65 42.5566 170.031 42.8315C170.409 43.1038 170.968 43.2403 171.707 43.2403C172.484 43.2403 173.145 43.0689 173.693 42.7236C173.999 42.5319 174.24 42.4354 174.412 42.4354C174.575 42.4354 174.733 42.5115 174.887 42.6645C175.05 42.8277 175.133 43.0067 175.133 43.1984C175.133 43.4276 175.036 43.6111 174.844 43.7437C174.44 44.0523 173.97 44.2865 173.433 44.4497C172.896 44.6128 172.32 44.6941 171.707 44.6941C170.881 44.6941 170.161 44.5455 169.547 44.2491Z" fill="#7DCB29"/>
<path d="M129.341 38.0766C126.056 40.8952 121.471 42.3065 115.58 42.3065C112.048 42.3065 108.872 41.7643 106.051 40.68C103.232 39.5938 101.032 38.0918 99.4497 36.1702C97.8689 34.2492 97.0792 32.08 97.0792 29.6619C97.0792 28.4214 97.3585 27.5384 97.9159 27.0134C98.4733 26.4845 99.3729 26.2217 100.612 26.2217H134.268C134.268 31.3042 132.627 35.256 129.341 38.0766ZM11.0632 11.924C14.3485 9.10347 18.9339 7.69414 24.8245 7.69414C28.3567 7.69414 31.5328 8.23629 34.3533 9.32058C37.1739 10.4049 39.3748 11.9088 40.9543 13.8298C42.5357 15.7514 43.3254 17.92 43.3254 20.3381C43.3254 21.5779 43.0474 22.4616 42.4887 22.9873C41.9307 23.5142 41.0318 23.7783 39.7926 23.7783H6.13629C6.13629 18.6964 7.77797 14.7446 11.0632 11.924ZM140.401 23.8862C140.364 16.2968 138.199 10.4271 133.896 6.2791C129.559 2.09492 123.39 0.102817 115.395 0.00314799C90.8052 -0.299667 70.3839 21.3367 70.3839 21.3367L70.3674 21.3538C70.2594 21.2205 70.1452 21.084 70.0207 20.9393L54.6343 3.50235C53.9525 2.63516 53.178 2.20094 52.3108 2.20094C51.876 2.20094 51.3186 2.41805 50.6368 2.85101C50.0172 3.40839 49.7074 4.05973 49.7074 4.80439C49.7074 5.60936 50.0172 6.38385 50.6368 7.12787L66.5444 24.7064C66.5901 24.7572 66.7552 24.9806 66.5393 25.2016C64.2685 27.4666 46.3529 44.7906 25.0099 44.7906C18.9961 44.7906 14.332 43.3641 11.0182 40.5131C7.70052 37.6627 6.04361 33.695 6.04361 28.6131H41.4666C43.8828 28.6131 45.7733 27.9009 47.1376 26.4744C48.4999 25.0479 49.1836 23.0964 49.1836 20.6162C49.1836 17.0833 48.1597 13.9549 46.1155 11.227C44.0694 8.49848 41.2019 6.37687 37.5161 4.85835C33.8264 3.33919 29.5965 2.57993 24.8245 2.57993C17.1373 2.57993 11.0785 4.67107 6.64797 8.85589C2.2162 13.0388 0 18.7269 0 25.917C0 33.6023 2.16859 39.5367 6.5083 43.7209C10.8461 47.9038 17.0141 49.8978 25.0099 49.9968C49.5995 50.3003 70.0207 28.6633 70.0207 28.6633L70.0373 28.6468C70.1452 28.7795 70.2594 28.916 70.3839 29.0613L85.4453 46.1726C86.1271 47.0404 86.9016 47.4746 87.7688 47.4746C88.203 47.4746 88.7604 47.2575 89.4428 46.8227C90.0624 46.2653 90.3722 45.6159 90.3722 44.8712C90.3722 44.0643 90.0624 43.2898 89.4428 42.5477L73.8596 25.2942C73.8158 25.2435 73.6488 25.0194 73.8647 24.7991C76.1361 22.534 94.053 5.21005 115.395 5.21005C121.409 5.21005 126.073 6.63461 129.388 9.48691C132.704 12.3379 134.361 16.3056 134.361 21.3875H98.938C96.5218 21.3875 94.6307 22.0998 93.267 23.5262C91.9047 24.9508 91.2222 26.9042 91.2222 29.3845C91.2222 32.9173 92.245 36.0458 94.2904 38.7736C96.3352 41.5002 99.2027 43.6231 102.89 45.1423C106.578 46.6614 110.808 47.4207 115.58 47.4207C123.267 47.4207 129.326 45.3289 133.758 41.1447C133.994 40.9225 134.219 40.6934 134.444 40.461V43.2213C134.444 44.2129 134.706 45.0026 135.233 45.5917C135.76 46.1796 136.457 46.4742 137.325 46.4742C139.186 46.4742 140.115 45.3594 140.115 43.1286L140.391 24.7756C140.396 24.5445 140.405 24.3172 140.405 24.083L140.403 23.9909L140.405 23.8811L140.401 23.8862Z" fill="url(#paint0_linear_4022_112)"/>
<defs>
<linearGradient id="paint0_linear_4022_112" x1="1" y1="26" x2="140" y2="25.5" gradientUnits="userSpaceOnUse">
<stop stop-color="#15BBEE"/>
<stop offset="1" stop-color="#195AA9"/>
</linearGradient>
</defs>
</svg>
