<svg width="86" height="75" viewBox="0 0 86 75" fill="none" xmlns="http://www.w3.org/2000/svg">
<path d="M46.5161 3.51562V5.05371C47.4536 5.22949 48.3618 5.44922 49.1821 5.66895C51.0571 6.16699 52.1704 8.10059 51.6723 9.97559C51.1743 11.8506 49.2407 12.9639 47.3657 12.4658C45.769 12.041 44.2749 11.748 42.9419 11.7334C41.8725 11.7188 40.7885 11.9824 40.1001 12.3779C39.7924 12.5684 39.646 12.7295 39.5874 12.8174C39.5434 12.8906 39.4848 12.9932 39.4848 13.2275C39.4848 13.2715 39.4848 13.3008 39.4848 13.3154C39.5141 13.3447 39.6167 13.4912 39.9682 13.6963C40.8178 14.209 42.0776 14.6045 43.9819 15.1758L44.1137 15.2197C45.7397 15.7031 47.9077 16.3623 49.6655 17.4609C51.6723 18.7207 53.4887 20.8154 53.5327 24.0381C53.5766 27.334 51.8628 29.7363 49.6216 31.1426C48.6401 31.7432 47.5854 32.168 46.5014 32.4316V33.9844C46.5014 35.9326 44.9341 37.5 42.9858 37.5C41.0376 37.5 39.4702 35.9326 39.4702 33.9844V32.3145C38.0786 31.9775 36.8042 31.5381 35.7202 31.1719C35.4126 31.0693 35.1196 30.9668 34.8413 30.8789C32.9956 30.2637 31.9995 28.2715 32.6147 26.4258C33.2299 24.5801 35.2221 23.584 37.0678 24.1992C37.4487 24.3311 37.8003 24.4482 38.1372 24.5654C40.1294 25.2393 41.5649 25.7227 43.103 25.7812C44.2749 25.8252 45.3149 25.5469 45.9155 25.1807C46.1938 25.0049 46.3257 24.8584 46.3842 24.7559C46.4428 24.668 46.5161 24.4922 46.5014 24.1553V24.126C46.5014 23.9795 46.5014 23.8184 45.9155 23.4521C45.0805 22.9248 43.8208 22.5146 41.9458 21.9434L41.6674 21.8555C40.0854 21.3867 38.0053 20.7568 36.3354 19.7461C34.3579 18.5596 32.4536 16.5234 32.4389 13.2861C32.4243 9.93164 34.3286 7.63184 36.4966 6.34277C37.4341 5.78613 38.4448 5.40527 39.4555 5.1416V3.51562C39.4555 1.56738 41.0229 0 42.9712 0C44.9194 0 46.4868 1.56738 46.4868 3.51562H46.5161ZM84.0454 49.2627C85.9643 51.8701 85.4077 55.5322 82.8003 57.4512L64.2553 71.1182C60.8276 73.6377 56.6967 75 52.4341 75H28.938H5.50046C2.90768 75 0.812958 72.9053 0.812958 70.3125V60.9375C0.812958 58.3447 2.90768 56.25 5.50046 56.25H10.8911L17.4682 50.9766C20.7934 48.3105 24.9243 46.875 29.187 46.875H40.6567H43.0005H52.3755C54.9682 46.875 57.063 48.9697 57.063 51.5625C57.063 54.1553 54.9682 56.25 52.3755 56.25H43.0005H40.6567C39.3676 56.25 38.313 57.3047 38.313 58.5938C38.313 59.8828 39.3676 60.9375 40.6567 60.9375H58.3227L75.8569 48.0176C78.4643 46.0986 82.1264 46.6553 84.0454 49.2627ZM29.1723 56.25H29.0405C29.0844 56.25 29.1284 56.25 29.1723 56.25Z" fill="#89C53F"/>
</svg>
