<svg width="58" height="75" viewBox="0 0 58 75" fill="none" xmlns="http://www.w3.org/2000/svg">
<path d="M10.25 7.03125C8.96094 7.03125 7.90625 8.08594 7.90625 9.375V65.625C7.90625 66.9141 8.96094 67.9688 10.25 67.9688H21.9688V58.5938C21.9688 54.7119 25.1182 51.5625 29 51.5625C32.8818 51.5625 36.0312 54.7119 36.0312 58.5938V67.9688H47.75C49.0391 67.9688 50.0938 66.9141 50.0938 65.625V9.375C50.0938 8.08594 49.0391 7.03125 47.75 7.03125H10.25ZM0.875 9.375C0.875 4.2041 5.0791 0 10.25 0H47.75C52.9209 0 57.125 4.2041 57.125 9.375V65.625C57.125 70.7959 52.9209 75 47.75 75H10.25C5.0791 75 0.875 70.7959 0.875 65.625V9.375ZM13.7656 15.2344C13.7656 13.9453 14.8203 12.8906 16.1094 12.8906H23.1406C24.4297 12.8906 25.4844 13.9453 25.4844 15.2344V22.2656C25.4844 23.5547 24.4297 24.6094 23.1406 24.6094H16.1094C14.8203 24.6094 13.7656 23.5547 13.7656 22.2656V15.2344ZM34.8594 12.8906H41.8906C43.1797 12.8906 44.2344 13.9453 44.2344 15.2344V22.2656C44.2344 23.5547 43.1797 24.6094 41.8906 24.6094H34.8594C33.5703 24.6094 32.5156 23.5547 32.5156 22.2656V15.2344C32.5156 13.9453 33.5703 12.8906 34.8594 12.8906ZM13.7656 33.9844C13.7656 32.6953 14.8203 31.6406 16.1094 31.6406H23.1406C24.4297 31.6406 25.4844 32.6953 25.4844 33.9844V41.0156C25.4844 42.3047 24.4297 43.3594 23.1406 43.3594H16.1094C14.8203 43.3594 13.7656 42.3047 13.7656 41.0156V33.9844ZM34.8594 31.6406H41.8906C43.1797 31.6406 44.2344 32.6953 44.2344 33.9844V41.0156C44.2344 42.3047 43.1797 43.3594 41.8906 43.3594H34.8594C33.5703 43.3594 32.5156 42.3047 32.5156 41.0156V33.9844C32.5156 32.6953 33.5703 31.6406 34.8594 31.6406Z" fill="#15BBEE"/>
</svg>
