<svg width="94" height="75" viewBox="0 0 94 75" fill="none" xmlns="http://www.w3.org/2000/svg">
<path d="M23.5625 9.375C23.5625 4.2041 27.7666 0 32.9375 0H84.5C89.6709 0 93.875 4.2041 93.875 9.375V51.5625C93.875 56.7334 89.6709 60.9375 84.5 60.9375H49.4609C47.7324 57.2021 45.0811 53.9795 41.7852 51.5625H56.375V46.875C56.375 44.2822 58.4697 42.1875 61.0625 42.1875H70.4375C73.0303 42.1875 75.125 44.2822 75.125 46.875V51.5625H84.5V9.375H32.9375V16.5674C30.1836 14.9707 26.9756 14.0625 23.5625 14.0625V9.375ZM23.5625 18.75C25.4092 18.75 27.2378 19.1137 28.944 19.8204C30.6501 20.5272 32.2004 21.563 33.5062 22.8688C34.812 24.1746 35.8479 25.7249 36.5546 27.431C37.2613 29.1372 37.625 30.9658 37.625 32.8125C37.625 34.6592 37.2613 36.4878 36.5546 38.194C35.8479 39.9001 34.812 41.4504 33.5062 42.7562C32.2004 44.062 30.6501 45.0979 28.944 45.8046C27.2378 46.5113 25.4092 46.875 23.5625 46.875C21.7158 46.875 19.8872 46.5113 18.181 45.8046C16.4749 45.0979 14.9246 44.062 13.6188 42.7562C12.313 41.4504 11.2772 39.9001 10.5704 38.194C9.86374 36.4878 9.5 34.6592 9.5 32.8125C9.5 30.9658 9.86374 29.1372 10.5704 27.431C11.2772 25.7249 12.313 24.1746 13.6188 22.8688C14.9246 21.563 16.4749 20.5272 18.181 19.8204C19.8872 19.1137 21.7158 18.75 23.5625 18.75ZM19.6514 51.5625H27.459C38.2549 51.5625 47 60.3076 47 71.0889C47 73.2422 45.2568 75 43.0889 75H4.03613C1.86816 75 0.125 73.2568 0.125 71.0889C0.125 60.3076 8.87012 51.5625 19.6514 51.5625Z" fill="#F166A7"/>
</svg>
